<svg width="587" height="234" viewBox="0 0 587 234" fill="none" xmlns="http://www.w3.org/2000/svg">
<g clip-path="url(#clip0_207_17)">
<mask id="mask0_207_17" style="mask-type:luminance" maskUnits="userSpaceOnUse" x="-40" y="-44" width="663" height="312">
<path d="M623 -44H-40V268H623V-44Z" fill="white"/>
</mask>
<g mask="url(#mask0_207_17)">
<mask id="mask1_207_17" style="mask-type:luminance" maskUnits="userSpaceOnUse" x="-136" y="-220" width="842" height="465">
<path d="M706 -220H-136V245H706V-220Z" fill="white"/>
</mask>
<g mask="url(#mask1_207_17)">
<mask id="mask2_207_17" style="mask-type:luminance" maskUnits="userSpaceOnUse" x="-54" y="5" width="699" height="348">
<path d="M644.35 5.13H-53.6499V352.13H644.35V5.13Z" fill="white"/>
</mask>
<g mask="url(#mask2_207_17)">
<path d="M384.29 117.38H583.84C583.68 122.17 582.07 126.94 579.04 131.53C579.46 131.74 579.85 132 580.21 132.3C580.28 132.25 580.34 132.2 580.42 132.16C583.66 127.18 585.36 121.95 585.36 116.64C585.36 116.48 585.36 116.31 585.35 116.14H2.3501C2.3501 116.3 2.3501 116.47 2.3501 116.64C2.3501 122.17 3.1601 127.6 4.7001 132.91C5.4401 133.13 6.0501 133.51 6.5301 134C6.5501 133.99 6.5701 133.98 6.5901 133.97C4.8701 128.55 3.9301 123.02 3.8501 117.39H75.6101L107.31 133.03C107.54 132.86 107.79 132.71 108.06 132.56C108.03 132.31 107.99 132.06 107.96 131.81C107.96 131.76 107.97 131.72 107.97 131.68L79.0001 117.38H220.98L257.1 135.2C257.38 134.87 257.74 134.58 258.16 134.32C258.14 134.23 258.14 134.13 258.13 134.04L224.36 117.38H380.9L412.64 133.04C412.6 132.5 412.64 131.97 412.77 131.43L384.29 117.38Z" fill="#8AC47E"/>
<path d="M523.16 173.06C498.29 185.61 468.37 196.44 435.66 205.2C374.89 221.48 304.67 230.63 239.86 230.63C174.57 230.63 115.5 217.8 72.7802 197.09C57.6102 189.74 44.5402 181.4 33.9802 172.32C33.9702 172.32 33.9602 172.33 33.9402 172.34C33.6902 172.47 33.4402 172.56 33.1802 172.63C33.2002 172.95 33.2002 173.28 33.1602 173.6C43.8302 182.74 56.9802 191.1 72.1301 198.44C115.1 219.27 174.41 232.13 239.87 232.13C304.8 232.13 375.16 222.97 436.06 206.65C468.78 197.88 498.8 187.04 523.8 174.42C523.55 173.99 523.34 173.53 523.16 173.06Z" fill="#8AC47E"/>
<path d="M409.82 210.54C410.19 210.72 410.64 210.57 410.82 210.2C411 209.83 410.85 209.38 410.48 209.2L363.23 185.89C362.86 185.71 362.41 185.86 362.23 186.23C362.05 186.6 362.2 187.05 362.57 187.24L409.82 210.54Z" fill="#8AC47E"/>
<path d="M294.18 223.53L191.01 172.63C190.73 173.05 190.43 173.46 190.12 173.86L293.52 224.87C293.89 225.05 294.34 224.9 294.52 224.53C294.71 224.17 294.55 223.72 294.18 223.53Z" fill="#8AC47E"/>
<path d="M581.67 119.38C581.25 122.67 580.05 125.97 578.1 129.23C578.4 129.91 578.57 130.57 578.61 131.35C579.19 131.58 579.72 131.91 580.19 132.31C580.27 132.25 580.35 132.19 580.44 132.13L581.63 131.63C582.13 131.47 582.65 131.42 583.17 131.45C585.88 126.73 587.34 121.74 587.34 116.64C587.34 116.46 587.34 116.28 587.33 116.11L587.29 114.15H0.370098L0.350098 116.13C0.350098 116.3 0.350098 116.47 0.350098 116.64C0.350098 122.11 1.1101 127.48 2.5601 132.72C2.7501 132.7 2.9501 132.69 3.1501 132.69C4.6101 132.69 5.7401 133.21 6.5301 134C6.5601 133.98 6.5901 133.97 6.6201 133.95C6.6901 133.91 6.7601 133.88 6.8301 133.85C6.9001 133.5 7.0201 133.16 7.1901 132.84C7.3501 132.35 7.6201 131.93 7.9601 131.55C6.8301 127.55 6.1501 123.49 5.9401 119.39H75.1501L105.84 134.53C105.89 134.5 105.92 134.46 105.97 134.43C106.44 133.7 107.13 133.05 108.06 132.57L107.96 131.82C107.96 131.07 108.13 130.36 108.45 129.69L87.5801 119.39H220.52L256.27 137.03C256.44 135.98 257.03 135 258.17 134.29C258.13 134.03 258.09 133.77 258.08 133.52C258.06 132.97 258.16 132.43 258.34 131.92L232.95 119.39H380.43L411.48 134.71C411.7 134.3 411.99 133.91 412.36 133.57C412.46 133.48 412.55 133.4 412.65 133.31C412.56 132.65 412.61 131.98 412.78 131.32C412.95 130.92 413.12 130.52 413.28 130.13C413.38 129.96 413.49 129.79 413.61 129.64L392.85 119.4H581.67V119.38Z" fill="#86C383"/>
<path d="M522.51 171.15C497.79 183.66 467.92 194.49 435.14 203.27C427.79 205.24 420.3 207.1 412.7 208.85C412.46 208.24 412.01 207.71 411.37 207.39L364.12 184.08C362.76 183.41 361.11 183.97 360.44 185.33C359.77 186.69 360.33 188.34 361.69 189.01L405.25 210.5C369.96 218.26 332.49 223.69 295.38 226.47C295.77 226.21 296.1 225.86 296.32 225.41C296.99 224.05 296.43 222.4 295.07 221.73L192.11 170.93C191.37 172.15 190.6 173.32 189.67 174.46C189.4 174.79 189.14 175.12 188.88 175.47L292.65 226.66C292.66 226.66 292.67 226.67 292.68 226.67C274.88 227.94 257.18 228.61 239.87 228.61C174.82 228.61 116.05 215.82 73.66 195.27C58.76 188.05 45.99 179.92 35.68 171.12C35.64 171.17 35.6 171.23 35.56 171.28C35.11 171.77 34.57 172.11 33.95 172.31C33.71 172.44 33.45 172.53 33.2 172.6C33.26 173.65 33.04 174.73 32.52 175.64C43.26 184.72 56.34 192.98 71.26 200.22C114.55 221.2 174.17 234.11 239.87 234.11C304.97 234.11 375.5 224.93 436.57 208.56C469.43 199.76 499.68 188.84 524.92 176.08C523.7 174.67 523.03 172.95 522.51 171.15Z" fill="#86C383"/>
</g>
<mask id="mask3_207_17" style="mask-type:luminance" maskUnits="userSpaceOnUse" x="-54" y="-119" width="699" height="348">
<path d="M644.35 -118.49H-53.6499V228.51H644.35V-118.49Z" fill="white"/>
</mask>
<g mask="url(#mask3_207_17)">
<path d="M253.69 26.09C252.48 26.68 251.98 28.13 252.57 29.34C253.16 30.55 254.61 31.05 255.82 30.46L302.41 7.73997C302.43 7.72997 302.45 7.70997 302.47 7.69997C299.27 7.42997 296.08 7.19997 292.89 6.96997L253.69 26.09Z" fill="#86C383"/>
<path d="M405.98 19.64L405.48 18.45C405.38 18.14 405.33 17.84 405.31 17.53C352.12 5.93002 294.12 -0.47998 239.86 -0.47998C176.33 -0.47998 118.5 11.59 75.6001 31.36C75.9901 31.87 76.2701 32.43 76.4501 33.06C76.4601 33.11 76.4601 33.16 76.4701 33.2C76.9401 33.74 77.2901 34.36 77.5001 35.06C77.7801 35.42 78.0001 35.82 78.1701 36.24C120.18 16.94 177.09 5.02002 239.87 5.02002C257.25 5.02002 275.03 5.70002 292.9 6.98002L295.57 5.68002C298.27 5.88002 300.96 6.09002 303.66 6.32002C303.47 6.90002 303.06 7.41002 302.48 7.72002C336.52 10.57 370.72 15.67 403.13 22.69C403.38 21.99 403.76 21.36 404.3 20.82C404.64 20.56 404.97 20.3 405.31 20.04C405.54 19.91 405.78 19.8 406.02 19.71C406.01 19.67 405.99 19.65 405.98 19.64ZM300.02 3.49002L300.28 3.36002C301.19 2.92002 302.24 3.09002 302.95 3.72002C301.97 3.65002 301 3.57002 300.02 3.49002Z" fill="#86C383"/>
<path d="M585.86 117.009H587.35C587.34 108.889 583.71 101.079 577.12 94.1391C573.97 90.8091 570.5 87.5591 566.74 84.3891C566.44 84.6391 566.11 84.8791 565.72 85.0991C564.93 85.5291 564.12 85.9091 563.31 86.2791C563.38 86.9391 563.35 87.5891 563.21 88.2291C563.22 88.3691 563.22 88.519 563.22 88.659C566.81 91.689 570.14 94.779 573.13 97.939L575.17 95.999L574.22 96.909L573.13 97.939C578.17 103.249 580.97 108.789 581.67 114.279H392.87L418.05 101.859C416.42 100.939 415.37 98.9791 415.33 97.0691L380.44 114.279H232.95L264 98.9491C262.27 97.9491 261.11 96.0491 261.11 94.2391L220.52 114.259H87.5801L115.62 100.429C113.85 99.4591 112.64 97.7491 112.77 95.6991L75.1501 114.259H5.9401C6.5001 103.409 10.3401 92.8591 17.0901 82.8491C15.7501 83.0591 14.3401 82.7491 13.2301 81.8891C12.7601 81.5191 12.3501 81.0591 12.0301 80.5291C4.5001 91.9391 0.350098 104.179 0.350098 117.019C0.350098 117.189 0.350098 117.359 0.350098 117.529L0.370098 119.509H587.31L587.35 117.549C587.35 117.369 587.36 117.189 587.36 117.019L585.86 117.009Z" fill="#86C383"/>
<path d="M574.21 96.89H574.22L575.67 95.51L574.21 96.89Z" fill="#86C383"/>
<path d="M573.12 97.9191H573.13L574.58 96.5491L573.12 97.9191Z" fill="#86C383"/>
<path d="M310.85 72.77V72.76L309.06 73.65L310.85 72.77Z" fill="#86C383"/>
<path d="M306.56 4.45007H292.63V7.69007H306.56V4.45007Z" fill="#86C383"/>
<path d="M303.47 3.12H298.8V4.15H303.47V3.12Z" fill="#86C383"/>
</g>
<path d="M14.58 84.4501C16.132 84.4501 17.39 83.1921 17.39 81.6401C17.39 80.0881 16.132 78.8301 14.58 78.8301C13.028 78.8301 11.77 80.0881 11.77 81.6401C11.77 83.1921 13.028 84.4501 14.58 84.4501Z" fill="#86C383"/>
<path d="M114.08 100.98C115.632 100.98 116.89 99.722 116.89 98.17C116.89 96.618 115.632 95.36 114.08 95.36C112.528 95.36 111.27 96.618 111.27 98.17C111.27 99.722 112.528 100.98 114.08 100.98Z" fill="#86C383"/>
<path d="M262.57 99.39C264.122 99.39 265.38 98.132 265.38 96.58C265.38 95.028 264.122 93.77 262.57 93.77C261.018 93.77 259.76 95.028 259.76 96.58C259.76 98.132 261.018 99.39 262.57 99.39Z" fill="#86C383"/>
<path d="M416.51 102.38C418.062 102.38 419.32 101.122 419.32 99.57C419.32 98.018 418.062 96.76 416.51 96.76C414.958 96.76 413.7 98.018 413.7 99.57C413.7 101.122 414.958 102.38 416.51 102.38Z" fill="#86C383"/>
<path d="M564.81 89.23C566.362 89.23 567.62 87.972 567.62 86.42C567.62 84.868 566.362 83.61 564.81 83.61C563.258 83.61 562 84.868 562 86.42C562 87.972 563.258 89.23 564.81 89.23Z" fill="#86C383"/>
<path d="M404.39 22.96C405.942 22.96 407.2 21.702 407.2 20.15C407.2 18.598 405.942 17.34 404.39 17.34C402.838 17.34 401.58 18.598 401.58 20.15C401.58 21.702 402.838 22.96 404.39 22.96Z" fill="#86C383"/>
<path d="M76.9299 36.5C78.4539 36.5 79.6899 35.264 79.6899 33.74C79.6899 32.216 78.4539 30.98 76.9299 30.98C75.4059 30.98 74.1699 32.216 74.1699 33.74C74.1699 35.264 75.4059 36.5 76.9299 36.5Z" fill="#86C383"/>
<path d="M5.18012 134.52C6.73212 134.52 7.99012 133.262 7.99012 131.71C7.99012 130.158 6.73212 128.9 5.18012 128.9C3.62812 128.9 2.37012 130.158 2.37012 131.71C2.37012 133.262 3.62812 134.52 5.18012 134.52Z" fill="#86C383"/>
<path d="M33.9001 176.1C35.4521 176.1 36.7101 174.842 36.7101 173.29C36.7101 171.738 35.4521 170.48 33.9001 170.48C32.3481 170.48 31.0901 171.738 31.0901 173.29C31.0901 174.842 32.3481 176.1 33.9001 176.1Z" fill="#86C383"/>
<path d="M106.73 134.67C108.282 134.67 109.54 133.412 109.54 131.86C109.54 130.308 108.282 129.05 106.73 129.05C105.178 129.05 103.92 130.308 103.92 131.86C103.92 133.412 105.178 134.67 106.73 134.67Z" fill="#86C383"/>
<path d="M256.87 137.05C258.422 137.05 259.68 135.792 259.68 134.24C259.68 132.688 258.422 131.43 256.87 131.43C255.318 131.43 254.06 132.688 254.06 134.24C254.06 135.792 255.318 137.05 256.87 137.05Z" fill="#86C383"/>
<path d="M412.2 134.83C413.752 134.83 415.01 133.572 415.01 132.02C415.01 130.468 413.752 129.21 412.2 129.21C410.648 129.21 409.39 130.468 409.39 132.02C409.39 133.572 410.648 134.83 412.2 134.83Z" fill="#86C383"/>
<path d="M523.86 176.32C525.412 176.32 526.67 175.062 526.67 173.51C526.67 171.958 525.412 170.7 523.86 170.7C522.308 170.7 521.05 171.958 521.05 173.51C521.05 175.062 522.308 176.32 523.86 176.32Z" fill="#86C383"/>
<path d="M303.783 225.978L291.084 219.781L288.803 224.454L301.502 230.651L303.783 225.978Z" fill="#86C383"/>
<path d="M580.65 133.13C582.202 133.13 583.46 131.872 583.46 130.32C583.46 128.768 582.202 127.51 580.65 127.51C579.098 127.51 577.84 128.768 577.84 130.32C577.84 131.872 579.098 133.13 580.65 133.13Z" fill="#86C383"/>
<path d="M190.4 175.91C191.952 175.91 193.21 174.652 193.21 173.1C193.21 171.548 191.952 170.29 190.4 170.29C188.848 170.29 187.59 171.548 187.59 173.1C187.59 174.652 188.848 175.91 190.4 175.91Z" fill="#86C383"/>
<path d="M49.04 65.47C45.52 66.94 42.1 68.03 38.77 68.73C35.44 69.43 32.21 69.79 29.07 69.79C20.49 69.79 13.87 67.74 9.20004 63.65C4.59004 59.49 2.29004 53.54 2.29004 45.79V24.38H14.67V44.44C14.67 49.18 16.05 52.79 18.8 55.29C21.55 57.79 25.49 59.03 30.61 59.03C33.68 59.03 36.75 58.68 39.83 57.97C42.97 57.27 45.97 56.18 48.85 54.71L49.04 65.47ZM47.12 91.58V24.38H59.5V91.58H47.12ZM108.09 91.58V81.21L107.42 79V60.86C107.42 57.34 106.36 54.62 104.25 52.7C102.14 50.72 98.94 49.72 94.65 49.72C91.77 49.72 88.92 50.17 86.11 51.06C83.36 51.96 81.02 53.2 79.1 54.8L74.4 46.06C77.15 43.95 80.42 42.38 84.19 41.36C88.03 40.27 92 39.73 96.09 39.73C103.51 39.73 109.24 41.52 113.27 45.11C117.37 48.63 119.41 54.1 119.41 61.53V91.58H108.09ZM91.97 92.25C88.13 92.25 84.77 91.61 81.89 90.33C79.01 88.99 76.77 87.16 75.17 84.86C73.63 82.49 72.87 79.84 72.87 76.89C72.87 74.01 73.54 71.42 74.89 69.11C76.3 66.81 78.57 64.98 81.71 63.64C84.85 62.3 89.01 61.62 94.19 61.62H109.07V69.59H95.05C90.95 69.59 88.2 70.26 86.79 71.61C85.38 72.89 84.68 74.49 84.68 76.41C84.68 78.59 85.54 80.31 87.27 81.59C89 82.87 91.4 83.51 94.47 83.51C97.41 83.51 100.04 82.84 102.34 81.49C104.71 80.15 106.4 78.16 107.43 75.54L109.45 82.74C108.3 85.75 106.22 88.08 103.21 89.75C100.25 91.42 96.51 92.25 91.97 92.25ZM134.27 91.58V40.32H146.27V74.11L174.59 40.32H185.53V91.58H173.53V57.79L145.31 91.58H134.27ZM159.14 34.27C154.02 34.27 150.08 33.09 147.33 30.72C144.58 28.29 143.17 24.77 143.11 20.16H151.08C151.14 22.46 151.85 24.29 153.19 25.63C154.6 26.97 156.55 27.65 159.05 27.65C161.48 27.65 163.4 26.98 164.81 25.63C166.28 24.29 167.05 22.46 167.11 20.16H175.27C175.21 24.77 173.77 28.29 170.95 30.72C168.19 33.09 164.26 34.27 159.14 34.27ZM201.68 91.58V40.32H213.68V61.15H239.5V40.32H251.5V91.58H239.5V71.32H213.68V91.58H201.68ZM267.58 91.58V40.32H279.58V74.11L307.9 40.32H318.84V91.58H306.84V57.79L278.62 91.58H267.58ZM371.76 91.58L353.23 67L363.02 60.95L385.87 91.57H371.76V91.58ZM334.99 91.58V40.32H346.99V91.58H334.99ZM343.44 71.04V61.06H360.82V71.04H343.44ZM364.17 67.39L352.94 66.05L371.76 40.32H384.62L364.17 67.39ZM426.88 92.73C421.57 92.73 416.64 91.87 412.1 90.14C407.62 88.41 403.72 85.98 400.39 82.84C397.13 79.7 394.57 76.02 392.71 71.8C390.92 67.58 390.02 62.97 390.02 57.98C390.02 52.99 390.92 48.38 392.71 44.16C394.57 39.94 397.16 36.26 400.49 33.12C403.82 29.98 407.72 27.55 412.2 25.82C416.68 24.09 421.54 23.23 426.79 23.23C432.1 23.23 436.97 24.09 441.38 25.82C445.86 27.55 449.73 29.98 453 33.12C456.33 36.26 458.92 39.94 460.78 44.16C462.64 48.32 463.56 52.93 463.56 57.98C463.56 62.97 462.63 67.61 460.78 71.9C458.92 76.12 456.33 79.8 453 82.94C449.74 86.01 445.86 88.41 441.38 90.14C436.96 91.87 432.13 92.73 426.88 92.73ZM426.78 79.49C429.79 79.49 432.54 78.98 435.04 77.95C437.6 76.93 439.84 75.45 441.76 73.53C443.68 71.61 445.15 69.34 446.18 66.71C447.27 64.09 447.81 61.17 447.81 57.97C447.81 54.77 447.27 51.86 446.18 49.23C445.16 46.61 443.68 44.33 441.76 42.41C439.9 40.49 437.7 39.02 435.14 37.99C432.58 36.97 429.8 36.45 426.79 36.45C423.78 36.45 421 36.96 418.44 37.99C415.94 39.01 413.74 40.49 411.82 42.41C409.9 44.33 408.4 46.6 407.31 49.23C406.29 51.85 405.77 54.77 405.77 57.97C405.77 61.11 406.28 64.02 407.31 66.71C408.4 69.33 409.87 71.61 411.73 73.53C413.65 75.45 415.89 76.92 418.45 77.95C420.99 78.97 423.77 79.49 426.78 79.49ZM489.64 54.62H521.9V67.1H489.64V54.62ZM490.79 91.58H475.24V24.38H526.02V36.86H490.79V91.58ZM550.95 54.62H583.21V67.1H550.95V54.62ZM552.1 91.58H536.55V24.38H587.33V36.86H552.1V91.58Z" fill="url(#paint0_linear_207_17)"/>
<path d="M7.83008 165.58V138.81H11.4501V160.08L29.3501 138.81H32.5601V165.58H28.9401V144.26L11.0901 165.58H7.83008ZM42.9401 165.58V138.81H46.5601V150.64H63.4401V138.81H67.0601V165.58H63.4401V153.75H46.5601V165.58H42.9401ZM82.4601 165.58V141L83.3801 141.97H72.3101V138.81H96.2301V141.97H85.1601L86.0801 141V165.58H82.4601ZM111.69 165.84C108.9 165.84 106.45 165.26 104.35 164.11C102.24 162.92 100.59 161.31 99.4001 159.26C98.2101 157.19 97.6101 154.82 97.6101 152.17C97.6101 149.52 98.1701 147.17 99.2901 145.13C100.45 143.09 102.01 141.49 103.98 140.34C105.99 139.15 108.23 138.55 110.71 138.55C113.23 138.55 115.45 139.13 117.39 140.28C119.36 141.4 120.91 143 122.03 145.07C123.15 147.11 123.71 149.47 123.71 152.16C123.71 152.33 123.69 152.52 123.66 152.72C123.66 152.89 123.66 153.08 123.66 153.28H100.35V150.58H121.72L120.29 151.65C120.29 149.71 119.86 148 119.02 146.5C118.2 144.97 117.08 143.78 115.65 142.93C114.22 142.08 112.57 141.66 110.7 141.66C108.86 141.66 107.21 142.08 105.75 142.93C104.29 143.78 103.15 144.97 102.33 146.5C101.51 148.03 101.11 149.78 101.11 151.75V152.31C101.11 154.35 101.55 156.15 102.44 157.72C103.36 159.25 104.62 160.46 106.21 161.34C107.84 162.19 109.7 162.61 111.77 162.61C113.4 162.61 114.92 162.32 116.31 161.74C117.74 161.16 118.96 160.28 119.98 159.09L122.02 161.44C120.83 162.87 119.33 163.96 117.53 164.7C115.79 165.46 113.83 165.84 111.69 165.84ZM145.56 165.84C143.25 165.84 141.16 165.31 139.29 164.26C137.42 163.17 135.92 161.63 134.8 159.62C133.71 157.58 133.17 155.1 133.17 152.17C133.17 149.25 133.71 146.78 134.8 144.77C135.89 142.73 137.37 141.18 139.24 140.13C141.11 139.08 143.22 138.55 145.56 138.55C148.11 138.55 150.39 139.13 152.39 140.28C154.43 141.4 156.03 143 157.18 145.07C158.34 147.11 158.91 149.47 158.91 152.16C158.91 154.88 158.33 157.26 157.18 159.3C156.02 161.34 154.43 162.94 152.39 164.09C150.39 165.26 148.11 165.84 145.56 165.84ZM131.74 175.48V138.81H135.21V146.87L134.85 152.23L135.36 157.64V175.49H131.74V175.48ZM145.31 162.62C147.21 162.62 148.91 162.2 150.41 161.35C151.91 160.47 153.1 159.24 153.98 157.68C154.86 156.08 155.31 154.25 155.31 152.17C155.31 150.1 154.87 148.28 153.98 146.71C153.1 145.15 151.91 143.92 150.41 143.04C148.91 142.16 147.21 141.71 145.31 141.71C143.41 141.71 141.69 142.15 140.16 143.04C138.66 143.92 137.47 145.15 136.59 146.71C135.74 148.27 135.31 150.09 135.31 152.17C135.31 154.24 135.74 156.08 136.59 157.68C137.47 159.24 138.66 160.47 140.16 161.35C141.69 162.2 143.4 162.62 145.31 162.62ZM166.7 165.58V138.81H170.32V150.64H187.2V138.81H190.82V165.58H187.2V153.75H170.32V165.58H166.7ZM212.59 165.84C209.8 165.84 207.35 165.26 205.25 164.11C203.14 162.92 201.49 161.31 200.3 159.26C199.11 157.19 198.51 154.82 198.51 152.17C198.51 149.52 199.07 147.17 200.19 145.13C201.35 143.09 202.91 141.49 204.88 140.34C206.89 139.15 209.13 138.55 211.61 138.55C214.13 138.55 216.35 139.13 218.29 140.28C220.26 141.4 221.81 143 222.93 145.07C224.05 147.11 224.61 149.47 224.61 152.16C224.61 152.33 224.59 152.52 224.56 152.72C224.56 152.89 224.56 153.08 224.56 153.28H201.25V150.58H222.62L221.19 151.65C221.19 149.71 220.77 148 219.92 146.5C219.1 144.97 217.98 143.78 216.55 142.93C215.12 142.08 213.47 141.66 211.6 141.66C209.76 141.66 208.11 142.08 206.65 142.93C205.19 143.78 204.05 144.97 203.23 146.5C202.41 148.03 202.01 149.78 202.01 151.75V152.31C202.01 154.35 202.45 156.15 203.34 157.72C204.26 159.25 205.52 160.46 207.11 161.34C208.74 162.19 210.59 162.61 212.67 162.61C214.3 162.61 215.81 162.32 217.21 161.74C218.64 161.16 219.86 160.28 220.88 159.09L222.92 161.44C221.73 162.87 220.23 163.96 218.43 164.7C216.69 165.46 214.74 165.84 212.59 165.84ZM236.55 165.58V141L237.47 141.97H226.4V138.81H250.32V141.97H239.25L240.17 141V165.58H236.55ZM268.9 165.58V138.81H272.57L284.71 159.36H283.18L295.52 138.81H298.89V165.58H295.57V142.94L296.23 143.25L284.7 162.32H283.07L271.44 143.04L272.2 142.89V165.59H268.9V165.58ZM325.82 165.58V159.66L325.67 158.69V148.8C325.67 146.52 325.02 144.77 323.73 143.55C322.47 142.33 320.59 141.71 318.07 141.71C316.34 141.71 314.69 142 313.12 142.58C311.56 143.16 310.23 143.92 309.14 144.88L307.51 142.18C308.87 141.02 310.5 140.14 312.41 139.53C314.31 138.88 316.32 138.56 318.43 138.56C321.9 138.56 324.57 139.43 326.44 141.16C328.34 142.86 329.3 145.46 329.3 148.96V165.59H325.82V165.58ZM316.59 165.84C314.58 165.84 312.83 165.52 311.34 164.87C309.88 164.19 308.76 163.27 307.97 162.12C307.19 160.93 306.8 159.57 306.8 158.04C306.8 156.65 307.12 155.39 307.77 154.27C308.45 153.11 309.54 152.2 311.03 151.52C312.56 150.81 314.6 150.45 317.15 150.45H326.38V153.15H317.25C314.67 153.15 312.86 153.61 311.84 154.53C310.85 155.45 310.36 156.59 310.36 157.95C310.36 159.48 310.96 160.7 312.15 161.62C313.34 162.54 315.01 163 317.15 163C319.19 163 320.94 162.54 322.4 161.62C323.9 160.67 324.98 159.31 325.66 157.54L326.48 160.04C325.8 161.81 324.61 163.22 322.91 164.27C321.25 165.31 319.14 165.84 316.59 165.84ZM338.93 165.58V138.81H357.9V141.97H341.63L342.55 141.05V165.58H338.93ZM379.76 165.58V159.66L379.61 158.69V148.8C379.61 146.52 378.96 144.77 377.67 143.55C376.41 142.33 374.53 141.71 372.01 141.71C370.28 141.71 368.63 142 367.06 142.58C365.49 143.16 364.17 143.92 363.08 144.88L361.45 142.18C362.81 141.02 364.44 140.14 366.35 139.53C368.25 138.88 370.26 138.56 372.37 138.56C375.84 138.56 378.51 139.43 380.38 141.16C382.28 142.86 383.24 145.46 383.24 148.96V165.59H379.76V165.58ZM370.53 165.84C368.52 165.84 366.77 165.52 365.28 164.87C363.82 164.19 362.7 163.27 361.91 162.12C361.13 160.93 360.74 159.57 360.74 158.04C360.74 156.65 361.06 155.39 361.71 154.27C362.39 153.11 363.48 152.2 364.97 151.52C366.5 150.81 368.54 150.45 371.09 150.45H380.32V153.15H371.19C368.61 153.15 366.8 153.61 365.78 154.53C364.79 155.45 364.3 156.59 364.3 157.95C364.3 159.48 364.9 160.7 366.08 161.62C367.27 162.54 368.94 163 371.08 163C373.12 163 374.87 162.54 376.33 161.62C377.83 160.67 378.91 159.31 379.59 157.54L380.41 160.04C379.73 161.81 378.54 163.22 376.84 164.27C375.19 165.31 373.08 165.84 370.53 165.84ZM399.51 165.89C397.57 165.89 395.65 165.62 393.75 165.07C391.85 164.52 390.16 163.69 388.7 162.57L389.87 159.87C391.16 160.82 392.66 161.55 394.36 162.06C396.06 162.54 397.74 162.77 399.41 162.77C401.08 162.74 402.52 162.5 403.74 162.06C404.96 161.62 405.92 161.01 406.6 160.22C407.28 159.44 407.62 158.55 407.62 157.57C407.62 156.14 406.97 155.04 405.68 154.25C404.39 153.43 402.62 153.03 400.38 153.03H395.79V150.38H400.13C401.46 150.38 402.63 150.21 403.65 149.87C404.67 149.53 405.45 149.04 406 148.39C406.58 147.74 406.87 146.98 406.87 146.1C406.87 145.15 406.53 144.33 405.85 143.65C405.2 142.97 404.3 142.46 403.15 142.12C401.99 141.78 400.69 141.61 399.22 141.61C397.89 141.64 396.52 141.85 395.09 142.22C393.66 142.56 392.25 143.09 390.86 143.8L389.84 141C391.4 140.18 392.95 139.57 394.48 139.16C396.04 138.72 397.61 138.5 399.17 138.5C401.31 138.43 403.23 138.69 404.93 139.26C406.66 139.84 408.04 140.67 409.06 141.76C410.08 142.81 410.59 144.09 410.59 145.59C410.59 146.92 410.18 148.07 409.37 149.06C408.55 150.05 407.47 150.81 406.11 151.36C404.75 151.9 403.2 152.18 401.47 152.18L401.62 151.21C404.68 151.21 407.06 151.81 408.76 153C410.49 154.19 411.36 155.8 411.36 157.85C411.36 159.45 410.83 160.86 409.78 162.08C408.73 163.27 407.3 164.2 405.5 164.88C403.71 165.55 401.72 165.89 399.51 165.89ZM419.56 165.58V138.81H423.18V160.08L441.08 138.81H444.29V165.58H440.67V144.26L422.82 165.58H419.56ZM454.68 165.58V138.81H458.3V150.64H475.18V138.81H478.8V165.58H475.18V153.75H458.3V165.58H454.68ZM519.37 154.26C517.81 154.94 516.22 155.48 514.63 155.89C513.07 156.26 511.5 156.45 509.94 156.45C506.78 156.45 504.28 155.74 502.44 154.31C500.6 152.85 499.69 150.6 499.69 147.58V138.81H503.26V147.38C503.26 149.42 503.92 150.95 505.25 151.97C506.58 152.99 508.36 153.5 510.6 153.5C511.96 153.5 513.39 153.33 514.88 152.99C516.38 152.62 517.89 152.09 519.42 151.41L519.37 154.26ZM519.06 165.58V138.81H522.68V165.58H519.06ZM549.59 165.58V159.66L549.44 158.69V148.8C549.44 146.52 548.79 144.77 547.5 143.55C546.24 142.33 544.35 141.71 541.84 141.71C540.11 141.71 538.46 142 536.89 142.58C535.33 143.16 534 143.92 532.91 144.88L531.28 142.18C532.64 141.02 534.27 140.14 536.18 139.53C538.08 138.88 540.09 138.56 542.2 138.56C545.67 138.56 548.34 139.43 550.21 141.16C552.11 142.86 553.07 145.46 553.07 148.96V165.59H549.59V165.58ZM540.36 165.84C538.35 165.84 536.6 165.52 535.11 164.87C533.65 164.19 532.53 163.27 531.74 162.12C530.96 160.93 530.57 159.57 530.57 158.04C530.57 156.65 530.89 155.39 531.54 154.27C532.22 153.11 533.31 152.2 534.8 151.52C536.33 150.81 538.37 150.45 540.92 150.45H550.15V153.15H541.02C538.44 153.15 536.63 153.61 535.61 154.53C534.62 155.45 534.13 156.59 534.13 157.95C534.13 159.48 534.72 160.7 535.91 161.62C537.1 162.54 538.77 163 540.91 163C542.95 163 544.7 162.54 546.16 161.62C547.66 160.67 548.74 159.31 549.42 157.54L550.24 160.04C549.56 161.81 548.37 163.22 546.67 164.27C545.02 165.31 542.91 165.84 540.36 165.84ZM579.99 165.58V155.94L580.65 156.71H571.57C568.14 156.71 565.45 155.96 563.51 154.47C561.57 152.98 560.6 150.8 560.6 147.94C560.6 144.88 561.64 142.6 563.71 141.11C565.78 139.58 568.56 138.82 572.02 138.82H583.29V165.59H579.99V165.58ZM560.41 165.58L567.75 155.28H571.52L564.33 165.58H560.41ZM579.99 154.87V140.9L580.65 141.97H572.13C569.65 141.97 567.71 142.45 566.32 143.4C564.96 144.35 564.28 145.9 564.28 148.04C564.28 152.02 566.81 154.01 571.88 154.01H580.65L579.99 154.87Z" fill="url(#paint1_linear_207_17)"/>
</g>
</g>
</g>
<defs>
<linearGradient id="paint0_linear_207_17" x1="-8.49995" y1="9.34002" x2="469.403" y2="312.978" gradientUnits="userSpaceOnUse">
<stop stop-color="#9D9D9D"/>
<stop offset="0.239583" stop-color="#D9D9D9"/>
<stop offset="0.484375" stop-color="white"/>
<stop offset="0.739583" stop-color="#D9D9D9"/>
<stop offset="1" stop-color="#9D9D9D"/>
</linearGradient>
<linearGradient id="paint1_linear_207_17" x1="-2.78292" y1="132.972" x2="260.902" y2="456.173" gradientUnits="userSpaceOnUse">
<stop stop-color="#9D9D9D"/>
<stop offset="0.239583" stop-color="#D9D9D9"/>
<stop offset="0.484375" stop-color="white"/>
<stop offset="0.739583" stop-color="#D9D9D9"/>
<stop offset="1" stop-color="#9D9D9D"/>
</linearGradient>
<clipPath id="clip0_207_17">
<rect width="587" height="234" fill="white"/>
</clipPath>
</defs>
</svg>
