<svg width="842" height="596" viewBox="0 0 842 596" fill="none" xmlns="http://www.w3.org/2000/svg">
<mask id="mask0_12_4" style="mask-type:luminance" maskUnits="userSpaceOnUse" x="82" y="225" width="699" height="348">
<path d="M780.35 225.13H82.35V572.13H780.35V225.13Z" fill="white"/>
</mask>
<g mask="url(#mask0_12_4)">
<path d="M520.29 337.38H719.84C719.68 342.17 718.07 346.94 715.04 351.53C715.46 351.74 715.85 352 716.21 352.3C716.28 352.25 716.34 352.2 716.42 352.16C719.66 347.18 721.36 341.95 721.36 336.64C721.36 336.48 721.36 336.31 721.35 336.14H138.35C138.35 336.3 138.35 336.47 138.35 336.64C138.35 342.17 139.16 347.6 140.7 352.91C141.44 353.13 142.05 353.51 142.53 354C142.55 353.99 142.57 353.98 142.59 353.97C140.87 348.55 139.93 343.02 139.85 337.39H211.61L243.31 353.03C243.54 352.86 243.79 352.71 244.06 352.56C244.03 352.31 243.99 352.06 243.96 351.81C243.96 351.76 243.97 351.72 243.97 351.68L215 337.38H356.98L393.1 355.2C393.38 354.87 393.74 354.58 394.16 354.32C394.14 354.23 394.14 354.13 394.13 354.04L360.36 337.38H516.9L548.64 353.04C548.6 352.5 548.64 351.97 548.77 351.43L520.29 337.38Z" fill="#8AC47E"/>
<path d="M659.16 393.06C634.29 405.61 604.37 416.44 571.66 425.2C510.89 441.48 440.67 450.63 375.86 450.63C310.57 450.63 251.5 437.8 208.78 417.09C193.61 409.74 180.54 401.4 169.98 392.32C169.97 392.32 169.96 392.33 169.94 392.34C169.69 392.47 169.44 392.56 169.18 392.63C169.2 392.95 169.2 393.28 169.16 393.6C179.83 402.74 192.98 411.1 208.13 418.44C251.1 439.27 310.41 452.13 375.87 452.13C440.8 452.13 511.16 442.97 572.06 426.65C604.78 417.88 634.8 407.04 659.8 394.42C659.55 393.99 659.34 393.53 659.16 393.06Z" fill="#8AC47E"/>
<path d="M545.82 430.54C546.19 430.72 546.64 430.57 546.82 430.2C547 429.83 546.85 429.38 546.48 429.2L499.23 405.89C498.86 405.71 498.41 405.86 498.23 406.23C498.05 406.6 498.2 407.05 498.57 407.24L545.82 430.54Z" fill="#8AC47E"/>
<path d="M430.18 443.53L327.01 392.63C326.73 393.05 326.43 393.46 326.12 393.86L429.52 444.87C429.89 445.05 430.34 444.9 430.52 444.53C430.71 444.17 430.55 443.72 430.18 443.53Z" fill="#8AC47E"/>
<path d="M717.67 339.38C717.25 342.67 716.05 345.97 714.1 349.23C714.4 349.91 714.57 350.57 714.61 351.35C715.19 351.58 715.72 351.91 716.19 352.31C716.27 352.25 716.35 352.19 716.44 352.13L717.63 351.63C718.13 351.47 718.65 351.42 719.17 351.45C721.88 346.73 723.34 341.74 723.34 336.64C723.34 336.46 723.34 336.28 723.33 336.11L723.29 334.15H136.37L136.35 336.13C136.35 336.3 136.35 336.47 136.35 336.64C136.35 342.11 137.11 347.48 138.56 352.72C138.75 352.7 138.95 352.69 139.15 352.69C140.61 352.69 141.74 353.21 142.53 354C142.56 353.98 142.59 353.97 142.62 353.95C142.69 353.91 142.76 353.88 142.83 353.85C142.9 353.5 143.02 353.16 143.19 352.84C143.35 352.35 143.62 351.93 143.96 351.55C142.83 347.55 142.15 343.49 141.94 339.39H211.15L241.84 354.53C241.89 354.5 241.92 354.46 241.97 354.43C242.44 353.7 243.13 353.05 244.06 352.57L243.96 351.82C243.96 351.07 244.13 350.36 244.45 349.69L223.58 339.39H356.52L392.27 357.03C392.44 355.98 393.03 355 394.17 354.29C394.13 354.03 394.09 353.77 394.08 353.52C394.06 352.97 394.16 352.43 394.34 351.92L368.95 339.39H516.43L547.48 354.71C547.7 354.3 547.99 353.91 548.36 353.57C548.46 353.48 548.55 353.4 548.65 353.31C548.56 352.65 548.61 351.98 548.78 351.32C548.95 350.92 549.12 350.52 549.28 350.13C549.38 349.96 549.49 349.79 549.61 349.64L528.85 339.4H717.67V339.38Z" fill="#86C383"/>
<path d="M658.51 391.15C633.79 403.66 603.92 414.49 571.14 423.27C563.79 425.24 556.3 427.1 548.7 428.85C548.46 428.24 548.01 427.71 547.37 427.39L500.12 404.08C498.76 403.41 497.11 403.97 496.44 405.33C495.77 406.69 496.33 408.34 497.69 409.01L541.25 430.5C505.96 438.26 468.49 443.69 431.38 446.47C431.77 446.21 432.1 445.86 432.32 445.41C432.99 444.05 432.43 442.4 431.07 441.73L328.11 390.93C327.37 392.15 326.6 393.32 325.67 394.46C325.4 394.79 325.14 395.12 324.88 395.47L428.65 446.66C428.66 446.66 428.67 446.67 428.68 446.67C410.88 447.94 393.18 448.61 375.87 448.61C310.82 448.61 252.05 435.82 209.66 415.27C194.76 408.05 181.99 399.92 171.68 391.12C171.64 391.17 171.6 391.23 171.56 391.28C171.11 391.77 170.57 392.11 169.95 392.31C169.71 392.44 169.45 392.53 169.2 392.6C169.26 393.65 169.04 394.73 168.52 395.64C179.26 404.72 192.34 412.98 207.26 420.22C250.55 441.2 310.17 454.11 375.87 454.11C440.97 454.11 511.5 444.93 572.57 428.56C605.43 419.76 635.68 408.84 660.92 396.08C659.7 394.67 659.03 392.95 658.51 391.15Z" fill="#86C383"/>
<path d="M208.12 418.44L208.99 416.64L208.12 418.44Z" fill="#86C383"/>
<path d="M572.04 426.65L571.53 424.72L572.04 426.65Z" fill="#86C383"/>
<path d="M208.77 417.09L207.9 418.89L208.77 417.09Z" fill="#86C383"/>
<path d="M571.65 425.2L572.17 427.13L571.65 425.2Z" fill="#86C383"/>
<path d="M546.82 430.19L548.62 431.08L546.82 430.19Z" fill="#86C383"/>
<path d="M545.82 430.54L544.93 432.33L545.82 430.54Z" fill="#86C383"/>
<path d="M546.48 429.19L545.6 430.98L546.48 429.19Z" fill="#86C383"/>
<path d="M499.24 405.88L498.35 407.67L499.24 405.88Z" fill="#86C383"/>
<path d="M498.23 406.22L500.02 407.11L498.23 406.22Z" fill="#86C383"/>
<path d="M498.57 407.23L497.69 409.02L498.57 407.23Z" fill="#86C383"/>
<path d="M430.52 444.54L428.73 443.65L430.52 444.54Z" fill="#86C383"/>
<path d="M429.52 444.88L428.63 446.67L429.52 444.88Z" fill="#86C383"/>
<path d="M430.18 443.53L431.07 441.74L430.18 443.53Z" fill="#86C383"/>
</g>
<mask id="mask1_12_4" style="mask-type:luminance" maskUnits="userSpaceOnUse" x="82" y="101" width="699" height="348">
<path d="M780.35 101.51H82.35V448.51H780.35V101.51Z" fill="white"/>
</mask>
<g mask="url(#mask1_12_4)">
<path d="M389.69 246.09C388.48 246.68 387.98 248.13 388.57 249.34C389.16 250.55 390.61 251.05 391.82 250.46L438.41 227.74C438.43 227.73 438.45 227.71 438.47 227.7C435.27 227.43 432.08 227.2 428.89 226.97L389.69 246.09Z" fill="#86C383"/>
<path d="M541.98 239.64L541.48 238.45C541.38 238.14 541.33 237.84 541.31 237.53C488.12 225.93 430.12 219.52 375.86 219.52C312.33 219.52 254.5 231.59 211.6 251.36C211.99 251.87 212.27 252.43 212.45 253.06C212.46 253.11 212.46 253.16 212.47 253.2C212.94 253.74 213.29 254.36 213.5 255.06C213.78 255.42 214 255.82 214.17 256.24C256.18 236.94 313.09 225.02 375.87 225.02C393.25 225.02 411.03 225.7 428.9 226.98L431.57 225.68C434.27 225.88 436.96 226.09 439.66 226.32C439.47 226.9 439.06 227.41 438.48 227.72C472.52 230.57 506.72 235.67 539.13 242.69C539.38 241.99 539.76 241.36 540.3 240.82C540.64 240.56 540.97 240.3 541.31 240.04C541.54 239.91 541.78 239.8 542.02 239.71C542.01 239.67 541.99 239.65 541.98 239.64ZM436.02 223.49L436.28 223.36C437.19 222.92 438.24 223.09 438.95 223.72C437.97 223.65 437 223.57 436.02 223.49Z" fill="#86C383"/>
<path d="M721.86 337.01H723.35C723.34 328.89 719.71 321.08 713.12 314.14C709.97 310.81 706.5 307.56 702.74 304.39C702.44 304.64 702.11 304.88 701.72 305.1C700.93 305.53 700.12 305.91 699.31 306.28C699.38 306.94 699.35 307.59 699.21 308.23C699.22 308.37 699.22 308.52 699.22 308.66C702.81 311.69 706.14 314.78 709.13 317.94L711.17 316L710.22 316.91L709.13 317.94C714.17 323.25 716.97 328.79 717.67 334.28H528.87L554.05 321.86C552.42 320.94 551.37 318.98 551.33 317.07L516.44 334.28H368.95L400 318.95C398.27 317.95 397.11 316.05 397.11 314.24L356.52 334.26H223.58L251.62 320.43C249.85 319.46 248.64 317.75 248.77 315.7L211.15 334.26H141.94C142.5 323.41 146.34 312.86 153.09 302.85C151.75 303.06 150.34 302.75 149.23 301.89C148.76 301.52 148.35 301.06 148.03 300.53C140.5 311.94 136.35 324.18 136.35 337.02C136.35 337.19 136.35 337.36 136.35 337.53L136.37 339.51H723.31L723.35 337.55C723.35 337.37 723.36 337.19 723.36 337.02L721.86 337.01Z" fill="#86C383"/>
<path d="M571.53 248.92L572.04 246.99L571.53 248.92Z" fill="#86C383"/>
<path d="M710.21 316.89H710.22L711.67 315.51L710.21 316.89Z" fill="#86C383"/>
<path d="M709.12 317.92H709.13L710.58 316.55L709.12 317.92Z" fill="#86C383"/>
<path d="M632.82 278.52L633.71 280.31L632.82 278.52Z" fill="#86C383"/>
<path d="M632.25 280.19L634.05 279.31L632.25 280.19Z" fill="#86C383"/>
<path d="M632.16 277.17L633.04 278.96L632.16 277.17Z" fill="#86C383"/>
<path d="M445.6 296.45L444.72 294.65L445.6 296.45Z" fill="#86C383"/>
<path d="M446.85 292.77V292.76L445.06 293.65L446.85 292.77Z" fill="#86C383"/>
<path d="M443.17 291.52L444.06 293.31L443.17 291.52Z" fill="#86C383"/>
<path d="M265.75 309L266.63 310.79L265.75 309Z" fill="#86C383"/>
<path d="M268.77 308.9L266.98 309.79L268.77 308.9Z" fill="#86C383"/>
<path d="M265.09 307.65L265.97 309.45L265.09 307.65Z" fill="#86C383"/>
<path d="M572.17 246.51L571.65 248.44L572.17 246.51Z" fill="#86C383"/>
<path d="M712.03 315.17L710.58 316.54L712.03 315.17Z" fill="#86C383"/>
<path d="M498.35 265.97L499.24 267.76L498.35 265.97Z" fill="#86C383"/>
<path d="M500.02 266.53L498.23 267.42L500.02 266.53Z" fill="#86C383"/>
<path d="M497.69 264.62L498.57 266.41L497.69 264.62Z" fill="#86C383"/>
<path d="M435.12 225.57L436.92 224.69L435.12 225.57Z" fill="#86C383"/>
<path d="M428.63 226.97L429.52 228.76L428.63 226.97Z" fill="#86C383"/>
<path d="M322.04 285.69L321.15 283.9L322.04 285.69Z" fill="#86C383"/>
<path d="M321.94 282.67L320.15 283.56L321.94 282.67Z" fill="#86C383"/>
<path d="M319.6 280.76L320.49 282.55L319.6 280.76Z" fill="#86C383"/>
<path d="M442.56 224.45H428.63V227.69H442.56V224.45Z" fill="#86C383"/>
<path d="M439.47 223.12H434.8V224.15H439.47V223.12Z" fill="#86C383"/>
</g>
<path d="M150.58 304.45C152.132 304.45 153.39 303.192 153.39 301.64C153.39 300.088 152.132 298.83 150.58 298.83C149.028 298.83 147.77 300.088 147.77 301.64C147.77 303.192 149.028 304.45 150.58 304.45Z" fill="#86C383"/>
<path d="M250.08 320.98C251.632 320.98 252.89 319.722 252.89 318.17C252.89 316.618 251.632 315.36 250.08 315.36C248.528 315.36 247.27 316.618 247.27 318.17C247.27 319.722 248.528 320.98 250.08 320.98Z" fill="#86C383"/>
<path d="M398.57 319.39C400.122 319.39 401.38 318.132 401.38 316.58C401.38 315.028 400.122 313.77 398.57 313.77C397.018 313.77 395.76 315.028 395.76 316.58C395.76 318.132 397.018 319.39 398.57 319.39Z" fill="#86C383"/>
<path d="M552.51 322.38C554.062 322.38 555.32 321.122 555.32 319.57C555.32 318.018 554.062 316.76 552.51 316.76C550.958 316.76 549.7 318.018 549.7 319.57C549.7 321.122 550.958 322.38 552.51 322.38Z" fill="#86C383"/>
<path d="M700.81 309.23C702.362 309.23 703.62 307.972 703.62 306.42C703.62 304.868 702.362 303.61 700.81 303.61C699.258 303.61 698 304.868 698 306.42C698 307.972 699.258 309.23 700.81 309.23Z" fill="#86C383"/>
<path d="M540.39 242.96C541.942 242.96 543.2 241.702 543.2 240.15C543.2 238.598 541.942 237.34 540.39 237.34C538.838 237.34 537.58 238.598 537.58 240.15C537.58 241.702 538.838 242.96 540.39 242.96Z" fill="#86C383"/>
<path d="M212.93 256.5C214.454 256.5 215.69 255.264 215.69 253.74C215.69 252.216 214.454 250.98 212.93 250.98C211.406 250.98 210.17 252.216 210.17 253.74C210.17 255.264 211.406 256.5 212.93 256.5Z" fill="#86C383"/>
<path d="M141.18 354.52C142.732 354.52 143.99 353.262 143.99 351.71C143.99 350.158 142.732 348.9 141.18 348.9C139.628 348.9 138.37 350.158 138.37 351.71C138.37 353.262 139.628 354.52 141.18 354.52Z" fill="#86C383"/>
<path d="M169.9 396.1C171.452 396.1 172.71 394.842 172.71 393.29C172.71 391.738 171.452 390.48 169.9 390.48C168.348 390.48 167.09 391.738 167.09 393.29C167.09 394.842 168.348 396.1 169.9 396.1Z" fill="#86C383"/>
<path d="M242.73 354.67C244.282 354.67 245.54 353.412 245.54 351.86C245.54 350.308 244.282 349.05 242.73 349.05C241.178 349.05 239.92 350.308 239.92 351.86C239.92 353.412 241.178 354.67 242.73 354.67Z" fill="#86C383"/>
<path d="M392.87 357.05C394.422 357.05 395.68 355.792 395.68 354.24C395.68 352.688 394.422 351.43 392.87 351.43C391.318 351.43 390.06 352.688 390.06 354.24C390.06 355.792 391.318 357.05 392.87 357.05Z" fill="#86C383"/>
<path d="M548.2 354.83C549.752 354.83 551.01 353.572 551.01 352.02C551.01 350.468 549.752 349.21 548.2 349.21C546.648 349.21 545.39 350.468 545.39 352.02C545.39 353.572 546.648 354.83 548.2 354.83Z" fill="#86C383"/>
<path d="M659.86 396.32C661.412 396.32 662.67 395.062 662.67 393.51C662.67 391.958 661.412 390.7 659.86 390.7C658.308 390.7 657.05 391.958 657.05 393.51C657.05 395.062 658.308 396.32 659.86 396.32Z" fill="#86C383"/>
<path d="M439.783 445.978L427.084 439.781L424.803 444.454L437.502 450.651L439.783 445.978Z" fill="#86C383"/>
<path d="M716.65 353.13C718.202 353.13 719.46 351.872 719.46 350.32C719.46 348.768 718.202 347.51 716.65 347.51C715.098 347.51 713.84 348.768 713.84 350.32C713.84 351.872 715.098 353.13 716.65 353.13Z" fill="#86C383"/>
<path d="M326.4 395.91C327.952 395.91 329.21 394.652 329.21 393.1C329.21 391.548 327.952 390.29 326.4 390.29C324.848 390.29 323.59 391.548 323.59 393.1C323.59 394.652 324.848 395.91 326.4 395.91Z" fill="#86C383"/>
<path d="M185.04 285.47C181.52 286.94 178.1 288.03 174.77 288.73C171.44 289.43 168.21 289.79 165.07 289.79C156.49 289.79 149.87 287.74 145.2 283.65C140.59 279.49 138.29 273.54 138.29 265.79V244.38H150.67V264.44C150.67 269.18 152.05 272.79 154.8 275.29C157.55 277.79 161.49 279.03 166.61 279.03C169.68 279.03 172.75 278.68 175.83 277.97C178.97 277.27 181.97 276.18 184.85 274.71L185.04 285.47ZM183.12 311.58V244.38H195.5V311.58H183.12ZM244.09 311.58V301.21L243.42 299V280.86C243.42 277.34 242.36 274.62 240.25 272.7C238.14 270.72 234.94 269.72 230.65 269.72C227.77 269.72 224.92 270.17 222.11 271.06C219.36 271.96 217.02 273.2 215.1 274.8L210.4 266.06C213.15 263.95 216.42 262.38 220.19 261.36C224.03 260.27 228 259.73 232.09 259.73C239.51 259.73 245.24 261.52 249.27 265.11C253.37 268.63 255.41 274.1 255.41 281.53V311.58H244.09ZM227.97 312.25C224.13 312.25 220.77 311.61 217.89 310.33C215.01 308.99 212.77 307.16 211.17 304.86C209.63 302.49 208.87 299.84 208.87 296.89C208.87 294.01 209.54 291.42 210.89 289.11C212.3 286.81 214.57 284.98 217.71 283.64C220.85 282.3 225.01 281.62 230.19 281.62H245.07V289.59H231.05C226.95 289.59 224.2 290.26 222.79 291.61C221.38 292.89 220.68 294.49 220.68 296.41C220.68 298.59 221.54 300.31 223.27 301.59C225 302.87 227.4 303.51 230.47 303.51C233.41 303.51 236.04 302.84 238.34 301.49C240.71 300.15 242.4 298.16 243.43 295.54L245.45 302.74C244.3 305.75 242.22 308.08 239.21 309.75C236.25 311.42 232.51 312.25 227.97 312.25ZM270.27 311.58V260.32H282.27V294.11L310.59 260.32H321.53V311.58H309.53V277.79L281.31 311.58H270.27ZM295.14 254.27C290.02 254.27 286.08 253.09 283.33 250.72C280.58 248.29 279.17 244.77 279.11 240.16H287.08C287.14 242.46 287.85 244.29 289.19 245.63C290.6 246.97 292.55 247.65 295.05 247.65C297.48 247.65 299.4 246.98 300.81 245.63C302.28 244.29 303.05 242.46 303.11 240.16H311.27C311.21 244.77 309.77 248.29 306.95 250.72C304.19 253.09 300.26 254.27 295.14 254.27ZM337.68 311.58V260.32H349.68V281.15H375.5V260.32H387.5V311.58H375.5V291.32H349.68V311.58H337.68ZM403.58 311.58V260.32H415.58V294.11L443.9 260.32H454.84V311.58H442.84V277.79L414.62 311.58H403.58ZM507.76 311.58L489.23 287L499.02 280.95L521.87 311.57H507.76V311.58ZM470.99 311.58V260.32H482.99V311.58H470.99ZM479.44 291.04V281.06H496.82V291.04H479.44ZM500.17 287.39L488.94 286.05L507.76 260.32H520.62L500.17 287.39ZM562.88 312.73C557.57 312.73 552.64 311.87 548.1 310.14C543.62 308.41 539.72 305.98 536.39 302.84C533.13 299.7 530.57 296.02 528.71 291.8C526.92 287.58 526.02 282.97 526.02 277.98C526.02 272.99 526.92 268.38 528.71 264.16C530.57 259.94 533.16 256.26 536.49 253.12C539.82 249.98 543.72 247.55 548.2 245.82C552.68 244.09 557.54 243.23 562.79 243.23C568.1 243.23 572.97 244.09 577.38 245.82C581.86 247.55 585.73 249.98 589 253.12C592.33 256.26 594.92 259.94 596.78 264.16C598.64 268.32 599.56 272.93 599.56 277.98C599.56 282.97 598.63 287.61 596.78 291.9C594.92 296.12 592.33 299.8 589 302.94C585.74 306.01 581.86 308.41 577.38 310.14C572.96 311.87 568.13 312.73 562.88 312.73ZM562.78 299.49C565.79 299.49 568.54 298.98 571.04 297.95C573.6 296.93 575.84 295.45 577.76 293.53C579.68 291.61 581.15 289.34 582.18 286.71C583.27 284.09 583.81 281.17 583.81 277.97C583.81 274.77 583.27 271.86 582.18 269.23C581.16 266.61 579.68 264.33 577.76 262.41C575.9 260.49 573.7 259.02 571.14 257.99C568.58 256.97 565.8 256.45 562.79 256.45C559.78 256.45 557 256.96 554.44 257.99C551.94 259.01 549.74 260.49 547.82 262.41C545.9 264.33 544.4 266.6 543.31 269.23C542.29 271.85 541.77 274.77 541.77 277.97C541.77 281.11 542.28 284.02 543.31 286.71C544.4 289.33 545.87 291.61 547.73 293.53C549.65 295.45 551.89 296.92 554.45 297.95C556.99 298.97 559.77 299.49 562.78 299.49ZM625.64 274.62H657.9V287.1H625.64V274.62ZM626.79 311.58H611.24V244.38H662.02V256.86H626.79V311.58ZM686.95 274.62H719.21V287.1H686.95V274.62ZM688.1 311.58H672.55V244.38H723.33V256.86H688.1V311.58Z" fill="url(#paint0_linear_12_4)"/>
<path d="M143.83 385.58V358.81H147.45V380.08L165.35 358.81H168.56V385.58H164.94V364.26L147.09 385.58H143.83ZM178.94 385.58V358.81H182.56V370.64H199.44V358.81H203.06V385.58H199.44V373.75H182.56V385.58H178.94ZM218.46 385.58V361L219.38 361.97H208.31V358.81H232.23V361.97H221.16L222.08 361V385.58H218.46ZM247.69 385.84C244.9 385.84 242.45 385.26 240.35 384.11C238.24 382.92 236.59 381.31 235.4 379.26C234.21 377.19 233.61 374.82 233.61 372.17C233.61 369.52 234.17 367.17 235.29 365.13C236.45 363.09 238.01 361.49 239.98 360.34C241.99 359.15 244.23 358.55 246.71 358.55C249.23 358.55 251.45 359.13 253.39 360.28C255.36 361.4 256.91 363 258.03 365.07C259.15 367.11 259.71 369.47 259.71 372.16C259.71 372.33 259.69 372.52 259.66 372.72C259.66 372.89 259.66 373.08 259.66 373.28H236.35V370.58H257.72L256.29 371.65C256.29 369.71 255.86 368 255.02 366.5C254.2 364.97 253.08 363.78 251.65 362.93C250.22 362.08 248.57 361.66 246.7 361.66C244.86 361.66 243.21 362.08 241.75 362.93C240.29 363.78 239.15 364.97 238.33 366.5C237.51 368.03 237.11 369.78 237.11 371.75V372.31C237.11 374.35 237.55 376.15 238.44 377.72C239.36 379.25 240.62 380.46 242.21 381.34C243.84 382.19 245.7 382.61 247.77 382.61C249.4 382.61 250.92 382.32 252.31 381.74C253.74 381.16 254.96 380.28 255.98 379.09L258.02 381.44C256.83 382.87 255.33 383.96 253.53 384.7C251.79 385.46 249.83 385.84 247.69 385.84ZM281.56 385.84C279.25 385.84 277.16 385.31 275.29 384.26C273.42 383.17 271.92 381.63 270.8 379.62C269.71 377.58 269.17 375.1 269.17 372.17C269.17 369.25 269.71 366.78 270.8 364.77C271.89 362.73 273.37 361.18 275.24 360.13C277.11 359.08 279.22 358.55 281.56 358.55C284.11 358.55 286.39 359.13 288.39 360.28C290.43 361.4 292.03 363 293.18 365.07C294.34 367.11 294.91 369.47 294.91 372.16C294.91 374.88 294.33 377.26 293.18 379.3C292.02 381.34 290.43 382.94 288.39 384.09C286.39 385.26 284.11 385.84 281.56 385.84ZM267.74 395.48V358.81H271.21V366.87L270.85 372.23L271.36 377.64V395.49H267.74V395.48ZM281.31 382.62C283.21 382.62 284.91 382.2 286.41 381.35C287.91 380.47 289.1 379.24 289.98 377.68C290.86 376.08 291.31 374.25 291.31 372.17C291.31 370.1 290.87 368.28 289.98 366.71C289.1 365.15 287.91 363.92 286.41 363.04C284.91 362.16 283.21 361.71 281.31 361.71C279.41 361.71 277.69 362.15 276.16 363.04C274.66 363.92 273.47 365.15 272.59 366.71C271.74 368.27 271.31 370.09 271.31 372.17C271.31 374.24 271.74 376.08 272.59 377.68C273.47 379.24 274.66 380.47 276.16 381.35C277.69 382.2 279.4 382.62 281.31 382.62ZM302.7 385.58V358.81H306.32V370.64H323.2V358.81H326.82V385.58H323.2V373.75H306.32V385.58H302.7ZM348.59 385.84C345.8 385.84 343.35 385.26 341.25 384.11C339.14 382.92 337.49 381.31 336.3 379.26C335.11 377.19 334.51 374.82 334.51 372.17C334.51 369.52 335.07 367.17 336.19 365.13C337.35 363.09 338.91 361.49 340.88 360.34C342.89 359.15 345.13 358.55 347.61 358.55C350.13 358.55 352.35 359.13 354.29 360.28C356.26 361.4 357.81 363 358.93 365.07C360.05 367.11 360.61 369.47 360.61 372.16C360.61 372.33 360.59 372.52 360.56 372.72C360.56 372.89 360.56 373.08 360.56 373.28H337.25V370.58H358.62L357.19 371.65C357.19 369.71 356.77 368 355.92 366.5C355.1 364.97 353.98 363.78 352.55 362.93C351.12 362.08 349.47 361.66 347.6 361.66C345.76 361.66 344.11 362.08 342.65 362.93C341.19 363.78 340.05 364.97 339.23 366.5C338.41 368.03 338.01 369.78 338.01 371.75V372.31C338.01 374.35 338.45 376.15 339.34 377.72C340.26 379.25 341.52 380.46 343.11 381.34C344.74 382.19 346.59 382.61 348.67 382.61C350.3 382.61 351.81 382.32 353.21 381.74C354.64 381.16 355.86 380.28 356.88 379.09L358.92 381.44C357.73 382.87 356.23 383.96 354.43 384.7C352.69 385.46 350.74 385.84 348.59 385.84ZM372.55 385.58V361L373.47 361.97H362.4V358.81H386.32V361.97H375.25L376.17 361V385.58H372.55ZM404.9 385.58V358.81H408.57L420.71 379.36H419.18L431.52 358.81H434.89V385.58H431.57V362.94L432.23 363.25L420.7 382.32H419.07L407.44 363.04L408.2 362.89V385.59H404.9V385.58ZM461.82 385.58V379.66L461.67 378.69V368.8C461.67 366.52 461.02 364.77 459.73 363.55C458.47 362.33 456.59 361.71 454.07 361.71C452.34 361.71 450.69 362 449.12 362.58C447.56 363.16 446.23 363.92 445.14 364.88L443.51 362.18C444.87 361.02 446.5 360.14 448.41 359.53C450.31 358.88 452.32 358.56 454.43 358.56C457.9 358.56 460.57 359.43 462.44 361.16C464.34 362.86 465.3 365.46 465.3 368.96V385.59H461.82V385.58ZM452.59 385.84C450.58 385.84 448.83 385.52 447.34 384.87C445.88 384.19 444.76 383.27 443.97 382.12C443.19 380.93 442.8 379.57 442.8 378.04C442.8 376.65 443.12 375.39 443.77 374.27C444.45 373.11 445.54 372.2 447.03 371.52C448.56 370.81 450.6 370.45 453.15 370.45H462.38V373.15H453.25C450.67 373.15 448.86 373.61 447.84 374.53C446.85 375.45 446.36 376.59 446.36 377.95C446.36 379.48 446.96 380.7 448.15 381.62C449.34 382.54 451.01 383 453.15 383C455.19 383 456.94 382.54 458.4 381.62C459.9 380.67 460.98 379.31 461.66 377.54L462.48 380.04C461.8 381.81 460.61 383.22 458.91 384.27C457.25 385.31 455.14 385.84 452.59 385.84ZM474.93 385.58V358.81H493.9V361.97H477.63L478.55 361.05V385.58H474.93ZM515.76 385.58V379.66L515.61 378.69V368.8C515.61 366.52 514.96 364.77 513.67 363.55C512.41 362.33 510.53 361.71 508.01 361.71C506.28 361.71 504.63 362 503.06 362.58C501.49 363.16 500.17 363.92 499.08 364.88L497.45 362.18C498.81 361.02 500.44 360.14 502.35 359.53C504.25 358.88 506.26 358.56 508.37 358.56C511.84 358.56 514.51 359.43 516.38 361.16C518.28 362.86 519.24 365.46 519.24 368.96V385.59H515.76V385.58ZM506.53 385.84C504.52 385.84 502.77 385.52 501.28 384.87C499.82 384.19 498.7 383.27 497.91 382.12C497.13 380.93 496.74 379.57 496.74 378.04C496.74 376.65 497.06 375.39 497.71 374.27C498.39 373.11 499.48 372.2 500.97 371.52C502.5 370.81 504.54 370.45 507.09 370.45H516.32V373.15H507.19C504.61 373.15 502.8 373.61 501.78 374.53C500.79 375.45 500.3 376.59 500.3 377.95C500.3 379.48 500.9 380.7 502.08 381.62C503.27 382.54 504.94 383 507.08 383C509.12 383 510.87 382.54 512.33 381.62C513.83 380.67 514.91 379.31 515.59 377.54L516.41 380.04C515.73 381.81 514.54 383.22 512.84 384.27C511.19 385.31 509.08 385.84 506.53 385.84ZM535.51 385.89C533.57 385.89 531.65 385.62 529.75 385.07C527.85 384.52 526.16 383.69 524.7 382.57L525.87 379.87C527.16 380.82 528.66 381.55 530.36 382.06C532.06 382.54 533.74 382.77 535.41 382.77C537.08 382.74 538.52 382.5 539.74 382.06C540.96 381.62 541.92 381.01 542.6 380.22C543.28 379.44 543.62 378.55 543.62 377.57C543.62 376.14 542.97 375.04 541.68 374.25C540.39 373.43 538.62 373.03 536.38 373.03H531.79V370.38H536.13C537.46 370.38 538.63 370.21 539.65 369.87C540.67 369.53 541.45 369.04 542 368.39C542.58 367.74 542.87 366.98 542.87 366.1C542.87 365.15 542.53 364.33 541.85 363.65C541.2 362.97 540.3 362.46 539.15 362.12C537.99 361.78 536.69 361.61 535.22 361.61C533.89 361.64 532.52 361.85 531.09 362.22C529.66 362.56 528.25 363.09 526.86 363.8L525.84 361C527.4 360.18 528.95 359.57 530.48 359.16C532.04 358.72 533.61 358.5 535.17 358.5C537.31 358.43 539.23 358.69 540.93 359.26C542.66 359.84 544.04 360.67 545.06 361.76C546.08 362.81 546.59 364.09 546.59 365.59C546.59 366.92 546.18 368.07 545.37 369.06C544.55 370.05 543.47 370.81 542.11 371.36C540.75 371.9 539.2 372.18 537.47 372.18L537.62 371.21C540.68 371.21 543.06 371.81 544.76 373C546.49 374.19 547.36 375.8 547.36 377.85C547.36 379.45 546.83 380.86 545.78 382.08C544.73 383.27 543.3 384.2 541.5 384.88C539.71 385.55 537.72 385.89 535.51 385.89ZM555.56 385.58V358.81H559.18V380.08L577.08 358.81H580.29V385.58H576.67V364.26L558.82 385.58H555.56ZM590.68 385.58V358.81H594.3V370.64H611.18V358.81H614.8V385.58H611.18V373.75H594.3V385.58H590.68ZM655.37 374.26C653.81 374.94 652.22 375.48 650.63 375.89C649.07 376.26 647.5 376.45 645.94 376.45C642.78 376.45 640.28 375.74 638.44 374.31C636.6 372.85 635.69 370.6 635.69 367.58V358.81H639.26V367.38C639.26 369.42 639.92 370.95 641.25 371.97C642.58 372.99 644.36 373.5 646.6 373.5C647.96 373.5 649.39 373.33 650.88 372.99C652.38 372.62 653.89 372.09 655.42 371.41L655.37 374.26ZM655.06 385.58V358.81H658.68V385.58H655.06ZM685.59 385.58V379.66L685.44 378.69V368.8C685.44 366.52 684.79 364.77 683.5 363.55C682.24 362.33 680.35 361.71 677.84 361.71C676.11 361.71 674.46 362 672.89 362.58C671.33 363.16 670 363.92 668.91 364.88L667.28 362.18C668.64 361.02 670.27 360.14 672.18 359.53C674.08 358.88 676.09 358.56 678.2 358.56C681.67 358.56 684.34 359.43 686.21 361.16C688.11 362.86 689.07 365.46 689.07 368.96V385.59H685.59V385.58ZM676.36 385.84C674.35 385.84 672.6 385.52 671.11 384.87C669.65 384.19 668.53 383.27 667.74 382.12C666.96 380.93 666.57 379.57 666.57 378.04C666.57 376.65 666.89 375.39 667.54 374.27C668.22 373.11 669.31 372.2 670.8 371.52C672.33 370.81 674.37 370.45 676.92 370.45H686.15V373.15H677.02C674.44 373.15 672.63 373.61 671.61 374.53C670.62 375.45 670.13 376.59 670.13 377.95C670.13 379.48 670.72 380.7 671.91 381.62C673.1 382.54 674.77 383 676.91 383C678.95 383 680.7 382.54 682.16 381.62C683.66 380.67 684.74 379.31 685.42 377.54L686.24 380.04C685.56 381.81 684.37 383.22 682.67 384.27C681.02 385.31 678.91 385.84 676.36 385.84ZM715.99 385.58V375.94L716.65 376.71H707.57C704.14 376.71 701.45 375.96 699.51 374.47C697.57 372.98 696.6 370.8 696.6 367.94C696.6 364.88 697.64 362.6 699.71 361.11C701.78 359.58 704.56 358.82 708.02 358.82H719.29V385.59H715.99V385.58ZM696.41 385.58L703.75 375.28H707.52L700.33 385.58H696.41ZM715.99 374.87V360.9L716.65 361.97H708.13C705.65 361.97 703.71 362.45 702.32 363.4C700.96 364.35 700.28 365.9 700.28 368.04C700.28 372.02 702.81 374.01 707.88 374.01H716.65L715.99 374.87Z" fill="url(#paint1_linear_12_4)"/>
<defs>
<linearGradient id="paint0_linear_12_4" x1="127.5" y1="229.34" x2="605.403" y2="532.978" gradientUnits="userSpaceOnUse">
<stop stop-color="#9D9D9D"/>
<stop offset="0.239583" stop-color="#D9D9D9"/>
<stop offset="0.484375" stop-color="white"/>
<stop offset="0.739583" stop-color="#D9D9D9"/>
<stop offset="1" stop-color="#9D9D9D"/>
</linearGradient>
<linearGradient id="paint1_linear_12_4" x1="133.217" y1="352.972" x2="396.902" y2="676.173" gradientUnits="userSpaceOnUse">
<stop stop-color="#9D9D9D"/>
<stop offset="0.239583" stop-color="#D9D9D9"/>
<stop offset="0.484375" stop-color="white"/>
<stop offset="0.739583" stop-color="#D9D9D9"/>
<stop offset="1" stop-color="#9D9D9D"/>
</linearGradient>
</defs>
</svg>
