<svg width="56" height="50" viewBox="0 0 56 50" fill="none" xmlns="http://www.w3.org/2000/svg">
<path fill-rule="evenodd" clip-rule="evenodd" d="M14.4118 45.7353C14.4118 43.38 16.3211 41.4706 18.6765 41.4706C21.0318 41.4706 22.9412 43.38 22.9412 45.7353C22.9412 48.0906 21.0318 50 18.6765 50C16.3211 50 14.4118 48.0906 14.4118 45.7353Z" fill="#F8F8F8"/>
<path fill-rule="evenodd" clip-rule="evenodd" d="M43.5294 45.7353C43.5294 43.38 45.4388 41.4706 47.7941 41.4706C50.1495 41.4706 52.0588 43.38 52.0588 45.7353C52.0588 48.0906 50.1495 50 47.7941 50C45.4388 50 43.5294 48.0906 43.5294 45.7353Z" fill="#F8F8F8"/>
<path fill-rule="evenodd" clip-rule="evenodd" d="M0 2.0743C0 0.928697 0.932301 0 2.08235 0H10.4118C11.4222 0 12.2868 0.722599 12.4624 1.71382L18.4059 35.2632H49.9765C51.1265 35.2632 52.0588 36.1919 52.0588 37.3375C52.0588 38.4831 51.1265 39.4118 49.9765 39.4118H16.6588C15.6484 39.4118 14.7838 38.6892 14.6082 37.6979L8.66471 4.14861H2.08235C0.932301 4.14861 0 3.21991 0 2.0743Z" fill="#F8F8F8"/>
<path fill-rule="evenodd" clip-rule="evenodd" d="M52.7578 6.17647C53.2197 6.17636 53.6759 6.27872 54.0935 6.4762C54.5115 6.67389 54.8805 6.96195 55.1738 7.31958C55.467 7.67721 55.6772 8.09552 55.7893 8.54432C55.9013 8.99302 55.9124 9.46099 55.8217 9.91447L52.073 28.6648C51.9312 29.3734 51.5482 30.011 50.9893 30.469C50.4305 30.927 49.7302 31.177 49.0077 31.1765L49.0091 29.0931V31.1765H49.0077H16.5418C15.3917 31.1765 14.4593 30.2437 14.4593 29.0931C14.4593 27.9425 15.3917 27.0098 16.5418 27.0098H48.1562L47.9888 27.847C48.0361 27.6108 48.1637 27.3983 48.35 27.2456C48.5359 27.0933 48.7688 27.01 49.0091 27.0098H48.1562L51.4883 10.3431H52.7578C52.6041 10.343 52.4524 10.3089 52.3135 10.2432C52.1741 10.1773 52.0512 10.0813 51.9534 9.9621C51.8557 9.84289 51.7856 9.70346 51.7482 9.55385C51.711 9.40455 51.7072 9.24884 51.7373 9.09793L51.4883 10.3431H12.3767C11.2265 10.3431 10.2941 9.4104 10.2941 8.2598C10.2941 7.10921 11.2265 6.17647 12.3767 6.17647H52.7578L52.7563 6.17647L52.7578 8.2598V6.17647Z" fill="#F8F8F8"/>
</svg>
