<svg width="50" height="50" viewBox="0 0 50 50" fill="none" xmlns="http://www.w3.org/2000/svg">
<path fill-rule="evenodd" clip-rule="evenodd" d="M14.3837 0H35.6163C36.9419 0 38.0674 1.73269e-08 38.9953 0.0953489C39.986 0.197674 40.9023 0.42093 41.7674 0.955814C42.6302 1.4907 43.2395 2.2093 43.7744 3.04884C44.2744 3.83954 44.7791 4.84419 45.3721 6.03023L45.4093 6.10698C45.4326 6.15349 45.4535 6.19767 45.4721 6.24651L48.7349 14.4953C49.1256 15.4791 49.5558 16.7046 49.6814 17.9558C49.8093 19.2395 49.6349 20.707 48.6279 21.9791C47.7936 23.0387 46.646 23.8078 45.3488 24.1767V46.5116H48.2558C48.7184 46.5116 49.162 46.6954 49.4891 47.0225C49.8162 47.3496 50 47.7932 50 48.2558C50 48.7184 49.8162 49.162 49.4891 49.4891C49.162 49.8162 48.7184 50 48.2558 50H1.74419C1.2816 50 0.837959 49.8162 0.51086 49.4891C0.183762 49.162 0 48.7184 0 48.2558C0 47.7932 0.183762 47.3496 0.51086 47.0225C0.837959 46.6954 1.2816 46.5116 1.74419 46.5116H4.65116V24.1767C3.35432 23.8083 2.20682 23.0401 1.37209 21.9814C0.367442 20.707 0.190698 19.2372 0.318605 17.9581C0.444186 16.7023 0.876744 15.4791 1.26279 14.4953L4.52791 6.24419C4.54678 6.19677 4.56773 6.15022 4.5907 6.10465L4.62791 6.03023C5.22093 4.84419 5.72326 3.83721 6.22558 3.04884C6.76046 2.2093 7.36977 1.4907 8.23256 0.955814C9.09767 0.42093 10.014 0.197674 11.0023 0.0953489C11.9326 1.73269e-08 13.0581 0 14.3837 0ZM38.9535 22.414C39.7457 23.2531 40.7502 23.8622 41.8605 24.1767V46.5116H32.5581V40.0419C32.5581 39.0186 32.5581 38.1349 32.493 37.414C32.4233 36.6465 32.2698 35.8884 31.8581 35.1744C31.3987 34.3785 30.7378 33.7176 29.9419 33.2581C29.2279 32.8465 28.4698 32.693 27.7047 32.6233C26.9791 32.5581 26.0977 32.5581 25.0767 32.5581H24.9256C23.9023 32.5581 23.0186 32.5581 22.2977 32.6233C21.5302 32.693 20.7721 32.8465 20.0581 33.2581C19.2622 33.7175 18.6013 34.3785 18.1419 35.1744C17.7302 35.8884 17.5767 36.6465 17.507 37.4116C17.4419 38.1372 17.4419 39.0186 17.4419 40.0395V46.5116H8.13953V24.1791C9.25033 23.8632 10.2549 23.2524 11.0465 22.4116C11.6436 23.0462 12.3643 23.5516 13.1643 23.8968C13.9642 24.242 14.8264 24.4196 15.6977 24.4186C17.5302 24.4186 19.1837 23.6488 20.3488 22.4116C20.9459 23.0462 21.6666 23.5516 22.4666 23.8968C23.2665 24.242 24.1287 24.4196 25 24.4186C26.8326 24.4186 28.486 23.6488 29.6512 22.4116C30.2482 23.0462 30.9689 23.5516 31.7689 23.8968C32.5689 24.242 33.4311 24.4196 34.3023 24.4186C36.1349 24.4186 37.7884 23.6512 38.9535 22.414ZM20.9302 46.5116H29.0698V40.1163C29.0698 38.9977 29.0698 38.2744 29.0186 37.7279C28.9721 37.2046 28.8907 37.014 28.8349 36.9186C28.682 36.654 28.4622 36.4343 28.1977 36.2814C28.1047 36.2256 27.9116 36.1465 27.3884 36.0977C26.5933 36.0486 25.7965 36.0315 25 36.0465C23.8814 36.0465 23.1581 36.0465 22.6116 36.0977C22.0884 36.1442 21.8977 36.2256 21.8023 36.2814C21.5378 36.4343 21.318 36.654 21.1651 36.9186C21.1093 37.0116 21.0279 37.2046 20.9814 37.7279C20.9326 38.2744 20.9302 38.9977 20.9302 40.1163V46.5116ZM12.7907 18.0233C12.7907 18.7942 13.097 19.5336 13.6421 20.0788C14.1873 20.624 14.9267 20.9302 15.6977 20.9302C16.4687 20.9302 17.2081 20.624 17.7532 20.0788C18.2984 19.5336 18.6047 18.7942 18.6047 18.0233C18.6047 17.5607 18.7884 17.117 19.1155 16.7899C19.4426 16.4628 19.8862 16.2791 20.3488 16.2791C20.8114 16.2791 21.2551 16.4628 21.5822 16.7899C21.9093 17.117 22.093 17.5607 22.093 18.0233C22.093 18.7942 22.3993 19.5336 22.9445 20.0788C23.4896 20.624 24.229 20.9302 25 20.9302C25.771 20.9302 26.5104 20.624 27.0555 20.0788C27.6007 19.5336 27.907 18.7942 27.907 18.0233C27.907 17.5607 28.0907 17.117 28.4178 16.7899C28.7449 16.4628 29.1886 16.2791 29.6512 16.2791C30.1137 16.2791 30.5574 16.4628 30.8845 16.7899C31.2116 17.117 31.3953 17.5607 31.3953 18.0233C31.3953 18.7942 31.7016 19.5336 32.2468 20.0788C32.7919 20.624 33.5313 20.9302 34.3023 20.9302C35.0733 20.9302 35.8127 20.624 36.3579 20.0788C36.903 19.5336 37.2093 18.7942 37.2093 18.0233C37.2093 17.5607 37.3931 17.117 37.7202 16.7899C38.0473 16.4628 38.4909 16.2791 38.9535 16.2791C39.4161 16.2791 39.8597 16.4628 40.1868 16.7899C40.5139 17.117 40.6977 17.5607 40.6977 18.0233C40.6979 18.6274 40.8863 19.2165 41.2368 19.7087C41.5873 20.2008 42.0824 20.5715 42.6533 20.7692C43.2242 20.9669 43.8426 20.9818 44.4223 20.8119C45.0021 20.6419 45.5145 20.2956 45.8884 19.8209C46.1535 19.486 46.2837 19.0256 46.2093 18.3047C46.1349 17.5558 45.8581 16.7047 45.493 15.7791L42.2558 7.59767C41.6326 6.35349 41.2163 5.52791 40.8302 4.92326C40.4581 4.33721 40.193 4.08372 39.9326 3.92326C39.6744 3.76047 39.3279 3.63721 38.6372 3.56512C37.907 3.4907 36.9628 3.48837 35.5302 3.48837H14.4698C13.0349 3.48837 12.0907 3.48837 11.3628 3.56512C10.6721 3.63721 10.3256 3.76279 10.0674 3.92326C9.80698 4.08372 9.54186 4.33721 9.16977 4.92326C8.78139 5.52791 8.36744 6.35349 7.74419 7.59767L4.50698 15.7791C4.14186 16.7047 3.86512 17.5558 3.7907 18.3047C3.7186 19.0256 3.84651 19.486 4.11163 19.8209C4.48545 20.2956 4.99788 20.6419 5.57766 20.8119C6.15744 20.9818 6.77577 20.9669 7.34667 20.7692C7.91758 20.5715 8.4127 20.2008 8.76319 19.7087C9.11368 19.2165 9.30212 18.6274 9.30233 18.0233C9.30233 17.5607 9.48609 17.117 9.81319 16.7899C10.1403 16.4628 10.5839 16.2791 11.0465 16.2791C11.5091 16.2791 11.9527 16.4628 12.2798 16.7899C12.6069 17.117 12.7907 17.5607 12.7907 18.0233Z" fill="white"/>
</svg>
