<svg width="1340" height="268" viewBox="0 0 1340 268" fill="none" xmlns="http://www.w3.org/2000/svg">
<rect x="2" y="2" width="1336" height="264" rx="42.02" stroke="url(#paint0_linear_156_321)" stroke-width="4"/>
<path d="M55.564 97V71.8H77.848V97H73.24V74.608L74.32 75.76H59.092L60.172 74.608V97H55.564ZM93.0178 97.252C91.0498 97.252 89.2978 96.832 87.7618 95.992C86.2258 95.128 85.0138 93.952 84.1258 92.464C83.2378 90.976 82.7938 89.284 82.7938 87.388C82.7938 85.468 83.2378 83.776 84.1258 82.312C85.0138 80.824 86.2258 79.66 87.7618 78.82C89.2978 77.98 91.0498 77.56 93.0178 77.56C95.0098 77.56 96.7738 77.98 98.3098 78.82C99.8698 79.66 101.082 80.812 101.946 82.276C102.834 83.74 103.278 85.444 103.278 87.388C103.278 89.284 102.834 90.976 101.946 92.464C101.082 93.952 99.8698 95.128 98.3098 95.992C96.7738 96.832 95.0098 97.252 93.0178 97.252ZM93.0178 93.4C94.1218 93.4 95.1058 93.16 95.9698 92.68C96.8338 92.2 97.5058 91.504 97.9858 90.592C98.4898 89.68 98.7418 88.612 98.7418 87.388C98.7418 86.14 98.4898 85.072 97.9858 84.184C97.5058 83.272 96.8338 82.576 95.9698 82.096C95.1058 81.616 94.1338 81.376 93.0538 81.376C91.9498 81.376 90.9658 81.616 90.1018 82.096C89.2618 82.576 88.5898 83.272 88.0858 84.184C87.5818 85.072 87.3298 86.14 87.3298 87.388C87.3298 88.612 87.5818 89.68 88.0858 90.592C88.5898 91.504 89.2618 92.2 90.1018 92.68C90.9658 93.16 91.9378 93.4 93.0178 93.4ZM107.723 97V77.776H122.483V81.592H111.179L112.223 80.584V97H107.723ZM136.414 97.252C134.854 97.252 133.426 96.892 132.13 96.172C130.858 95.452 129.838 94.372 129.07 92.932C128.326 91.468 127.954 89.62 127.954 87.388C127.954 85.132 128.314 83.284 129.034 81.844C129.778 80.404 130.786 79.336 132.058 78.64C133.33 77.92 134.782 77.56 136.414 77.56C138.31 77.56 139.978 77.968 141.418 78.784C142.882 79.6 144.034 80.74 144.874 82.204C145.738 83.668 146.17 85.396 146.17 87.388C146.17 89.38 145.738 91.12 144.874 92.608C144.034 94.072 142.882 95.212 141.418 96.028C139.978 96.844 138.31 97.252 136.414 97.252ZM125.758 103.984V77.776H130.042V82.312L129.898 87.424L130.258 92.536V103.984H125.758ZM135.91 93.4C136.99 93.4 137.95 93.16 138.79 92.68C139.654 92.2 140.338 91.504 140.842 90.592C141.346 89.68 141.598 88.612 141.598 87.388C141.598 86.14 141.346 85.072 140.842 84.184C140.338 83.272 139.654 82.576 138.79 82.096C137.95 81.616 136.99 81.376 135.91 81.376C134.83 81.376 133.858 81.616 132.994 82.096C132.13 82.576 131.446 83.272 130.942 84.184C130.438 85.072 130.186 86.14 130.186 87.388C130.186 88.612 130.438 89.68 130.942 90.592C131.446 91.504 132.13 92.2 132.994 92.68C133.858 93.16 134.83 93.4 135.91 93.4ZM151.85 104.236C150.914 104.236 149.978 104.08 149.042 103.768C148.106 103.456 147.326 103.024 146.702 102.472L148.502 99.16C148.958 99.568 149.474 99.892 150.05 100.132C150.626 100.372 151.214 100.492 151.814 100.492C152.63 100.492 153.29 100.288 153.794 99.88C154.298 99.472 154.766 98.788 155.198 97.828L156.314 95.308L156.674 94.768L163.946 77.776H168.266L159.266 98.548C158.666 99.988 157.994 101.128 157.25 101.968C156.53 102.808 155.714 103.396 154.802 103.732C153.914 104.068 152.93 104.236 151.85 104.236ZM155.81 97.684L147.134 77.776H151.814L158.87 94.372L155.81 97.684ZM177.018 97.324C175.554 97.324 174.102 97.156 172.662 96.82C171.246 96.46 169.962 95.956 168.81 95.308L170.07 91.96C171.006 92.488 172.062 92.896 173.238 93.184C174.414 93.472 175.59 93.616 176.766 93.616C177.774 93.616 178.638 93.52 179.358 93.328C180.078 93.112 180.63 92.8 181.014 92.392C181.422 91.984 181.626 91.516 181.626 90.988C181.626 90.22 181.29 89.644 180.618 89.26C179.97 88.852 179.034 88.648 177.81 88.648H174.102V85.624H177.45C178.218 85.624 178.866 85.54 179.394 85.372C179.946 85.204 180.366 84.952 180.654 84.616C180.942 84.28 181.086 83.884 181.086 83.428C181.086 82.972 180.906 82.576 180.546 82.24C180.21 81.88 179.718 81.616 179.07 81.448C178.422 81.256 177.642 81.16 176.73 81.16C175.77 81.16 174.774 81.28 173.742 81.52C172.734 81.76 171.702 82.108 170.646 82.564L169.494 79.252C170.718 78.7 171.906 78.28 173.058 77.992C174.234 77.68 175.398 77.512 176.55 77.488C178.302 77.416 179.862 77.596 181.23 78.028C182.598 78.46 183.678 79.084 184.47 79.9C185.262 80.716 185.658 81.676 185.658 82.78C185.658 83.692 185.37 84.52 184.794 85.264C184.242 85.984 183.474 86.548 182.49 86.956C181.53 87.364 180.426 87.568 179.178 87.568L179.322 86.596C181.458 86.596 183.138 87.028 184.362 87.892C185.586 88.732 186.198 89.884 186.198 91.348C186.198 92.524 185.802 93.568 185.01 94.48C184.218 95.368 183.126 96.064 181.734 96.568C180.366 97.072 178.794 97.324 177.018 97.324ZM190.833 97V77.776H195.333V90.448L205.953 77.776H210.057V97H205.557V84.328L194.973 97H190.833ZM220.106 97V80.512L221.15 81.592H213.338V77.776H231.338V81.592H223.562L224.606 80.512V97H220.106ZM242.722 97.252C240.586 97.252 238.714 96.832 237.106 95.992C235.522 95.128 234.286 93.952 233.398 92.464C232.534 90.976 232.102 89.284 232.102 87.388C232.102 85.468 232.522 83.776 233.362 82.312C234.226 80.824 235.402 79.66 236.89 78.82C238.402 77.98 240.118 77.56 242.038 77.56C243.91 77.56 245.578 77.968 247.042 78.784C248.506 79.6 249.658 80.752 250.498 82.24C251.338 83.728 251.758 85.48 251.758 87.496C251.758 87.688 251.746 87.904 251.722 88.144C251.722 88.384 251.71 88.612 251.686 88.828H235.666V85.84H249.31L247.546 86.776C247.57 85.672 247.342 84.7 246.862 83.86C246.382 83.02 245.722 82.36 244.882 81.88C244.066 81.4 243.118 81.16 242.038 81.16C240.934 81.16 239.962 81.4 239.122 81.88C238.306 82.36 237.658 83.032 237.178 83.896C236.722 84.736 236.494 85.732 236.494 86.884V87.604C236.494 88.756 236.758 89.776 237.286 90.664C237.814 91.552 238.558 92.236 239.518 92.716C240.478 93.196 241.582 93.436 242.83 93.436C243.91 93.436 244.882 93.268 245.746 92.932C246.61 92.596 247.378 92.068 248.05 91.348L250.462 94.12C249.598 95.128 248.506 95.908 247.186 96.46C245.89 96.988 244.402 97.252 242.722 97.252ZM265.428 97.252C263.412 97.252 261.612 96.832 260.028 95.992C258.468 95.128 257.244 93.952 256.356 92.464C255.468 90.976 255.024 89.284 255.024 87.388C255.024 85.468 255.468 83.776 256.356 82.312C257.244 80.824 258.468 79.66 260.028 78.82C261.612 77.98 263.412 77.56 265.428 77.56C267.3 77.56 268.944 77.944 270.36 78.712C271.8 79.456 272.892 80.56 273.636 82.024L270.18 84.04C269.604 83.128 268.896 82.456 268.056 82.024C267.24 81.592 266.352 81.376 265.392 81.376C264.288 81.376 263.292 81.616 262.404 82.096C261.516 82.576 260.82 83.272 260.316 84.184C259.812 85.072 259.56 86.14 259.56 87.388C259.56 88.636 259.812 89.716 260.316 90.628C260.82 91.516 261.516 92.2 262.404 92.68C263.292 93.16 264.288 93.4 265.392 93.4C266.352 93.4 267.24 93.184 268.056 92.752C268.896 92.32 269.604 91.648 270.18 90.736L273.636 92.752C272.892 94.192 271.8 95.308 270.36 96.1C268.944 96.868 267.3 97.252 265.428 97.252ZM287.246 84.112C289.718 84.112 291.602 84.664 292.898 85.768C294.194 86.872 294.842 88.432 294.842 90.448C294.842 92.536 294.122 94.168 292.682 95.344C291.242 96.496 289.214 97.06 286.598 97.036L277.598 97V77.776H282.098V84.076L287.246 84.112ZM286.202 93.724C287.522 93.748 288.53 93.472 289.226 92.896C289.922 92.32 290.27 91.48 290.27 90.376C290.27 89.272 289.922 88.48 289.226 88C288.554 87.496 287.546 87.232 286.202 87.208L282.098 87.172V93.688L286.202 93.724ZM308.747 97V77.776H318.143C320.471 77.776 322.295 78.208 323.615 79.072C324.959 79.936 325.631 81.16 325.631 82.744C325.631 84.304 325.007 85.528 323.759 86.416C322.511 87.28 320.855 87.712 318.791 87.712L319.331 86.596C321.659 86.596 323.387 87.028 324.515 87.892C325.667 88.732 326.243 89.968 326.243 91.6C326.243 93.304 325.607 94.636 324.335 95.596C323.063 96.532 321.131 97 318.539 97H308.747ZM313.031 93.724H318.179C319.403 93.724 320.327 93.532 320.951 93.148C321.575 92.74 321.887 92.128 321.887 91.312C321.887 90.448 321.599 89.812 321.023 89.404C320.447 88.996 319.547 88.792 318.323 88.792H313.031V93.724ZM313.031 85.804H317.747C318.899 85.804 319.763 85.6 320.339 85.192C320.939 84.76 321.239 84.16 321.239 83.392C321.239 82.6 320.939 82.012 320.339 81.628C319.763 81.244 318.899 81.052 317.747 81.052H313.031V85.804ZM340.985 97V77.776H345.701L353.441 91.42H351.569L359.705 77.776H363.917L363.953 97H359.885V82.6L360.605 83.068L353.405 94.984H351.461L344.225 82.744L345.089 82.528V97H340.985ZM369.989 97V77.776H374.489V90.448L385.109 77.776H389.213V97H384.713V84.328L374.129 97H369.989ZM405.922 97.252C404.362 97.252 402.934 96.892 401.638 96.172C400.366 95.452 399.346 94.372 398.578 92.932C397.834 91.468 397.462 89.62 397.462 87.388C397.462 85.132 397.822 83.284 398.542 81.844C399.286 80.404 400.294 79.336 401.566 78.64C402.838 77.92 404.29 77.56 405.922 77.56C407.818 77.56 409.486 77.968 410.926 78.784C412.39 79.6 413.542 80.74 414.382 82.204C415.246 83.668 415.678 85.396 415.678 87.388C415.678 89.38 415.246 91.12 414.382 92.608C413.542 94.072 412.39 95.212 410.926 96.028C409.486 96.844 407.818 97.252 405.922 97.252ZM395.266 103.984V77.776H399.55V82.312L399.406 87.424L399.766 92.536V103.984H395.266ZM405.418 93.4C406.498 93.4 407.458 93.16 408.298 92.68C409.162 92.2 409.846 91.504 410.35 90.592C410.854 89.68 411.106 88.612 411.106 87.388C411.106 86.14 410.854 85.072 410.35 84.184C409.846 83.272 409.162 82.576 408.298 82.096C407.458 81.616 406.498 81.376 405.418 81.376C404.338 81.376 403.366 81.616 402.502 82.096C401.638 82.576 400.954 83.272 400.45 84.184C399.946 85.072 399.694 86.14 399.694 87.388C399.694 88.612 399.946 89.68 400.45 90.592C400.954 91.504 401.638 92.2 402.502 92.68C403.366 93.16 404.338 93.4 405.418 93.4ZM442.238 89.404C441.326 89.836 440.354 90.196 439.322 90.484C438.314 90.748 437.246 90.88 436.118 90.88C433.694 90.88 431.81 90.316 430.466 89.188C429.122 88.06 428.45 86.308 428.45 83.932V77.776H432.95V83.644C432.95 84.916 433.31 85.84 434.03 86.416C434.774 86.992 435.794 87.28 437.09 87.28C437.954 87.28 438.818 87.172 439.682 86.956C440.546 86.74 441.398 86.44 442.238 86.056V89.404ZM441.914 97V77.776H446.414V97H441.914ZM464.129 97V93.112L463.877 92.284V85.48C463.877 84.16 463.481 83.14 462.689 82.42C461.897 81.676 460.697 81.304 459.089 81.304C458.009 81.304 456.941 81.472 455.885 81.808C454.853 82.144 453.977 82.612 453.257 83.212L451.493 79.936C452.525 79.144 453.749 78.556 455.165 78.172C456.605 77.764 458.093 77.56 459.629 77.56C462.413 77.56 464.561 78.232 466.073 79.576C467.609 80.896 468.377 82.948 468.377 85.732V97H464.129ZM458.081 97.252C456.641 97.252 455.381 97.012 454.301 96.532C453.221 96.028 452.381 95.344 451.781 94.48C451.205 93.592 450.917 92.596 450.917 91.492C450.917 90.412 451.169 89.44 451.673 88.576C452.201 87.712 453.053 87.028 454.229 86.524C455.405 86.02 456.965 85.768 458.909 85.768H464.489V88.756H459.233C457.697 88.756 456.665 89.008 456.137 89.512C455.609 89.992 455.345 90.592 455.345 91.312C455.345 92.128 455.669 92.776 456.317 93.256C456.965 93.736 457.865 93.976 459.017 93.976C460.121 93.976 461.105 93.724 461.969 93.22C462.857 92.716 463.493 91.972 463.877 90.988L464.633 93.688C464.201 94.816 463.421 95.692 462.293 96.316C461.189 96.94 459.785 97.252 458.081 97.252ZM486.15 97V90.448L486.798 91.204H481.038C478.398 91.204 476.322 90.652 474.81 89.548C473.322 88.42 472.578 86.8 472.578 84.688C472.578 82.432 473.37 80.716 474.954 79.54C476.562 78.364 478.698 77.776 481.362 77.776H490.182V97H486.15ZM472.326 97L477.51 89.656H482.118L477.15 97H472.326ZM486.15 89.008V80.368L486.798 81.556H481.506C480.114 81.556 479.034 81.82 478.266 82.348C477.522 82.852 477.15 83.68 477.15 84.832C477.15 86.992 478.554 88.072 481.362 88.072H486.798L486.15 89.008ZM514.932 97.252C512.916 97.252 511.116 96.832 509.532 95.992C507.972 95.128 506.748 93.952 505.86 92.464C504.972 90.976 504.528 89.284 504.528 87.388C504.528 85.468 504.972 83.776 505.86 82.312C506.748 80.824 507.972 79.66 509.532 78.82C511.116 77.98 512.916 77.56 514.932 77.56C516.804 77.56 518.448 77.944 519.864 78.712C521.304 79.456 522.396 80.56 523.14 82.024L519.684 84.04C519.108 83.128 518.4 82.456 517.56 82.024C516.744 81.592 515.856 81.376 514.896 81.376C513.792 81.376 512.796 81.616 511.908 82.096C511.02 82.576 510.324 83.272 509.82 84.184C509.316 85.072 509.064 86.14 509.064 87.388C509.064 88.636 509.316 89.716 509.82 90.628C510.324 91.516 511.02 92.2 511.908 92.68C512.796 93.16 513.792 93.4 514.896 93.4C515.856 93.4 516.744 93.184 517.56 92.752C518.4 92.32 519.108 91.648 519.684 90.736L523.14 92.752C522.396 94.192 521.304 95.308 519.864 96.1C518.448 96.868 516.804 97.252 514.932 97.252ZM537.051 97V77.776H541.551V85.588H551.235V77.776H555.735V97H551.235V89.404H541.551V97H537.051ZM573.43 97V93.112L573.178 92.284V85.48C573.178 84.16 572.782 83.14 571.99 82.42C571.198 81.676 569.998 81.304 568.39 81.304C567.31 81.304 566.242 81.472 565.186 81.808C564.154 82.144 563.278 82.612 562.558 83.212L560.794 79.936C561.826 79.144 563.05 78.556 564.466 78.172C565.906 77.764 567.394 77.56 568.93 77.56C571.714 77.56 573.862 78.232 575.374 79.576C576.91 80.896 577.678 82.948 577.678 85.732V97H573.43ZM567.382 97.252C565.942 97.252 564.682 97.012 563.602 96.532C562.522 96.028 561.682 95.344 561.082 94.48C560.506 93.592 560.218 92.596 560.218 91.492C560.218 90.412 560.47 89.44 560.974 88.576C561.502 87.712 562.354 87.028 563.53 86.524C564.706 86.02 566.266 85.768 568.21 85.768H573.79V88.756H568.534C566.998 88.756 565.966 89.008 565.438 89.512C564.91 89.992 564.646 90.592 564.646 91.312C564.646 92.128 564.97 92.776 565.618 93.256C566.266 93.736 567.166 93.976 568.318 93.976C569.422 93.976 570.406 93.724 571.27 93.22C572.158 92.716 572.794 91.972 573.178 90.988L573.934 93.688C573.502 94.816 572.722 95.692 571.594 96.316C570.49 96.94 569.086 97.252 567.382 97.252ZM583.247 97V77.776H587.963L595.703 91.42H593.831L601.967 77.776H606.179L606.215 97H602.147V82.6L602.867 83.068L595.667 94.984H593.723L586.487 82.744L587.351 82.528V97H583.247ZM612.251 97V77.776H616.751V90.448L627.371 77.776H631.475V97H626.975V84.328L616.391 97H612.251ZM647.477 97V77.776H651.977V90.448L662.597 77.776H666.701V97H662.201V84.328L651.617 97H647.477ZM682.704 97V77.776H687.204V85.588H696.888V77.776H701.388V97H696.888V89.404H687.204V97H682.704ZM719.083 97V93.112L718.831 92.284V85.48C718.831 84.16 718.435 83.14 717.643 82.42C716.851 81.676 715.651 81.304 714.043 81.304C712.963 81.304 711.895 81.472 710.839 81.808C709.807 82.144 708.931 82.612 708.211 83.212L706.447 79.936C707.479 79.144 708.703 78.556 710.119 78.172C711.559 77.764 713.047 77.56 714.583 77.56C717.367 77.56 719.515 78.232 721.027 79.576C722.563 80.896 723.331 82.948 723.331 85.732V97H719.083ZM713.035 97.252C711.595 97.252 710.335 97.012 709.255 96.532C708.175 96.028 707.335 95.344 706.735 94.48C706.159 93.592 705.871 92.596 705.871 91.492C705.871 90.412 706.123 89.44 706.627 88.576C707.155 87.712 708.007 87.028 709.183 86.524C710.359 86.02 711.919 85.768 713.863 85.768H719.443V88.756H714.187C712.651 88.756 711.619 89.008 711.091 89.512C710.563 89.992 710.299 90.592 710.299 91.312C710.299 92.128 710.623 92.776 711.271 93.256C711.919 93.736 712.819 93.976 713.971 93.976C715.075 93.976 716.059 93.724 716.923 93.22C717.811 92.716 718.447 91.972 718.831 90.988L719.587 93.688C719.155 94.816 718.375 95.692 717.247 96.316C716.143 96.94 714.739 97.252 713.035 97.252ZM737.647 97.252C735.631 97.252 733.831 96.832 732.247 95.992C730.687 95.128 729.463 93.952 728.575 92.464C727.687 90.976 727.243 89.284 727.243 87.388C727.243 85.468 727.687 83.776 728.575 82.312C729.463 80.824 730.687 79.66 732.247 78.82C733.831 77.98 735.631 77.56 737.647 77.56C739.519 77.56 741.163 77.944 742.579 78.712C744.019 79.456 745.111 80.56 745.855 82.024L742.399 84.04C741.823 83.128 741.115 82.456 740.275 82.024C739.459 81.592 738.571 81.376 737.611 81.376C736.507 81.376 735.511 81.616 734.623 82.096C733.735 82.576 733.039 83.272 732.535 84.184C732.031 85.072 731.779 86.14 731.779 87.388C731.779 88.636 732.031 89.716 732.535 90.628C733.039 91.516 733.735 92.2 734.623 92.68C735.511 93.16 736.507 93.4 737.611 93.4C738.571 93.4 739.459 93.184 740.275 92.752C741.115 92.32 741.823 91.648 742.399 90.736L745.855 92.752C745.111 94.192 744.019 95.308 742.579 96.1C741.163 96.868 739.519 97.252 737.647 97.252ZM746.552 96.964L746.768 93.184C746.936 93.208 747.092 93.232 747.236 93.256C747.38 93.28 747.512 93.292 747.632 93.292C748.376 93.292 748.952 93.064 749.36 92.608C749.768 92.152 750.068 91.54 750.26 90.772C750.476 89.98 750.62 89.104 750.692 88.144C750.788 87.16 750.86 86.176 750.908 85.192L751.232 77.776H766.784V97H762.284V80.368L763.328 81.592H754.184L755.156 80.332L754.904 85.408C754.832 87.112 754.688 88.696 754.472 90.16C754.28 91.6 753.968 92.86 753.536 93.94C753.128 95.02 752.552 95.86 751.808 96.46C751.088 97.06 750.164 97.36 749.036 97.36C748.676 97.36 748.28 97.324 747.848 97.252C747.44 97.18 747.008 97.084 746.552 96.964ZM784.508 97V93.112L784.256 92.284V85.48C784.256 84.16 783.86 83.14 783.068 82.42C782.276 81.676 781.076 81.304 779.468 81.304C778.388 81.304 777.32 81.472 776.264 81.808C775.232 82.144 774.356 82.612 773.636 83.212L771.872 79.936C772.904 79.144 774.128 78.556 775.544 78.172C776.984 77.764 778.472 77.56 780.008 77.56C782.792 77.56 784.94 78.232 786.452 79.576C787.988 80.896 788.756 82.948 788.756 85.732V97H784.508ZM778.46 97.252C777.02 97.252 775.76 97.012 774.68 96.532C773.6 96.028 772.76 95.344 772.16 94.48C771.584 93.592 771.296 92.596 771.296 91.492C771.296 90.412 771.548 89.44 772.052 88.576C772.58 87.712 773.432 87.028 774.608 86.524C775.784 86.02 777.344 85.768 779.288 85.768H784.868V88.756H779.612C778.076 88.756 777.044 89.008 776.516 89.512C775.988 89.992 775.724 90.592 775.724 91.312C775.724 92.128 776.048 92.776 776.696 93.256C777.344 93.736 778.244 93.976 779.396 93.976C780.5 93.976 781.484 93.724 782.348 93.22C783.236 92.716 783.872 91.972 784.256 90.988L785.012 93.688C784.58 94.816 783.8 95.692 782.672 96.316C781.568 96.94 780.164 97.252 778.46 97.252ZM817.257 97L811.641 87.784L815.313 85.516L822.621 97H817.257ZM808.005 89.296V85.552H814.449V89.296H808.005ZM815.745 87.928L811.497 87.424L817.329 77.776H822.117L815.745 87.928ZM796.953 97H791.625L798.897 85.516L802.569 87.784L796.953 97ZM809.337 97H804.873V77.776H809.337V97ZM806.205 89.296H799.797V85.552H806.205V89.296ZM798.465 87.928L792.093 77.776H796.881L802.677 87.424L798.465 87.928ZM839.141 94.912V81.592H831.761L831.653 84.688C831.605 85.792 831.533 86.86 831.437 87.892C831.341 88.9 831.185 89.836 830.969 90.7C830.753 91.54 830.441 92.236 830.033 92.788C829.625 93.34 829.085 93.7 828.413 93.868L823.949 93.184C824.669 93.184 825.245 92.956 825.677 92.5C826.133 92.02 826.481 91.372 826.721 90.556C826.985 89.716 827.177 88.768 827.297 87.712C827.417 86.632 827.501 85.516 827.549 84.364L827.801 77.776H843.641V94.912H839.141ZM823.265 101.284V93.184H846.485V101.284H842.273V97H827.441V101.284H823.265ZM862.168 97V93.112L861.916 92.284V85.48C861.916 84.16 861.52 83.14 860.728 82.42C859.936 81.676 858.736 81.304 857.128 81.304C856.048 81.304 854.98 81.472 853.924 81.808C852.892 82.144 852.016 82.612 851.296 83.212L849.532 79.936C850.564 79.144 851.788 78.556 853.204 78.172C854.644 77.764 856.132 77.56 857.668 77.56C860.452 77.56 862.6 78.232 864.112 79.576C865.648 80.896 866.416 82.948 866.416 85.732V97H862.168ZM856.12 97.252C854.68 97.252 853.42 97.012 852.34 96.532C851.26 96.028 850.42 95.344 849.82 94.48C849.244 93.592 848.956 92.596 848.956 91.492C848.956 90.412 849.208 89.44 849.712 88.576C850.24 87.712 851.092 87.028 852.268 86.524C853.444 86.02 855.004 85.768 856.948 85.768H862.528V88.756H857.272C855.736 88.756 854.704 89.008 854.176 89.512C853.648 89.992 853.384 90.592 853.384 91.312C853.384 92.128 853.708 92.776 854.356 93.256C855.004 93.736 855.904 93.976 857.056 93.976C858.16 93.976 859.144 93.724 860.008 93.22C860.896 92.716 861.532 91.972 861.916 90.988L862.672 93.688C862.24 94.816 861.46 95.692 860.332 96.316C859.228 96.94 857.824 97.252 856.12 97.252ZM871.985 97V77.776H876.485V90.448L887.105 77.776H891.209V97H886.709V84.328L876.125 97H871.985ZM881.309 75.508C879.389 75.508 877.913 75.064 876.881 74.176C875.849 73.264 875.321 71.944 875.297 70.216H878.285C878.309 71.08 878.573 71.764 879.077 72.268C879.605 72.772 880.337 73.024 881.273 73.024C882.185 73.024 882.905 72.772 883.433 72.268C883.985 71.764 884.273 71.08 884.297 70.216H887.357C887.333 71.944 886.793 73.264 885.737 74.176C884.705 75.064 883.229 75.508 881.309 75.508ZM901.258 97V80.512L902.302 81.592H894.49V77.776H912.49V81.592H904.714L905.758 80.512V97H901.258ZM923.875 97.252C921.739 97.252 919.867 96.832 918.259 95.992C916.675 95.128 915.439 93.952 914.551 92.464C913.687 90.976 913.255 89.284 913.255 87.388C913.255 85.468 913.675 83.776 914.515 82.312C915.379 80.824 916.555 79.66 918.043 78.82C919.555 77.98 921.271 77.56 923.191 77.56C925.063 77.56 926.731 77.968 928.195 78.784C929.659 79.6 930.811 80.752 931.651 82.24C932.491 83.728 932.911 85.48 932.911 87.496C932.911 87.688 932.899 87.904 932.875 88.144C932.875 88.384 932.863 88.612 932.839 88.828H916.819V85.84H930.463L928.699 86.776C928.723 85.672 928.495 84.7 928.015 83.86C927.535 83.02 926.875 82.36 926.035 81.88C925.219 81.4 924.271 81.16 923.191 81.16C922.087 81.16 921.115 81.4 920.275 81.88C919.459 82.36 918.811 83.032 918.331 83.896C917.875 84.736 917.647 85.732 917.647 86.884V87.604C917.647 88.756 917.911 89.776 918.439 90.664C918.967 91.552 919.711 92.236 920.671 92.716C921.631 93.196 922.735 93.436 923.983 93.436C925.063 93.436 926.035 93.268 926.899 92.932C927.763 92.596 928.531 92.068 929.203 91.348L931.615 94.12C930.751 95.128 929.659 95.908 928.339 96.46C927.043 96.988 925.555 97.252 923.875 97.252ZM946.581 97.252C944.565 97.252 942.765 96.832 941.181 95.992C939.621 95.128 938.397 93.952 937.509 92.464C936.621 90.976 936.177 89.284 936.177 87.388C936.177 85.468 936.621 83.776 937.509 82.312C938.397 80.824 939.621 79.66 941.181 78.82C942.765 77.98 944.565 77.56 946.581 77.56C948.453 77.56 950.097 77.944 951.513 78.712C952.953 79.456 954.045 80.56 954.789 82.024L951.333 84.04C950.757 83.128 950.049 82.456 949.209 82.024C948.393 81.592 947.505 81.376 946.545 81.376C945.441 81.376 944.445 81.616 943.557 82.096C942.669 82.576 941.973 83.272 941.469 84.184C940.965 85.072 940.713 86.14 940.713 87.388C940.713 88.636 940.965 89.716 941.469 90.628C941.973 91.516 942.669 92.2 943.557 92.68C944.445 93.16 945.441 93.4 946.545 93.4C947.505 93.4 948.393 93.184 949.209 92.752C950.049 92.32 950.757 91.648 951.333 90.736L954.789 92.752C954.045 94.192 952.953 95.308 951.513 96.1C950.097 96.868 948.453 97.252 946.581 97.252ZM968.399 84.112C970.871 84.112 972.755 84.664 974.051 85.768C975.347 86.872 975.995 88.432 975.995 90.448C975.995 92.536 975.275 94.168 973.835 95.344C972.395 96.496 970.367 97.06 967.751 97.036L958.751 97V77.776H963.251V84.076L968.399 84.112ZM967.355 93.724C968.675 93.748 969.683 93.472 970.379 92.896C971.075 92.32 971.423 91.48 971.423 90.376C971.423 89.272 971.075 88.48 970.379 88C969.707 87.496 968.699 87.232 967.355 87.208L963.251 87.172V93.688L967.355 93.724ZM999.079 97.36C997.495 97.36 996.079 97.12 994.831 96.64C993.583 96.16 992.503 95.428 991.591 94.444C990.703 93.436 990.019 92.164 989.539 90.628C989.059 89.092 988.819 87.268 988.819 85.156C988.819 83.62 988.951 82.216 989.215 80.944C989.479 79.672 989.875 78.532 990.403 77.524C990.931 76.492 991.591 75.58 992.383 74.788C993.199 73.996 994.147 73.336 995.227 72.808C996.307 72.28 997.531 71.872 998.899 71.584L1007.83 69.676L1008.48 73.708L1000.38 75.364C999.919 75.46 999.367 75.604 998.719 75.796C998.095 75.964 997.447 76.228 996.775 76.588C996.127 76.924 995.515 77.416 994.939 78.064C994.387 78.688 993.931 79.504 993.571 80.512C993.235 81.496 993.067 82.732 993.067 84.22C993.067 84.676 993.079 85.024 993.103 85.264C993.151 85.48 993.187 85.72 993.211 85.984C993.259 86.224 993.283 86.584 993.283 87.064L991.591 85.3C992.071 84.076 992.731 83.032 993.571 82.168C994.435 81.28 995.431 80.608 996.559 80.152C997.711 79.672 998.959 79.432 1000.3 79.432C1002.1 79.432 1003.7 79.804 1005.09 80.548C1006.48 81.292 1007.58 82.336 1008.37 83.68C1009.16 85.024 1009.56 86.548 1009.56 88.252C1009.56 90.028 1009.12 91.6 1008.26 92.968C1007.4 94.336 1006.17 95.416 1004.59 96.208C1003.03 96.976 1001.19 97.36 999.079 97.36ZM999.439 93.724C1000.52 93.724 1001.47 93.496 1002.28 93.04C1003.12 92.56 1003.77 91.912 1004.23 91.096C1004.71 90.28 1004.95 89.368 1004.95 88.36C1004.95 87.352 1004.71 86.476 1004.23 85.732C1003.77 84.964 1003.12 84.352 1002.28 83.896C1001.47 83.44 1000.5 83.212 999.367 83.212C998.287 83.212 997.315 83.428 996.451 83.86C995.611 84.292 994.951 84.892 994.471 85.66C994.015 86.404 993.787 87.268 993.787 88.252C993.787 89.26 994.027 90.184 994.507 91.024C994.987 91.864 995.647 92.524 996.487 93.004C997.351 93.484 998.335 93.724 999.439 93.724ZM1022.48 97.252C1020.51 97.252 1018.76 96.832 1017.22 95.992C1015.69 95.128 1014.47 93.952 1013.59 92.464C1012.7 90.976 1012.25 89.284 1012.25 87.388C1012.25 85.468 1012.7 83.776 1013.59 82.312C1014.47 80.824 1015.69 79.66 1017.22 78.82C1018.76 77.98 1020.51 77.56 1022.48 77.56C1024.47 77.56 1026.23 77.98 1027.77 78.82C1029.33 79.66 1030.54 80.812 1031.41 82.276C1032.29 83.74 1032.74 85.444 1032.74 87.388C1032.74 89.284 1032.29 90.976 1031.41 92.464C1030.54 93.952 1029.33 95.128 1027.77 95.992C1026.23 96.832 1024.47 97.252 1022.48 97.252ZM1022.48 93.4C1023.58 93.4 1024.57 93.16 1025.43 92.68C1026.29 92.2 1026.97 91.504 1027.45 90.592C1027.95 89.68 1028.2 88.612 1028.2 87.388C1028.2 86.14 1027.95 85.072 1027.45 84.184C1026.97 83.272 1026.29 82.576 1025.43 82.096C1024.57 81.616 1023.59 81.376 1022.51 81.376C1021.41 81.376 1020.43 81.616 1019.56 82.096C1018.72 82.576 1018.05 83.272 1017.55 84.184C1017.04 85.072 1016.79 86.14 1016.79 87.388C1016.79 88.612 1017.04 89.68 1017.55 90.592C1018.05 91.504 1018.72 92.2 1019.56 92.68C1020.43 93.16 1021.4 93.4 1022.48 93.4ZM1037.18 97V77.776H1041.68V85.588H1051.37V77.776H1055.87V97H1051.37V89.404H1041.68V97H1037.18ZM1063.63 104.236C1062.69 104.236 1061.76 104.08 1060.82 103.768C1059.88 103.456 1059.1 103.024 1058.48 102.472L1060.28 99.16C1060.74 99.568 1061.25 99.892 1061.83 100.132C1062.4 100.372 1062.99 100.492 1063.59 100.492C1064.41 100.492 1065.07 100.288 1065.57 99.88C1066.08 99.472 1066.54 98.788 1066.98 97.828L1068.09 95.308L1068.45 94.768L1075.72 77.776H1080.04L1071.04 98.548C1070.44 99.988 1069.77 101.128 1069.03 101.968C1068.31 102.808 1067.49 103.396 1066.58 103.732C1065.69 104.068 1064.71 104.236 1063.63 104.236ZM1067.59 97.684L1058.91 77.776H1063.59L1070.65 94.372L1067.59 97.684ZM1091.39 97.252C1089.37 97.252 1087.57 96.832 1085.99 95.992C1084.43 95.128 1083.21 93.952 1082.32 92.464C1081.43 90.976 1080.99 89.284 1080.99 87.388C1080.99 85.468 1081.43 83.776 1082.32 82.312C1083.21 80.824 1084.43 79.66 1085.99 78.82C1087.57 77.98 1089.37 77.56 1091.39 77.56C1093.26 77.56 1094.91 77.944 1096.32 78.712C1097.76 79.456 1098.85 80.56 1099.6 82.024L1096.14 84.04C1095.57 83.128 1094.86 82.456 1094.02 82.024C1093.2 81.592 1092.31 81.376 1091.35 81.376C1090.25 81.376 1089.25 81.616 1088.37 82.096C1087.48 82.576 1086.78 83.272 1086.28 84.184C1085.77 85.072 1085.52 86.14 1085.52 87.388C1085.52 88.636 1085.77 89.716 1086.28 90.628C1086.78 91.516 1087.48 92.2 1088.37 92.68C1089.25 93.16 1090.25 93.4 1091.35 93.4C1092.31 93.4 1093.2 93.184 1094.02 92.752C1094.86 92.32 1095.57 91.648 1096.14 90.736L1099.6 92.752C1098.85 94.192 1097.76 95.308 1096.32 96.1C1094.91 96.868 1093.26 97.252 1091.39 97.252ZM1115.22 97V93.112L1114.97 92.284V85.48C1114.97 84.16 1114.58 83.14 1113.78 82.42C1112.99 81.676 1111.79 81.304 1110.18 81.304C1109.1 81.304 1108.04 81.472 1106.98 81.808C1105.95 82.144 1105.07 82.612 1104.35 83.212L1102.59 79.936C1103.62 79.144 1104.84 78.556 1106.26 78.172C1107.7 77.764 1109.19 77.56 1110.72 77.56C1113.51 77.56 1115.66 78.232 1117.17 79.576C1118.7 80.896 1119.47 82.948 1119.47 85.732V97H1115.22ZM1109.18 97.252C1107.74 97.252 1106.48 97.012 1105.4 96.532C1104.32 96.028 1103.48 95.344 1102.88 94.48C1102.3 93.592 1102.01 92.596 1102.01 91.492C1102.01 90.412 1102.26 89.44 1102.77 88.576C1103.3 87.712 1104.15 87.028 1105.32 86.524C1106.5 86.02 1108.06 85.768 1110 85.768H1115.58V88.756H1110.33C1108.79 88.756 1107.76 89.008 1107.23 89.512C1106.7 89.992 1106.44 90.592 1106.44 91.312C1106.44 92.128 1106.76 92.776 1107.41 93.256C1108.06 93.736 1108.96 93.976 1110.11 93.976C1111.22 93.976 1112.2 93.724 1113.06 93.22C1113.95 92.716 1114.59 91.972 1114.97 90.988L1115.73 93.688C1115.3 94.816 1114.52 95.692 1113.39 96.316C1112.28 96.94 1110.88 97.252 1109.18 97.252ZM1125.04 97V77.776H1129.76L1137.5 91.42H1135.62L1143.76 77.776H1147.97L1148.01 97H1143.94V82.6L1144.66 83.068L1137.46 94.984H1135.52L1128.28 82.744L1129.14 82.528V97H1125.04ZM1154.04 97V77.776H1158.54V90.448L1169.16 77.776H1173.27V97H1168.77V84.328L1158.18 97H1154.04ZM1178.06 102.436L1180.15 94.48L1180.76 97.144C1179.92 97.144 1179.21 96.892 1178.64 96.388C1178.08 95.86 1177.81 95.152 1177.81 94.264C1177.81 93.352 1178.08 92.632 1178.64 92.104C1179.21 91.552 1179.91 91.276 1180.72 91.276C1181.56 91.276 1182.26 91.552 1182.81 92.104C1183.36 92.656 1183.64 93.376 1183.64 94.264C1183.64 94.504 1183.62 94.768 1183.57 95.056C1183.52 95.32 1183.44 95.632 1183.32 95.992C1183.22 96.352 1183.05 96.808 1182.81 97.36L1180.98 102.436H1178.06ZM68.812 141L61.864 131.784L65.536 129.516L74.104 141H68.812ZM55.024 141V121.776H59.524V141H55.024ZM58.192 133.296V129.552H64.708V133.296H58.192ZM65.968 131.928L61.756 131.424L68.812 121.776H73.636L65.968 131.928ZM85.2131 141.252C83.2451 141.252 81.4931 140.832 79.9571 139.992C78.4211 139.128 77.2091 137.952 76.3211 136.464C75.4331 134.976 74.9891 133.284 74.9891 131.388C74.9891 129.468 75.4331 127.776 76.3211 126.312C77.2091 124.824 78.4211 123.66 79.9571 122.82C81.4931 121.98 83.2451 121.56 85.2131 121.56C87.2051 121.56 88.9691 121.98 90.5051 122.82C92.0651 123.66 93.2771 124.812 94.1411 126.276C95.0291 127.74 95.4731 129.444 95.4731 131.388C95.4731 133.284 95.0291 134.976 94.1411 136.464C93.2771 137.952 92.0651 139.128 90.5051 139.992C88.9691 140.832 87.2051 141.252 85.2131 141.252ZM85.2131 137.4C86.3171 137.4 87.3011 137.16 88.1651 136.68C89.0291 136.2 89.7011 135.504 90.1811 134.592C90.6851 133.68 90.9371 132.612 90.9371 131.388C90.9371 130.14 90.6851 129.072 90.1811 128.184C89.7011 127.272 89.0291 126.576 88.1651 126.096C87.3011 125.616 86.3291 125.376 85.2491 125.376C84.1451 125.376 83.1611 125.616 82.2971 126.096C81.4571 126.576 80.7851 127.272 80.2811 128.184C79.7771 129.072 79.5251 130.14 79.5251 131.388C79.5251 132.612 79.7771 133.68 80.2811 134.592C80.7851 135.504 81.4571 136.2 82.2971 136.68C83.1611 137.16 84.1331 137.4 85.2131 137.4ZM103.211 141V124.512L104.255 125.592H96.4434V121.776H114.443V125.592H106.667L107.711 124.512V141H103.211ZM125.432 141.252C123.464 141.252 121.712 140.832 120.176 139.992C118.64 139.128 117.428 137.952 116.54 136.464C115.652 134.976 115.208 133.284 115.208 131.388C115.208 129.468 115.652 127.776 116.54 126.312C117.428 124.824 118.64 123.66 120.176 122.82C121.712 121.98 123.464 121.56 125.432 121.56C127.424 121.56 129.188 121.98 130.724 122.82C132.284 123.66 133.496 124.812 134.36 126.276C135.248 127.74 135.692 129.444 135.692 131.388C135.692 133.284 135.248 134.976 134.36 136.464C133.496 137.952 132.284 139.128 130.724 139.992C129.188 140.832 127.424 141.252 125.432 141.252ZM125.432 137.4C126.536 137.4 127.52 137.16 128.384 136.68C129.248 136.2 129.92 135.504 130.4 134.592C130.904 133.68 131.156 132.612 131.156 131.388C131.156 130.14 130.904 129.072 130.4 128.184C129.92 127.272 129.248 126.576 128.384 126.096C127.52 125.616 126.548 125.376 125.468 125.376C124.364 125.376 123.38 125.616 122.516 126.096C121.676 126.576 121.004 127.272 120.5 128.184C119.996 129.072 119.744 130.14 119.744 131.388C119.744 132.612 119.996 133.68 120.5 134.592C121.004 135.504 121.676 136.2 122.516 136.68C123.38 137.16 124.352 137.4 125.432 137.4ZM150.793 141.252C149.233 141.252 147.805 140.892 146.509 140.172C145.237 139.452 144.217 138.372 143.449 136.932C142.705 135.468 142.333 133.62 142.333 131.388C142.333 129.132 142.693 127.284 143.413 125.844C144.157 124.404 145.165 123.336 146.437 122.64C147.709 121.92 149.161 121.56 150.793 121.56C152.689 121.56 154.357 121.968 155.797 122.784C157.261 123.6 158.413 124.74 159.253 126.204C160.117 127.668 160.549 129.396 160.549 131.388C160.549 133.38 160.117 135.12 159.253 136.608C158.413 138.072 157.261 139.212 155.797 140.028C154.357 140.844 152.689 141.252 150.793 141.252ZM140.137 147.984V121.776H144.421V126.312L144.277 131.424L144.637 136.536V147.984H140.137ZM150.289 137.4C151.369 137.4 152.329 137.16 153.169 136.68C154.033 136.2 154.717 135.504 155.221 134.592C155.725 133.68 155.977 132.612 155.977 131.388C155.977 130.14 155.725 129.072 155.221 128.184C154.717 127.272 154.033 126.576 153.169 126.096C152.329 125.616 151.369 125.376 150.289 125.376C149.209 125.376 148.237 125.616 147.373 126.096C146.509 126.576 145.825 127.272 145.321 128.184C144.817 129.072 144.565 130.14 144.565 131.388C144.565 132.612 144.817 133.68 145.321 134.592C145.825 135.504 146.509 136.2 147.373 136.68C148.237 137.16 149.209 137.4 150.289 137.4ZM184.432 141V121.776H188.932V141H184.432ZM174.388 128.112C176.86 128.112 178.732 128.664 180.004 129.768C181.3 130.872 181.948 132.432 181.948 134.448C181.948 136.536 181.228 138.168 179.788 139.344C178.372 140.496 176.356 141.06 173.74 141.036L165.028 141V121.776H169.528V128.076L174.388 128.112ZM173.344 137.724C174.664 137.748 175.672 137.472 176.368 136.896C177.064 136.32 177.412 135.48 177.412 134.376C177.412 133.272 177.064 132.48 176.368 132C175.696 131.496 174.688 131.232 173.344 131.208L169.528 131.172V137.688L173.344 137.724ZM203.945 141.252C201.809 141.252 199.937 140.832 198.329 139.992C196.745 139.128 195.509 137.952 194.621 136.464C193.757 134.976 193.325 133.284 193.325 131.388C193.325 129.468 193.745 127.776 194.585 126.312C195.449 124.824 196.625 123.66 198.113 122.82C199.625 121.98 201.341 121.56 203.261 121.56C205.133 121.56 206.801 121.968 208.265 122.784C209.729 123.6 210.881 124.752 211.721 126.24C212.561 127.728 212.981 129.48 212.981 131.496C212.981 131.688 212.969 131.904 212.945 132.144C212.945 132.384 212.933 132.612 212.909 132.828H196.889V129.84H210.533L208.769 130.776C208.793 129.672 208.565 128.7 208.085 127.86C207.605 127.02 206.945 126.36 206.105 125.88C205.289 125.4 204.341 125.16 203.261 125.16C202.157 125.16 201.185 125.4 200.345 125.88C199.529 126.36 198.881 127.032 198.401 127.896C197.945 128.736 197.717 129.732 197.717 130.884V131.604C197.717 132.756 197.981 133.776 198.509 134.664C199.037 135.552 199.781 136.236 200.741 136.716C201.701 137.196 202.805 137.436 204.053 137.436C205.133 137.436 206.105 137.268 206.969 136.932C207.833 136.596 208.601 136.068 209.273 135.348L211.685 138.12C210.821 139.128 209.729 139.908 208.409 140.46C207.113 140.988 205.625 141.252 203.945 141.252ZM227.852 141V121.776H232.568L240.308 135.42H238.436L246.572 121.776H250.784L250.82 141H246.752V126.6L247.472 127.068L240.272 138.984H238.328L231.092 126.744L231.956 126.528V141H227.852ZM276.26 141V121.776H280.76V141H276.26ZM266.216 128.112C268.688 128.112 270.56 128.664 271.832 129.768C273.128 130.872 273.776 132.432 273.776 134.448C273.776 136.536 273.056 138.168 271.616 139.344C270.2 140.496 268.184 141.06 265.568 141.036L256.856 141V121.776H261.356V128.076L266.216 128.112ZM265.172 137.724C266.492 137.748 267.5 137.472 268.196 136.896C268.892 136.32 269.24 135.48 269.24 134.376C269.24 133.272 268.892 132.48 268.196 132C267.524 131.496 266.516 131.232 265.172 131.208L261.356 131.172V137.688L265.172 137.724ZM296.758 141V121.776H315.19V141H310.726V124.548L311.77 125.592H300.214L301.258 124.548V141H296.758ZM331.918 141.252C330.358 141.252 328.93 140.892 327.634 140.172C326.362 139.452 325.342 138.372 324.574 136.932C323.83 135.468 323.458 133.62 323.458 131.388C323.458 129.132 323.818 127.284 324.538 125.844C325.282 124.404 326.29 123.336 327.562 122.64C328.834 121.92 330.286 121.56 331.918 121.56C333.814 121.56 335.482 121.968 336.922 122.784C338.386 123.6 339.538 124.74 340.378 126.204C341.242 127.668 341.674 129.396 341.674 131.388C341.674 133.38 341.242 135.12 340.378 136.608C339.538 138.072 338.386 139.212 336.922 140.028C335.482 140.844 333.814 141.252 331.918 141.252ZM321.262 147.984V121.776H325.546V126.312L325.402 131.424L325.762 136.536V147.984H321.262ZM331.414 137.4C332.494 137.4 333.454 137.16 334.294 136.68C335.158 136.2 335.842 135.504 336.346 134.592C336.85 133.68 337.102 132.612 337.102 131.388C337.102 130.14 336.85 129.072 336.346 128.184C335.842 127.272 335.158 126.576 334.294 126.096C333.454 125.616 332.494 125.376 331.414 125.376C330.334 125.376 329.362 125.616 328.498 126.096C327.634 126.576 326.95 127.272 326.446 128.184C325.942 129.072 325.69 130.14 325.69 131.388C325.69 132.612 325.942 133.68 326.446 134.592C326.95 135.504 327.634 136.2 328.498 136.68C329.362 137.16 330.334 137.4 331.414 137.4ZM355.117 141.252C352.981 141.252 351.109 140.832 349.501 139.992C347.917 139.128 346.681 137.952 345.793 136.464C344.929 134.976 344.497 133.284 344.497 131.388C344.497 129.468 344.917 127.776 345.757 126.312C346.621 124.824 347.797 123.66 349.285 122.82C350.797 121.98 352.513 121.56 354.433 121.56C356.305 121.56 357.973 121.968 359.437 122.784C360.901 123.6 362.053 124.752 362.893 126.24C363.733 127.728 364.153 129.48 364.153 131.496C364.153 131.688 364.141 131.904 364.117 132.144C364.117 132.384 364.105 132.612 364.081 132.828H348.061V129.84H361.705L359.941 130.776C359.965 129.672 359.737 128.7 359.257 127.86C358.777 127.02 358.117 126.36 357.277 125.88C356.461 125.4 355.513 125.16 354.433 125.16C353.329 125.16 352.357 125.4 351.517 125.88C350.701 126.36 350.053 127.032 349.573 127.896C349.117 128.736 348.889 129.732 348.889 130.884V131.604C348.889 132.756 349.153 133.776 349.681 134.664C350.209 135.552 350.953 136.236 351.913 136.716C352.873 137.196 353.977 137.436 355.225 137.436C356.305 137.436 357.277 137.268 358.141 136.932C359.005 136.596 359.773 136.068 360.445 135.348L362.857 138.12C361.993 139.128 360.901 139.908 359.581 140.46C358.285 140.988 356.797 141.252 355.117 141.252ZM382.005 138.912V125.592H374.625L374.517 128.688C374.469 129.792 374.397 130.86 374.301 131.892C374.205 132.9 374.049 133.836 373.833 134.7C373.617 135.54 373.305 136.236 372.897 136.788C372.489 137.34 371.949 137.7 371.277 137.868L366.813 137.184C367.533 137.184 368.109 136.956 368.541 136.5C368.997 136.02 369.345 135.372 369.585 134.556C369.849 133.716 370.041 132.768 370.161 131.712C370.281 130.632 370.365 129.516 370.413 128.364L370.665 121.776H386.505V138.912H382.005ZM366.129 145.284V137.184H389.349V145.284H385.137V141H370.305V145.284H366.129ZM390.56 140.964L390.776 137.184C390.944 137.208 391.1 137.232 391.244 137.256C391.388 137.28 391.52 137.292 391.64 137.292C392.384 137.292 392.96 137.064 393.368 136.608C393.776 136.152 394.076 135.54 394.268 134.772C394.484 133.98 394.628 133.104 394.7 132.144C394.796 131.16 394.868 130.176 394.916 129.192L395.24 121.776H410.792V141H406.292V124.368L407.336 125.592H398.192L399.164 124.332L398.912 129.408C398.84 131.112 398.696 132.696 398.48 134.16C398.288 135.6 397.976 136.86 397.544 137.94C397.136 139.02 396.56 139.86 395.816 140.46C395.096 141.06 394.172 141.36 393.044 141.36C392.684 141.36 392.288 141.324 391.856 141.252C391.448 141.18 391.016 141.084 390.56 140.964ZM428.516 141V137.112L428.264 136.284V129.48C428.264 128.16 427.868 127.14 427.076 126.42C426.284 125.676 425.084 125.304 423.476 125.304C422.396 125.304 421.328 125.472 420.272 125.808C419.24 126.144 418.364 126.612 417.644 127.212L415.88 123.936C416.912 123.144 418.136 122.556 419.552 122.172C420.992 121.764 422.48 121.56 424.016 121.56C426.8 121.56 428.948 122.232 430.46 123.576C431.996 124.896 432.764 126.948 432.764 129.732V141H428.516ZM422.468 141.252C421.028 141.252 419.768 141.012 418.688 140.532C417.608 140.028 416.768 139.344 416.168 138.48C415.592 137.592 415.304 136.596 415.304 135.492C415.304 134.412 415.556 133.44 416.06 132.576C416.588 131.712 417.44 131.028 418.616 130.524C419.792 130.02 421.352 129.768 423.296 129.768H428.876V132.756H423.62C422.084 132.756 421.052 133.008 420.524 133.512C419.996 133.992 419.732 134.592 419.732 135.312C419.732 136.128 420.056 136.776 420.704 137.256C421.352 137.736 422.252 137.976 423.404 137.976C424.508 137.976 425.492 137.724 426.356 137.22C427.244 136.716 427.88 135.972 428.264 134.988L429.02 137.688C428.588 138.816 427.808 139.692 426.68 140.316C425.576 140.94 424.172 141.252 422.468 141.252ZM438.333 141V121.776H453.093V125.592H441.789L442.833 124.584V141H438.333ZM468.032 141V137.112L467.78 136.284V129.48C467.78 128.16 467.384 127.14 466.592 126.42C465.8 125.676 464.6 125.304 462.992 125.304C461.912 125.304 460.844 125.472 459.788 125.808C458.756 126.144 457.88 126.612 457.16 127.212L455.396 123.936C456.428 123.144 457.652 122.556 459.068 122.172C460.508 121.764 461.996 121.56 463.532 121.56C466.316 121.56 468.464 122.232 469.976 123.576C471.512 124.896 472.28 126.948 472.28 129.732V141H468.032ZM461.984 141.252C460.544 141.252 459.284 141.012 458.204 140.532C457.124 140.028 456.284 139.344 455.684 138.48C455.108 137.592 454.82 136.596 454.82 135.492C454.82 134.412 455.072 133.44 455.576 132.576C456.104 131.712 456.956 131.028 458.132 130.524C459.308 130.02 460.868 129.768 462.812 129.768H468.392V132.756H463.136C461.6 132.756 460.568 133.008 460.04 133.512C459.512 133.992 459.248 134.592 459.248 135.312C459.248 136.128 459.572 136.776 460.22 137.256C460.868 137.736 461.768 137.976 462.92 137.976C464.024 137.976 465.008 137.724 465.872 137.22C466.76 136.716 467.396 135.972 467.78 134.988L468.536 137.688C468.104 138.816 467.324 139.692 466.196 140.316C465.092 140.94 463.688 141.252 461.984 141.252ZM486.812 141.252C484.676 141.252 482.804 140.832 481.196 139.992C479.612 139.128 478.376 137.952 477.488 136.464C476.624 134.976 476.192 133.284 476.192 131.388C476.192 129.468 476.612 127.776 477.452 126.312C478.316 124.824 479.492 123.66 480.98 122.82C482.492 121.98 484.208 121.56 486.128 121.56C488 121.56 489.668 121.968 491.132 122.784C492.596 123.6 493.748 124.752 494.588 126.24C495.428 127.728 495.848 129.48 495.848 131.496C495.848 131.688 495.836 131.904 495.812 132.144C495.812 132.384 495.8 132.612 495.776 132.828H479.756V129.84H493.4L491.636 130.776C491.66 129.672 491.432 128.7 490.952 127.86C490.472 127.02 489.812 126.36 488.972 125.88C488.156 125.4 487.208 125.16 486.128 125.16C485.024 125.16 484.052 125.4 483.212 125.88C482.396 126.36 481.748 127.032 481.268 127.896C480.812 128.736 480.584 129.732 480.584 130.884V131.604C480.584 132.756 480.848 133.776 481.376 134.664C481.904 135.552 482.648 136.236 483.608 136.716C484.568 137.196 485.672 137.436 486.92 137.436C488 137.436 488.972 137.268 489.836 136.932C490.7 136.596 491.468 136.068 492.14 135.348L494.552 138.12C493.688 139.128 492.596 139.908 491.276 140.46C489.98 140.988 488.492 141.252 486.812 141.252ZM500.77 141V121.776H505.486L513.226 135.42H511.354L519.49 121.776H523.702L523.738 141H519.67V126.6L520.39 127.068L513.19 138.984H511.246L504.01 126.744L504.874 126.528V141H500.77ZM539.723 141V121.776H549.119C551.447 121.776 553.271 122.208 554.591 123.072C555.935 123.936 556.607 125.16 556.607 126.744C556.607 128.304 555.983 129.528 554.735 130.416C553.487 131.28 551.831 131.712 549.767 131.712L550.307 130.596C552.635 130.596 554.363 131.028 555.491 131.892C556.643 132.732 557.219 133.968 557.219 135.6C557.219 137.304 556.583 138.636 555.311 139.596C554.039 140.532 552.107 141 549.515 141H539.723ZM544.007 137.724H549.155C550.379 137.724 551.303 137.532 551.927 137.148C552.551 136.74 552.863 136.128 552.863 135.312C552.863 134.448 552.575 133.812 551.999 133.404C551.423 132.996 550.523 132.792 549.299 132.792H544.007V137.724ZM544.007 129.804H548.723C549.875 129.804 550.739 129.6 551.315 129.192C551.915 128.76 552.215 128.16 552.215 127.392C552.215 126.6 551.915 126.012 551.315 125.628C550.739 125.244 549.875 125.052 548.723 125.052H544.007V129.804ZM573.676 141V137.112L573.424 136.284V129.48C573.424 128.16 573.028 127.14 572.236 126.42C571.444 125.676 570.244 125.304 568.636 125.304C567.556 125.304 566.488 125.472 565.432 125.808C564.4 126.144 563.524 126.612 562.804 127.212L561.04 123.936C562.072 123.144 563.296 122.556 564.712 122.172C566.152 121.764 567.64 121.56 569.176 121.56C571.96 121.56 574.108 122.232 575.62 123.576C577.156 124.896 577.924 126.948 577.924 129.732V141H573.676ZM567.628 141.252C566.188 141.252 564.928 141.012 563.848 140.532C562.768 140.028 561.928 139.344 561.328 138.48C560.752 137.592 560.464 136.596 560.464 135.492C560.464 134.412 560.716 133.44 561.22 132.576C561.748 131.712 562.6 131.028 563.776 130.524C564.952 130.02 566.512 129.768 568.456 129.768H574.036V132.756H568.78C567.244 132.756 566.212 133.008 565.684 133.512C565.156 133.992 564.892 134.592 564.892 135.312C564.892 136.128 565.216 136.776 565.864 137.256C566.512 137.736 567.412 137.976 568.564 137.976C569.668 137.976 570.652 137.724 571.516 137.22C572.404 136.716 573.04 135.972 573.424 134.988L574.18 137.688C573.748 138.816 572.968 139.692 571.84 140.316C570.736 140.94 569.332 141.252 567.628 141.252ZM583.493 141V121.776H588.209L595.949 135.42H594.077L602.213 121.776H606.425L606.461 141H602.393V126.6L603.113 127.068L595.913 138.984H593.969L586.733 126.744L587.597 126.528V141H583.493ZM622.446 141V121.776H631.842C634.17 121.776 635.994 122.208 637.314 123.072C638.658 123.936 639.33 125.16 639.33 126.744C639.33 128.304 638.706 129.528 637.458 130.416C636.21 131.28 634.554 131.712 632.49 131.712L633.03 130.596C635.358 130.596 637.086 131.028 638.214 131.892C639.366 132.732 639.942 133.968 639.942 135.6C639.942 137.304 639.306 138.636 638.034 139.596C636.762 140.532 634.83 141 632.238 141H622.446ZM626.73 137.724H631.878C633.102 137.724 634.026 137.532 634.65 137.148C635.274 136.74 635.586 136.128 635.586 135.312C635.586 134.448 635.298 133.812 634.722 133.404C634.146 132.996 633.246 132.792 632.022 132.792H626.73V137.724ZM626.73 129.804H631.446C632.598 129.804 633.462 129.6 634.038 129.192C634.638 128.76 634.938 128.16 634.938 127.392C634.938 126.6 634.638 126.012 634.038 125.628C633.462 125.244 632.598 125.052 631.446 125.052H626.73V129.804ZM668.472 141L661.524 131.784L665.196 129.516L673.764 141H668.472ZM654.684 141V121.776H659.184V141H654.684ZM657.852 133.296V129.552H664.368V133.296H657.852ZM665.628 131.928L661.416 131.424L668.472 121.776H673.296L665.628 131.928ZM688.251 141V137.112L687.999 136.284V129.48C687.999 128.16 687.603 127.14 686.811 126.42C686.019 125.676 684.819 125.304 683.211 125.304C682.131 125.304 681.063 125.472 680.007 125.808C678.975 126.144 678.099 126.612 677.379 127.212L675.615 123.936C676.647 123.144 677.871 122.556 679.287 122.172C680.727 121.764 682.215 121.56 683.751 121.56C686.535 121.56 688.683 122.232 690.195 123.576C691.731 124.896 692.499 126.948 692.499 129.732V141H688.251ZM682.203 141.252C680.763 141.252 679.503 141.012 678.423 140.532C677.343 140.028 676.503 139.344 675.903 138.48C675.327 137.592 675.039 136.596 675.039 135.492C675.039 134.412 675.291 133.44 675.795 132.576C676.323 131.712 677.175 131.028 678.351 130.524C679.527 130.02 681.087 129.768 683.031 129.768H688.611V132.756H683.355C681.819 132.756 680.787 133.008 680.259 133.512C679.731 133.992 679.467 134.592 679.467 135.312C679.467 136.128 679.791 136.776 680.439 137.256C681.087 137.736 681.987 137.976 683.139 137.976C684.243 137.976 685.227 137.724 686.091 137.22C686.979 136.716 687.615 135.972 687.999 134.988L688.755 137.688C688.323 138.816 687.543 139.692 686.415 140.316C685.311 140.94 683.907 141.252 682.203 141.252ZM710.199 133.404C709.287 133.836 708.315 134.196 707.283 134.484C706.275 134.748 705.207 134.88 704.079 134.88C701.655 134.88 699.771 134.316 698.427 133.188C697.083 132.06 696.411 130.308 696.411 127.932V121.776H700.911V127.644C700.911 128.916 701.271 129.84 701.991 130.416C702.735 130.992 703.755 131.28 705.051 131.28C705.915 131.28 706.779 131.172 707.643 130.956C708.507 130.74 709.359 130.44 710.199 130.056V133.404ZM709.875 141V121.776H714.375V141H709.875ZM729.39 141.252C727.254 141.252 725.382 140.832 723.774 139.992C722.19 139.128 720.954 137.952 720.066 136.464C719.202 134.976 718.77 133.284 718.77 131.388C718.77 129.468 719.19 127.776 720.03 126.312C720.894 124.824 722.07 123.66 723.558 122.82C725.07 121.98 726.786 121.56 728.706 121.56C730.578 121.56 732.246 121.968 733.71 122.784C735.174 123.6 736.326 124.752 737.166 126.24C738.006 127.728 738.426 129.48 738.426 131.496C738.426 131.688 738.414 131.904 738.39 132.144C738.39 132.384 738.378 132.612 738.354 132.828H722.334V129.84H735.978L734.214 130.776C734.238 129.672 734.01 128.7 733.53 127.86C733.05 127.02 732.39 126.36 731.55 125.88C730.734 125.4 729.786 125.16 728.706 125.16C727.602 125.16 726.63 125.4 725.79 125.88C724.974 126.36 724.326 127.032 723.846 127.896C723.39 128.736 723.162 129.732 723.162 130.884V131.604C723.162 132.756 723.426 133.776 723.954 134.664C724.482 135.552 725.226 136.236 726.186 136.716C727.146 137.196 728.25 137.436 729.498 137.436C730.578 137.436 731.55 137.268 732.414 136.932C733.278 136.596 734.046 136.068 734.718 135.348L737.13 138.12C736.266 139.128 735.174 139.908 733.854 140.46C732.558 140.988 731.07 141.252 729.39 141.252ZM752.096 141.252C750.08 141.252 748.28 140.832 746.696 139.992C745.136 139.128 743.912 137.952 743.024 136.464C742.136 134.976 741.692 133.284 741.692 131.388C741.692 129.468 742.136 127.776 743.024 126.312C743.912 124.824 745.136 123.66 746.696 122.82C748.28 121.98 750.08 121.56 752.096 121.56C753.968 121.56 755.612 121.944 757.028 122.712C758.468 123.456 759.56 124.56 760.304 126.024L756.848 128.04C756.272 127.128 755.564 126.456 754.724 126.024C753.908 125.592 753.02 125.376 752.06 125.376C750.956 125.376 749.96 125.616 749.072 126.096C748.184 126.576 747.488 127.272 746.984 128.184C746.48 129.072 746.228 130.14 746.228 131.388C746.228 132.636 746.48 133.716 746.984 134.628C747.488 135.516 748.184 136.2 749.072 136.68C749.96 137.16 750.956 137.4 752.06 137.4C753.02 137.4 753.908 137.184 754.724 136.752C755.564 136.32 756.272 135.648 756.848 134.736L760.304 136.752C759.56 138.192 758.468 139.308 757.028 140.1C755.612 140.868 753.968 141.252 752.096 141.252ZM768.122 141V124.512L769.166 125.592H761.354V121.776H779.354V125.592H771.578L772.622 124.512V141H768.122ZM782.618 141V121.776H792.014C794.342 121.776 796.166 122.208 797.486 123.072C798.83 123.936 799.502 125.16 799.502 126.744C799.502 128.304 798.878 129.528 797.63 130.416C796.382 131.28 794.726 131.712 792.662 131.712L793.202 130.596C795.53 130.596 797.258 131.028 798.386 131.892C799.538 132.732 800.114 133.968 800.114 135.6C800.114 137.304 799.478 138.636 798.206 139.596C796.934 140.532 795.002 141 792.41 141H782.618ZM786.902 137.724H792.05C793.274 137.724 794.198 137.532 794.822 137.148C795.446 136.74 795.758 136.128 795.758 135.312C795.758 134.448 795.47 133.812 794.894 133.404C794.318 132.996 793.418 132.792 792.194 132.792H786.902V137.724ZM786.902 129.804H791.618C792.77 129.804 793.634 129.6 794.21 129.192C794.81 128.76 795.11 128.16 795.11 127.392C795.11 126.6 794.81 126.012 794.21 125.628C793.634 125.244 792.77 125.052 791.618 125.052H786.902V129.804ZM813.871 141.252C811.735 141.252 809.863 140.832 808.255 139.992C806.671 139.128 805.435 137.952 804.547 136.464C803.683 134.976 803.251 133.284 803.251 131.388C803.251 129.468 803.671 127.776 804.511 126.312C805.375 124.824 806.551 123.66 808.039 122.82C809.551 121.98 811.267 121.56 813.187 121.56C815.059 121.56 816.727 121.968 818.191 122.784C819.655 123.6 820.807 124.752 821.647 126.24C822.487 127.728 822.907 129.48 822.907 131.496C822.907 131.688 822.895 131.904 822.871 132.144C822.871 132.384 822.859 132.612 822.835 132.828H806.815V129.84H820.459L818.695 130.776C818.719 129.672 818.491 128.7 818.011 127.86C817.531 127.02 816.871 126.36 816.031 125.88C815.215 125.4 814.267 125.16 813.187 125.16C812.083 125.16 811.111 125.4 810.271 125.88C809.455 126.36 808.807 127.032 808.327 127.896C807.871 128.736 807.643 129.732 807.643 130.884V131.604C807.643 132.756 807.907 133.776 808.435 134.664C808.963 135.552 809.707 136.236 810.667 136.716C811.627 137.196 812.731 137.436 813.979 137.436C815.059 137.436 816.031 137.268 816.895 136.932C817.759 136.596 818.527 136.068 819.199 135.348L821.611 138.12C820.747 139.128 819.655 139.908 818.335 140.46C817.039 140.988 815.551 141.252 813.871 141.252ZM846.958 141.36C845.374 141.36 843.958 141.12 842.71 140.64C841.462 140.16 840.382 139.428 839.47 138.444C838.582 137.436 837.898 136.164 837.418 134.628C836.938 133.092 836.698 131.268 836.698 129.156C836.698 127.62 836.83 126.216 837.094 124.944C837.358 123.672 837.754 122.532 838.282 121.524C838.81 120.492 839.47 119.58 840.262 118.788C841.078 117.996 842.026 117.336 843.106 116.808C844.186 116.28 845.41 115.872 846.778 115.584L855.706 113.676L856.354 117.708L848.254 119.364C847.798 119.46 847.246 119.604 846.598 119.796C845.974 119.964 845.326 120.228 844.654 120.588C844.006 120.924 843.394 121.416 842.818 122.064C842.266 122.688 841.81 123.504 841.45 124.512C841.114 125.496 840.946 126.732 840.946 128.22C840.946 128.676 840.958 129.024 840.982 129.264C841.03 129.48 841.066 129.72 841.09 129.984C841.138 130.224 841.162 130.584 841.162 131.064L839.47 129.3C839.95 128.076 840.61 127.032 841.45 126.168C842.314 125.28 843.31 124.608 844.438 124.152C845.59 123.672 846.838 123.432 848.182 123.432C849.982 123.432 851.578 123.804 852.97 124.548C854.362 125.292 855.454 126.336 856.246 127.68C857.038 129.024 857.434 130.548 857.434 132.252C857.434 134.028 857.002 135.6 856.138 136.968C855.274 138.336 854.05 139.416 852.466 140.208C850.906 140.976 849.07 141.36 846.958 141.36ZM847.318 137.724C848.398 137.724 849.346 137.496 850.162 137.04C851.002 136.56 851.65 135.912 852.106 135.096C852.586 134.28 852.826 133.368 852.826 132.36C852.826 131.352 852.586 130.476 852.106 129.732C851.65 128.964 851.002 128.352 850.162 127.896C849.346 127.44 848.374 127.212 847.246 127.212C846.166 127.212 845.194 127.428 844.33 127.86C843.49 128.292 842.83 128.892 842.35 129.66C841.894 130.404 841.666 131.268 841.666 132.252C841.666 133.26 841.906 134.184 842.386 135.024C842.866 135.864 843.526 136.524 844.366 137.004C845.23 137.484 846.214 137.724 847.318 137.724ZM858.771 140.964L858.987 137.184C859.155 137.208 859.311 137.232 859.455 137.256C859.599 137.28 859.731 137.292 859.851 137.292C860.595 137.292 861.171 137.064 861.579 136.608C861.987 136.152 862.287 135.54 862.479 134.772C862.695 133.98 862.839 133.104 862.911 132.144C863.007 131.16 863.079 130.176 863.127 129.192L863.451 121.776H879.003V141H874.503V124.368L875.547 125.592H866.403L867.375 124.332L867.123 129.408C867.051 131.112 866.907 132.696 866.691 134.16C866.499 135.6 866.187 136.86 865.755 137.94C865.347 139.02 864.771 139.86 864.027 140.46C863.307 141.06 862.383 141.36 861.255 141.36C860.895 141.36 860.499 141.324 860.067 141.252C859.659 141.18 859.227 141.084 858.771 140.964ZM896.727 141V137.112L896.475 136.284V129.48C896.475 128.16 896.079 127.14 895.287 126.42C894.495 125.676 893.295 125.304 891.687 125.304C890.607 125.304 889.539 125.472 888.483 125.808C887.451 126.144 886.575 126.612 885.855 127.212L884.091 123.936C885.123 123.144 886.347 122.556 887.763 122.172C889.203 121.764 890.691 121.56 892.227 121.56C895.011 121.56 897.159 122.232 898.671 123.576C900.207 124.896 900.975 126.948 900.975 129.732V141H896.727ZM890.679 141.252C889.239 141.252 887.979 141.012 886.899 140.532C885.819 140.028 884.979 139.344 884.379 138.48C883.803 137.592 883.515 136.596 883.515 135.492C883.515 134.412 883.767 133.44 884.271 132.576C884.799 131.712 885.651 131.028 886.827 130.524C888.003 130.02 889.563 129.768 891.507 129.768H897.087V132.756H891.831C890.295 132.756 889.263 133.008 888.735 133.512C888.207 133.992 887.943 134.592 887.943 135.312C887.943 136.128 888.267 136.776 888.915 137.256C889.563 137.736 890.463 137.976 891.615 137.976C892.719 137.976 893.703 137.724 894.567 137.22C895.455 136.716 896.091 135.972 896.475 134.988L897.231 137.688C896.799 138.816 896.019 139.692 894.891 140.316C893.787 140.94 892.383 141.252 890.679 141.252ZM906.544 141V121.776H921.304V125.592H910L911.044 124.584V141H906.544ZM932.303 141.252C930.335 141.252 928.583 140.832 927.047 139.992C925.511 139.128 924.299 137.952 923.411 136.464C922.523 134.976 922.079 133.284 922.079 131.388C922.079 129.468 922.523 127.776 923.411 126.312C924.299 124.824 925.511 123.66 927.047 122.82C928.583 121.98 930.335 121.56 932.303 121.56C934.295 121.56 936.059 121.98 937.595 122.82C939.155 123.66 940.367 124.812 941.231 126.276C942.119 127.74 942.563 129.444 942.563 131.388C942.563 133.284 942.119 134.976 941.231 136.464C940.367 137.952 939.155 139.128 937.595 139.992C936.059 140.832 934.295 141.252 932.303 141.252ZM932.303 137.4C933.407 137.4 934.391 137.16 935.255 136.68C936.119 136.2 936.791 135.504 937.271 134.592C937.775 133.68 938.027 132.612 938.027 131.388C938.027 130.14 937.775 129.072 937.271 128.184C936.791 127.272 936.119 126.576 935.255 126.096C934.391 125.616 933.419 125.376 932.339 125.376C931.235 125.376 930.251 125.616 929.387 126.096C928.547 126.576 927.875 127.272 927.371 128.184C926.867 129.072 926.615 130.14 926.615 131.388C926.615 132.612 926.867 133.68 927.371 134.592C927.875 135.504 928.547 136.2 929.387 136.68C930.251 137.16 931.223 137.4 932.303 137.4ZM959.973 138.912V125.592H952.593L952.485 128.688C952.437 129.792 952.365 130.86 952.269 131.892C952.173 132.9 952.017 133.836 951.801 134.7C951.585 135.54 951.273 136.236 950.865 136.788C950.457 137.34 949.917 137.7 949.245 137.868L944.781 137.184C945.501 137.184 946.077 136.956 946.509 136.5C946.965 136.02 947.313 135.372 947.553 134.556C947.817 133.716 948.009 132.768 948.129 131.712C948.249 130.632 948.333 129.516 948.381 128.364L948.633 121.776H964.473V138.912H959.973ZM944.097 145.284V137.184H967.317V145.284H963.105V141H948.273V145.284H944.097ZM983.001 141V137.112L982.749 136.284V129.48C982.749 128.16 982.353 127.14 981.561 126.42C980.769 125.676 979.569 125.304 977.961 125.304C976.881 125.304 975.813 125.472 974.757 125.808C973.725 126.144 972.849 126.612 972.129 127.212L970.365 123.936C971.397 123.144 972.621 122.556 974.037 122.172C975.477 121.764 976.965 121.56 978.501 121.56C981.285 121.56 983.433 122.232 984.945 123.576C986.481 124.896 987.249 126.948 987.249 129.732V141H983.001ZM976.953 141.252C975.513 141.252 974.253 141.012 973.173 140.532C972.093 140.028 971.253 139.344 970.653 138.48C970.077 137.592 969.789 136.596 969.789 135.492C969.789 134.412 970.041 133.44 970.545 132.576C971.073 131.712 971.925 131.028 973.101 130.524C974.277 130.02 975.837 129.768 977.781 129.768H983.361V132.756H978.105C976.569 132.756 975.537 133.008 975.009 133.512C974.481 133.992 974.217 134.592 974.217 135.312C974.217 136.128 974.541 136.776 975.189 137.256C975.837 137.736 976.737 137.976 977.889 137.976C978.993 137.976 979.977 137.724 980.841 137.22C981.729 136.716 982.365 135.972 982.749 134.988L983.505 137.688C983.073 138.816 982.293 139.692 981.165 140.316C980.061 140.94 978.657 141.252 976.953 141.252ZM1003.47 141.252C1001.91 141.252 1000.48 140.892 999.189 140.172C997.917 139.452 996.897 138.372 996.129 136.932C995.385 135.468 995.013 133.62 995.013 131.388C995.013 129.132 995.373 127.284 996.093 125.844C996.837 124.404 997.845 123.336 999.117 122.64C1000.39 121.92 1001.84 121.56 1003.47 121.56C1005.37 121.56 1007.04 121.968 1008.48 122.784C1009.94 123.6 1011.09 124.74 1011.93 126.204C1012.8 127.668 1013.23 129.396 1013.23 131.388C1013.23 133.38 1012.8 135.12 1011.93 136.608C1011.09 138.072 1009.94 139.212 1008.48 140.028C1007.04 140.844 1005.37 141.252 1003.47 141.252ZM992.817 147.984V121.776H997.101V126.312L996.957 131.424L997.317 136.536V147.984H992.817ZM1002.97 137.4C1004.05 137.4 1005.01 137.16 1005.85 136.68C1006.71 136.2 1007.4 135.504 1007.9 134.592C1008.4 133.68 1008.66 132.612 1008.66 131.388C1008.66 130.14 1008.4 129.072 1007.9 128.184C1007.4 127.272 1006.71 126.576 1005.85 126.096C1005.01 125.616 1004.05 125.376 1002.97 125.376C1001.89 125.376 1000.92 125.616 1000.05 126.096C999.189 126.576 998.505 127.272 998.001 128.184C997.497 129.072 997.245 130.14 997.245 131.388C997.245 132.612 997.497 133.68 998.001 134.592C998.505 135.504 999.189 136.2 1000.05 136.68C1000.92 137.16 1001.89 137.4 1002.97 137.4ZM1017.71 141V121.776H1022.21V129.588H1031.89V121.776H1036.39V141H1031.89V133.404H1022.21V141H1017.71ZM1050.99 141.252C1049.02 141.252 1047.27 140.832 1045.73 139.992C1044.2 139.128 1042.99 137.952 1042.1 136.464C1041.21 134.976 1040.77 133.284 1040.77 131.388C1040.77 129.468 1041.21 127.776 1042.1 126.312C1042.99 124.824 1044.2 123.66 1045.73 122.82C1047.27 121.98 1049.02 121.56 1050.99 121.56C1052.98 121.56 1054.75 121.98 1056.28 122.82C1057.84 123.66 1059.05 124.812 1059.92 126.276C1060.81 127.74 1061.25 129.444 1061.25 131.388C1061.25 133.284 1060.81 134.976 1059.92 136.464C1059.05 137.952 1057.84 139.128 1056.28 139.992C1054.75 140.832 1052.98 141.252 1050.99 141.252ZM1050.99 137.4C1052.09 137.4 1053.08 137.16 1053.94 136.68C1054.81 136.2 1055.48 135.504 1055.96 134.592C1056.46 133.68 1056.71 132.612 1056.71 131.388C1056.71 130.14 1056.46 129.072 1055.96 128.184C1055.48 127.272 1054.81 126.576 1053.94 126.096C1053.08 125.616 1052.11 125.376 1051.03 125.376C1049.92 125.376 1048.94 125.616 1048.07 126.096C1047.23 126.576 1046.56 127.272 1046.06 128.184C1045.55 129.072 1045.3 130.14 1045.3 131.388C1045.3 132.612 1045.55 133.68 1046.06 134.592C1046.56 135.504 1047.23 136.2 1048.07 136.68C1048.94 137.16 1049.91 137.4 1050.99 137.4ZM1074.44 141.252C1072.43 141.252 1070.63 140.832 1069.04 139.992C1067.48 139.128 1066.26 137.952 1065.37 136.464C1064.48 134.976 1064.04 133.284 1064.04 131.388C1064.04 129.468 1064.48 127.776 1065.37 126.312C1066.26 124.824 1067.48 123.66 1069.04 122.82C1070.63 121.98 1072.43 121.56 1074.44 121.56C1076.32 121.56 1077.96 121.944 1079.38 122.712C1080.82 123.456 1081.91 124.56 1082.65 126.024L1079.2 128.04C1078.62 127.128 1077.91 126.456 1077.07 126.024C1076.26 125.592 1075.37 125.376 1074.41 125.376C1073.3 125.376 1072.31 125.616 1071.42 126.096C1070.53 126.576 1069.84 127.272 1069.33 128.184C1068.83 129.072 1068.58 130.14 1068.58 131.388C1068.58 132.636 1068.83 133.716 1069.33 134.628C1069.84 135.516 1070.53 136.2 1071.42 136.68C1072.31 137.16 1073.3 137.4 1074.41 137.4C1075.37 137.4 1076.26 137.184 1077.07 136.752C1077.91 136.32 1078.62 135.648 1079.2 134.736L1082.65 136.752C1081.91 138.192 1080.82 139.308 1079.38 140.1C1077.96 140.868 1076.32 141.252 1074.44 141.252ZM1090.47 141V124.512L1091.51 125.592H1083.7V121.776H1101.7V125.592H1093.93L1094.97 124.512V141H1090.47ZM1104.97 141V121.776H1109.47V134.448L1120.09 121.776H1124.19V141H1119.69V128.328L1109.11 141H1104.97ZM1146.28 141.324C1144.81 141.324 1143.36 141.156 1141.92 140.82C1140.5 140.46 1139.22 139.956 1138.07 139.308L1139.33 135.96C1140.26 136.488 1141.32 136.896 1142.5 137.184C1143.67 137.472 1144.85 137.616 1146.02 137.616C1147.03 137.616 1147.9 137.52 1148.62 137.328C1149.34 137.112 1149.89 136.8 1150.27 136.392C1150.68 135.984 1150.88 135.516 1150.88 134.988C1150.88 134.22 1150.55 133.644 1149.88 133.26C1149.23 132.852 1148.29 132.648 1147.07 132.648H1143.36V129.624H1146.71C1147.48 129.624 1148.12 129.54 1148.65 129.372C1149.2 129.204 1149.62 128.952 1149.91 128.616C1150.2 128.28 1150.34 127.884 1150.34 127.428C1150.34 126.972 1150.16 126.576 1149.8 126.24C1149.47 125.88 1148.98 125.616 1148.33 125.448C1147.68 125.256 1146.9 125.16 1145.99 125.16C1145.03 125.16 1144.03 125.28 1143 125.52C1141.99 125.76 1140.96 126.108 1139.9 126.564L1138.75 123.252C1139.98 122.7 1141.16 122.28 1142.32 121.992C1143.49 121.68 1144.66 121.512 1145.81 121.488C1147.56 121.416 1149.12 121.596 1150.49 122.028C1151.86 122.46 1152.94 123.084 1153.73 123.9C1154.52 124.716 1154.92 125.676 1154.92 126.78C1154.92 127.692 1154.63 128.52 1154.05 129.264C1153.5 129.984 1152.73 130.548 1151.75 130.956C1150.79 131.364 1149.68 131.568 1148.44 131.568L1148.58 130.596C1150.72 130.596 1152.4 131.028 1153.62 131.892C1154.84 132.732 1155.46 133.884 1155.46 135.348C1155.46 136.524 1155.06 137.568 1154.27 138.48C1153.48 139.368 1152.38 140.064 1150.99 140.568C1149.62 141.072 1148.05 141.324 1146.28 141.324ZM1171.75 141V137.112L1171.5 136.284V129.48C1171.5 128.16 1171.11 127.14 1170.31 126.42C1169.52 125.676 1168.32 125.304 1166.71 125.304C1165.63 125.304 1164.57 125.472 1163.51 125.808C1162.48 126.144 1161.6 126.612 1160.88 127.212L1159.12 123.936C1160.15 123.144 1161.37 122.556 1162.79 122.172C1164.23 121.764 1165.72 121.56 1167.25 121.56C1170.04 121.56 1172.19 122.232 1173.7 123.576C1175.23 124.896 1176 126.948 1176 129.732V141H1171.75ZM1165.71 141.252C1164.27 141.252 1163.01 141.012 1161.93 140.532C1160.85 140.028 1160.01 139.344 1159.41 138.48C1158.83 137.592 1158.54 136.596 1158.54 135.492C1158.54 134.412 1158.79 133.44 1159.3 132.576C1159.83 131.712 1160.68 131.028 1161.85 130.524C1163.03 130.02 1164.59 129.768 1166.53 129.768H1172.11V132.756H1166.86C1165.32 132.756 1164.29 133.008 1163.76 133.512C1163.23 133.992 1162.97 134.592 1162.97 135.312C1162.97 136.128 1163.29 136.776 1163.94 137.256C1164.59 137.736 1165.49 137.976 1166.64 137.976C1167.75 137.976 1168.73 137.724 1169.59 137.22C1170.48 136.716 1171.12 135.972 1171.5 134.988L1172.26 137.688C1171.83 138.816 1171.05 139.692 1169.92 140.316C1168.81 140.94 1167.41 141.252 1165.71 141.252ZM1191.52 141V121.776H1200.92C1203.24 121.776 1205.07 122.208 1206.39 123.072C1207.73 123.936 1208.4 125.16 1208.4 126.744C1208.4 128.304 1207.78 129.528 1206.53 130.416C1205.28 131.28 1203.63 131.712 1201.56 131.712L1202.1 130.596C1204.43 130.596 1206.16 131.028 1207.29 131.892C1208.44 132.732 1209.02 133.968 1209.02 135.6C1209.02 137.304 1208.38 138.636 1207.11 139.596C1205.84 140.532 1203.9 141 1201.31 141H1191.52ZM1195.8 137.724H1200.95C1202.18 137.724 1203.1 137.532 1203.72 137.148C1204.35 136.74 1204.66 136.128 1204.66 135.312C1204.66 134.448 1204.37 133.812 1203.8 133.404C1203.22 132.996 1202.32 132.792 1201.1 132.792H1195.8V137.724ZM1195.8 129.804H1200.52C1201.67 129.804 1202.54 129.6 1203.11 129.192C1203.71 128.76 1204.01 128.16 1204.01 127.392C1204.01 126.6 1203.71 126.012 1203.11 125.628C1202.54 125.244 1201.67 125.052 1200.52 125.052H1195.8V129.804ZM1225.47 141V137.112L1225.22 136.284V129.48C1225.22 128.16 1224.83 127.14 1224.03 126.42C1223.24 125.676 1222.04 125.304 1220.43 125.304C1219.35 125.304 1218.29 125.472 1217.23 125.808C1216.2 126.144 1215.32 126.612 1214.6 127.212L1212.84 123.936C1213.87 123.144 1215.09 122.556 1216.51 122.172C1217.95 121.764 1219.44 121.56 1220.97 121.56C1223.76 121.56 1225.91 122.232 1227.42 123.576C1228.95 124.896 1229.72 126.948 1229.72 129.732V141H1225.47ZM1219.43 141.252C1217.99 141.252 1216.73 141.012 1215.65 140.532C1214.57 140.028 1213.73 139.344 1213.13 138.48C1212.55 137.592 1212.26 136.596 1212.26 135.492C1212.26 134.412 1212.51 133.44 1213.02 132.576C1213.55 131.712 1214.4 131.028 1215.57 130.524C1216.75 130.02 1218.31 129.768 1220.25 129.768H1225.83V132.756H1220.58C1219.04 132.756 1218.01 133.008 1217.48 133.512C1216.95 133.992 1216.69 134.592 1216.69 135.312C1216.69 136.128 1217.01 136.776 1217.66 137.256C1218.31 137.736 1219.21 137.976 1220.36 137.976C1221.47 137.976 1222.45 137.724 1223.31 137.22C1224.2 136.716 1224.84 135.972 1225.22 134.988L1225.98 137.688C1225.55 138.816 1224.77 139.692 1223.64 140.316C1222.53 140.94 1221.13 141.252 1219.43 141.252ZM1248.21 137.184L1247.24 138.264V121.776H1251.74V138.264L1250.66 137.184H1260.17L1259.12 138.264V121.776H1263.62V141H1235.29V121.776H1239.79V138.264L1238.75 137.184H1248.21ZM55.024 185V165.776H64.42C66.748 165.776 68.572 166.208 69.892 167.072C71.236 167.936 71.908 169.16 71.908 170.744C71.908 172.304 71.284 173.528 70.036 174.416C68.788 175.28 67.132 175.712 65.068 175.712L65.608 174.596C67.936 174.596 69.664 175.028 70.792 175.892C71.944 176.732 72.52 177.968 72.52 179.6C72.52 181.304 71.884 182.636 70.612 183.596C69.34 184.532 67.408 185 64.816 185H55.024ZM59.308 181.724H64.456C65.68 181.724 66.604 181.532 67.228 181.148C67.852 180.74 68.164 180.128 68.164 179.312C68.164 178.448 67.876 177.812 67.3 177.404C66.724 176.996 65.824 176.792 64.6 176.792H59.308V181.724ZM59.308 173.804H64.024C65.176 173.804 66.04 173.6 66.616 173.192C67.216 172.76 67.516 172.16 67.516 171.392C67.516 170.6 67.216 170.012 66.616 169.628C66.04 169.244 65.176 169.052 64.024 169.052H59.308V173.804ZM96.7171 185V165.776H101.217V185H96.7171ZM86.6731 172.112C89.1451 172.112 91.0171 172.664 92.2891 173.768C93.5851 174.872 94.2331 176.432 94.2331 178.448C94.2331 180.536 93.5131 182.168 92.0731 183.344C90.6571 184.496 88.6411 185.06 86.0251 185.036L77.3131 185V165.776H81.8131V172.076L86.6731 172.112ZM85.6291 181.724C86.9491 181.748 87.9571 181.472 88.6531 180.896C89.3491 180.32 89.6971 179.48 89.6971 178.376C89.6971 177.272 89.3491 176.48 88.6531 176C87.9811 175.496 86.9731 175.232 85.6291 175.208L81.8131 175.172V181.688L85.6291 181.724ZM116.446 185.36C114.862 185.36 113.446 185.12 112.198 184.64C110.95 184.16 109.87 183.428 108.958 182.444C108.07 181.436 107.386 180.164 106.906 178.628C106.426 177.092 106.186 175.268 106.186 173.156C106.186 171.62 106.318 170.216 106.582 168.944C106.846 167.672 107.242 166.532 107.77 165.524C108.298 164.492 108.958 163.58 109.75 162.788C110.566 161.996 111.514 161.336 112.594 160.808C113.674 160.28 114.898 159.872 116.266 159.584L125.194 157.676L125.842 161.708L117.742 163.364C117.286 163.46 116.734 163.604 116.086 163.796C115.462 163.964 114.814 164.228 114.142 164.588C113.494 164.924 112.882 165.416 112.306 166.064C111.754 166.688 111.298 167.504 110.938 168.512C110.602 169.496 110.434 170.732 110.434 172.22C110.434 172.676 110.446 173.024 110.47 173.264C110.518 173.48 110.554 173.72 110.578 173.984C110.626 174.224 110.65 174.584 110.65 175.064L108.958 173.3C109.438 172.076 110.098 171.032 110.938 170.168C111.802 169.28 112.798 168.608 113.926 168.152C115.078 167.672 116.326 167.432 117.67 167.432C119.47 167.432 121.066 167.804 122.458 168.548C123.85 169.292 124.942 170.336 125.734 171.68C126.526 173.024 126.922 174.548 126.922 176.252C126.922 178.028 126.49 179.6 125.626 180.968C124.762 182.336 123.538 183.416 121.954 184.208C120.394 184.976 118.558 185.36 116.446 185.36ZM116.806 181.724C117.886 181.724 118.834 181.496 119.65 181.04C120.49 180.56 121.138 179.912 121.594 179.096C122.074 178.28 122.314 177.368 122.314 176.36C122.314 175.352 122.074 174.476 121.594 173.732C121.138 172.964 120.49 172.352 119.65 171.896C118.834 171.44 117.862 171.212 116.734 171.212C115.654 171.212 114.682 171.428 113.818 171.86C112.978 172.292 112.318 172.892 111.838 173.66C111.382 174.404 111.154 175.268 111.154 176.252C111.154 177.26 111.394 178.184 111.874 179.024C112.354 179.864 113.014 180.524 113.854 181.004C114.718 181.484 115.702 181.724 116.806 181.724ZM139.846 185.252C137.878 185.252 136.126 184.832 134.59 183.992C133.054 183.128 131.842 181.952 130.954 180.464C130.066 178.976 129.622 177.284 129.622 175.388C129.622 173.468 130.066 171.776 130.954 170.312C131.842 168.824 133.054 167.66 134.59 166.82C136.126 165.98 137.878 165.56 139.846 165.56C141.838 165.56 143.602 165.98 145.138 166.82C146.698 167.66 147.91 168.812 148.774 170.276C149.662 171.74 150.106 173.444 150.106 175.388C150.106 177.284 149.662 178.976 148.774 180.464C147.91 181.952 146.698 183.128 145.138 183.992C143.602 184.832 141.838 185.252 139.846 185.252ZM139.846 181.4C140.95 181.4 141.934 181.16 142.798 180.68C143.662 180.2 144.334 179.504 144.814 178.592C145.318 177.68 145.57 176.612 145.57 175.388C145.57 174.14 145.318 173.072 144.814 172.184C144.334 171.272 143.662 170.576 142.798 170.096C141.934 169.616 140.962 169.376 139.882 169.376C138.778 169.376 137.794 169.616 136.93 170.096C136.09 170.576 135.418 171.272 134.914 172.184C134.41 173.072 134.158 174.14 134.158 175.388C134.158 176.612 134.41 177.68 134.914 178.592C135.418 179.504 136.09 180.2 136.93 180.68C137.794 181.16 138.766 181.4 139.846 181.4ZM165.207 185.252C163.647 185.252 162.219 184.892 160.923 184.172C159.651 183.452 158.631 182.372 157.863 180.932C157.119 179.468 156.747 177.62 156.747 175.388C156.747 173.132 157.107 171.284 157.827 169.844C158.571 168.404 159.579 167.336 160.851 166.64C162.123 165.92 163.575 165.56 165.207 165.56C167.103 165.56 168.771 165.968 170.211 166.784C171.675 167.6 172.827 168.74 173.667 170.204C174.531 171.668 174.963 173.396 174.963 175.388C174.963 177.38 174.531 179.12 173.667 180.608C172.827 182.072 171.675 183.212 170.211 184.028C168.771 184.844 167.103 185.252 165.207 185.252ZM154.551 191.984V165.776H158.835V170.312L158.691 175.424L159.051 180.536V191.984H154.551ZM164.703 181.4C165.783 181.4 166.743 181.16 167.583 180.68C168.447 180.2 169.131 179.504 169.635 178.592C170.139 177.68 170.391 176.612 170.391 175.388C170.391 174.14 170.139 173.072 169.635 172.184C169.131 171.272 168.447 170.576 167.583 170.096C166.743 169.616 165.783 169.376 164.703 169.376C163.623 169.376 162.651 169.616 161.787 170.096C160.923 170.576 160.239 171.272 159.735 172.184C159.231 173.072 158.979 174.14 158.979 175.388C158.979 176.612 159.231 177.68 159.735 178.592C160.239 179.504 160.923 180.2 161.787 180.68C162.651 181.16 163.623 181.4 164.703 181.4ZM188.671 169.772L188.383 159.8H192.271L191.947 169.772H188.671ZM195.619 169.772L195.331 159.8H199.219L198.895 169.772H195.619ZM220.498 175.208C219.178 175.76 217.894 176.168 216.646 176.432C215.398 176.696 214.186 176.828 213.01 176.828C209.794 176.828 207.31 176.06 205.558 174.524C203.83 172.964 202.966 170.732 202.966 167.828V159.8H207.61V167.324C207.61 169.1 208.126 170.456 209.158 171.392C210.19 172.328 211.666 172.796 213.586 172.796C214.738 172.796 215.89 172.664 217.042 172.4C218.218 172.136 219.346 171.728 220.426 171.176L220.498 175.208ZM219.778 185V159.8H224.422V185H219.778ZM242.645 185V181.112L242.393 180.284V173.48C242.393 172.16 241.997 171.14 241.205 170.42C240.413 169.676 239.213 169.304 237.605 169.304C236.525 169.304 235.457 169.472 234.401 169.808C233.369 170.144 232.493 170.612 231.773 171.212L230.009 167.936C231.041 167.144 232.265 166.556 233.681 166.172C235.121 165.764 236.609 165.56 238.145 165.56C240.929 165.56 243.077 166.232 244.589 167.576C246.125 168.896 246.893 170.948 246.893 173.732V185H242.645ZM236.597 185.252C235.157 185.252 233.897 185.012 232.817 184.532C231.737 184.028 230.897 183.344 230.297 182.48C229.721 181.592 229.433 180.596 229.433 179.492C229.433 178.412 229.685 177.44 230.189 176.576C230.717 175.712 231.569 175.028 232.745 174.524C233.921 174.02 235.481 173.768 237.425 173.768H243.005V176.756H237.749C236.213 176.756 235.181 177.008 234.653 177.512C234.125 177.992 233.861 178.592 233.861 179.312C233.861 180.128 234.185 180.776 234.833 181.256C235.481 181.736 236.381 181.976 237.533 181.976C238.637 181.976 239.621 181.724 240.485 181.22C241.373 180.716 242.009 179.972 242.393 178.988L243.149 181.688C242.717 182.816 241.937 183.692 240.809 184.316C239.705 184.94 238.301 185.252 236.597 185.252ZM252.462 185V165.776H256.962V178.448L267.582 165.776H271.686V185H267.186V172.328L256.602 185H252.462ZM261.786 163.508C259.866 163.508 258.39 163.064 257.358 162.176C256.326 161.264 255.798 159.944 255.774 158.216H258.762C258.786 159.08 259.05 159.764 259.554 160.268C260.082 160.772 260.814 161.024 261.75 161.024C262.662 161.024 263.382 160.772 263.91 160.268C264.462 159.764 264.75 159.08 264.774 158.216H267.834C267.81 159.944 267.27 161.264 266.214 162.176C265.182 163.064 263.706 163.508 261.786 163.508ZM277.739 185V165.776H282.239V173.588H291.923V165.776H296.423V185H291.923V177.404H282.239V185H277.739ZM302.454 185V165.776H306.954V178.448L317.574 165.776H321.678V185H317.178V172.328L306.594 185H302.454ZM341.519 185L334.571 175.784L338.243 173.516L346.811 185H341.519ZM327.731 185V165.776H332.231V185H327.731ZM330.899 177.296V173.552H337.415V177.296H330.899ZM338.675 175.928L334.463 175.424L341.519 165.776H346.343L338.675 175.928ZM361.766 185.36C359.798 185.36 357.986 185.036 356.33 184.388C354.674 183.74 353.234 182.84 352.01 181.688C350.786 180.512 349.838 179.144 349.166 177.584C348.494 176 348.158 174.272 348.158 172.4C348.158 170.528 348.494 168.812 349.166 167.252C349.838 165.668 350.786 164.3 352.01 163.148C353.234 161.972 354.674 161.06 356.33 160.412C357.986 159.764 359.786 159.44 361.73 159.44C363.698 159.44 365.498 159.764 367.13 160.412C368.786 161.06 370.226 161.972 371.45 163.148C372.674 164.3 373.622 165.668 374.294 167.252C374.966 168.812 375.302 170.528 375.302 172.4C375.302 174.272 374.966 176 374.294 177.584C373.622 179.168 372.674 180.536 371.45 181.688C370.226 182.84 368.786 183.74 367.13 184.388C365.498 185.036 363.71 185.36 361.766 185.36ZM361.73 181.256C363.002 181.256 364.178 181.04 365.258 180.608C366.338 180.176 367.274 179.564 368.066 178.772C368.858 177.956 369.47 177.02 369.902 175.964C370.358 174.884 370.586 173.696 370.586 172.4C370.586 171.104 370.358 169.928 369.902 168.872C369.47 167.792 368.858 166.856 368.066 166.064C367.274 165.248 366.338 164.624 365.258 164.192C364.178 163.76 363.002 163.544 361.73 163.544C360.458 163.544 359.282 163.76 358.202 164.192C357.146 164.624 356.21 165.248 355.394 166.064C354.602 166.856 353.978 167.792 353.522 168.872C353.09 169.928 352.874 171.104 352.874 172.4C352.874 173.672 353.09 174.848 353.522 175.928C353.978 177.008 354.602 177.956 355.394 178.772C356.186 179.564 357.122 180.176 358.202 180.608C359.282 181.04 360.458 181.256 361.73 181.256ZM384.547 171.392H397.111V175.352H384.547V171.392ZM384.943 185H380.263V159.8H398.659V163.724H384.943V185ZM407.469 171.392H420.033V175.352H407.469V171.392ZM407.865 185H403.185V159.8H421.581V163.724H407.865V185ZM426.468 169.772L426.18 159.8H430.068L429.744 169.772H426.468ZM433.416 169.772L433.128 159.8H437.016L436.692 169.772H433.416ZM442.31 176.648L441.446 159.8H446.774L445.874 176.648H442.31ZM444.11 185.252C443.27 185.252 442.574 184.976 442.022 184.424C441.47 183.872 441.194 183.212 441.194 182.444C441.194 181.676 441.47 181.028 442.022 180.5C442.574 179.948 443.27 179.672 444.11 179.672C444.95 179.672 445.634 179.948 446.162 180.5C446.69 181.028 446.954 181.676 446.954 182.444C446.954 183.212 446.69 183.872 446.162 184.424C445.634 184.976 444.95 185.252 444.11 185.252Z" fill="url(#paint1_linear_156_321)"/>
<defs>
<linearGradient id="paint0_linear_156_321" x1="-46" y1="-15.4999" x2="1349.5" y2="261" gradientUnits="userSpaceOnUse">
<stop stop-color="#1A7F15"/>
<stop offset="0.244792" stop-color="#1AFF0F"/>
<stop offset="0.505208" stop-color="#A4E8A1"/>
<stop offset="0.760417" stop-color="#1AFF0F"/>
<stop offset="1" stop-color="#1A7F15"/>
</linearGradient>
<linearGradient id="paint1_linear_156_321" x1="-19" y1="44.9195" x2="1355.04" y2="409.491" gradientUnits="userSpaceOnUse">
<stop stop-color="#1A7F15"/>
<stop offset="0.25" stop-color="#3DB338"/>
<stop offset="0.5" stop-color="#61E65A"/>
<stop offset="0.75" stop-color="#3DB338"/>
<stop offset="1" stop-color="#1A7F15"/>
</linearGradient>
</defs>
</svg>
