<svg width="59" height="59" viewBox="0 0 59 59" fill="none" xmlns="http://www.w3.org/2000/svg">
<path d="M48.0665 7.36769C47.4746 7.41075 46.8937 7.54961 46.3463 7.77884H46.3389C45.8135 7.98719 43.3152 9.03813 39.5171 10.6311L25.9065 16.3633C16.1401 20.4749 6.53974 24.5238 6.53974 24.5238L6.65405 24.4795C6.65405 24.4795 5.99215 24.6971 5.30074 25.1709C4.8736 25.4427 4.50604 25.7984 4.2203 26.2163C3.88105 26.7142 3.60818 27.4756 3.70958 28.2629C3.87552 29.5941 4.7384 30.3924 5.3579 30.8331C5.98477 31.2793 6.58215 31.4876 6.58215 31.4876H6.5969L15.5999 34.5206C16.0037 35.8168 18.3434 43.5089 18.9058 45.2807C19.2376 46.339 19.5603 47.0009 19.9641 47.5061C20.1595 47.7643 20.3881 47.98 20.6629 48.1533C20.8057 48.2364 20.958 48.302 21.1164 48.3487L21.0242 48.3266C21.0519 48.334 21.074 48.3561 21.0943 48.3635C21.1681 48.3838 21.2178 48.3911 21.3119 48.4059C22.7371 48.8373 23.8821 47.9523 23.8821 47.9523L23.9466 47.9007L29.2621 43.0608L38.1711 49.8956L38.3739 49.9823C40.2306 50.7972 42.1112 50.3437 43.105 49.5435C44.1061 48.7378 44.4952 47.7071 44.4952 47.7071L44.5597 47.5412L51.4443 12.2721C51.6397 11.4018 51.6895 10.5869 51.4738 9.79591C51.2513 8.9954 50.7377 8.30691 50.0338 7.8655C49.4427 7.50618 48.7574 7.33275 48.0665 7.36769ZM47.8803 11.1474C47.8729 11.2635 47.8951 11.2506 47.8434 11.4737V11.494L41.0234 46.3962C40.9939 46.446 40.9441 46.5548 40.8077 46.6635C40.6639 46.7778 40.5496 46.8498 39.9503 46.6119L29.0538 38.2579L22.4716 44.2574L23.8544 35.4259L41.6576 18.8321C42.3915 18.1499 42.1462 18.0061 42.1462 18.0061C42.1979 17.1691 41.0381 17.7609 41.0381 17.7609L18.5886 31.6683L18.5813 31.6314L7.82115 28.0085V28.0011L7.79349 27.9956C7.81235 27.9893 7.83082 27.9819 7.8488 27.9734L7.9078 27.9439L7.96496 27.9237C7.96496 27.9237 17.5727 23.8748 27.3391 19.7632C32.2287 17.7038 37.1552 15.6295 40.9441 14.0292C43.1912 13.0833 45.4406 12.143 47.6922 11.2082C47.8434 11.1492 47.7715 11.1474 47.8803 11.1474Z" fill="#86C383"/>
</svg>
