<svg width="66" height="68" viewBox="0 0 66 68" fill="none" xmlns="http://www.w3.org/2000/svg">
<path d="M33 67.6959C14.7529 67.6959 0 52.5698 0 33.8613C0 15.1528 14.7529 0.0267334 33 0.0267334C51.2471 0.0267334 66 15.1528 66 33.8613C66 52.5698 51.2471 67.6959 33 67.6959ZM33 4.00727C16.8882 4.00727 3.88235 17.3421 3.88235 33.8613C3.88235 50.3805 16.8882 63.7153 33 63.7153C49.1118 63.7153 62.1176 50.3805 62.1176 33.8613C62.1176 17.3421 49.1118 4.00727 33 4.00727Z" fill="#86C383"/>
<path d="M33.5823 53.167L14.7529 33.8614L33.5823 14.5558L36.3 17.3422L20.1882 33.8614L36.3 50.3806L33.5823 53.167Z" fill="#86C383"/>
<path d="M17.4706 31.8711H50.4706V35.8516H17.4706V31.8711Z" fill="#86C383"/>
</svg>
