<svg width="374" height="66" viewBox="0 0 374 66" fill="none" xmlns="http://www.w3.org/2000/svg">
<g clip-path="url(#clip0_205_17)">
<path d="M355 14H277C270.925 14 266 18.9249 266 25V46C266 52.0751 270.925 57 277 57H355C361.075 57 366 52.0751 366 46V25C366 18.9249 361.075 14 355 14Z" fill="#7CE586"/>
<path d="M121.4 39.12C119.933 39.7333 118.507 40.1867 117.12 40.48C115.733 40.7733 114.387 40.92 113.08 40.92C109.507 40.92 106.747 40.0667 104.8 38.36C102.88 36.6267 101.92 34.1467 101.92 30.92V22H107.08V30.36C107.08 32.3333 107.653 33.84 108.8 34.88C109.947 35.92 111.587 36.44 113.72 36.44C115 36.44 116.28 36.2933 117.56 36C118.867 35.7067 120.12 35.2533 121.32 34.64L121.4 39.12ZM120.6 50V22H125.76V50H120.6ZM146.008 50V45.68L145.728 44.76V37.2C145.728 35.7333 145.288 34.6 144.408 33.8C143.528 32.9733 142.194 32.56 140.408 32.56C139.208 32.56 138.021 32.7467 136.848 33.12C135.701 33.4933 134.728 34.0133 133.928 34.68L131.968 31.04C133.114 30.16 134.474 29.5067 136.048 29.08C137.648 28.6267 139.301 28.4 141.008 28.4C144.101 28.4 146.488 29.1467 148.168 30.64C149.874 32.1067 150.728 34.3867 150.728 37.48V50H146.008ZM139.288 50.28C137.688 50.28 136.288 50.0133 135.088 49.48C133.888 48.92 132.954 48.16 132.288 47.2C131.648 46.2133 131.328 45.1067 131.328 43.88C131.328 42.68 131.608 41.6 132.168 40.64C132.754 39.68 133.701 38.92 135.008 38.36C136.314 37.8 138.048 37.52 140.208 37.52H146.408V40.84H140.568C138.861 40.84 137.714 41.12 137.128 41.68C136.541 42.2133 136.248 42.88 136.248 43.68C136.248 44.5867 136.608 45.3067 137.328 45.84C138.048 46.3733 139.048 46.64 140.328 46.64C141.554 46.64 142.648 46.36 143.608 45.8C144.594 45.24 145.301 44.4133 145.728 43.32L146.568 46.32C146.088 47.5733 145.221 48.5467 143.968 49.24C142.741 49.9333 141.181 50.28 139.288 50.28ZM156.915 50V28.64H161.915V42.72L173.715 28.64H178.275V50H173.275V35.92L161.515 50H156.915ZM167.275 26.12C165.141 26.12 163.501 25.6267 162.355 24.64C161.208 23.6267 160.621 22.16 160.595 20.24H163.915C163.941 21.2 164.235 21.96 164.795 22.52C165.381 23.08 166.195 23.36 167.235 23.36C168.248 23.36 169.048 23.08 169.635 22.52C170.248 21.96 170.568 21.2 170.595 20.24H173.995C173.968 22.16 173.368 23.6267 172.195 24.64C171.048 25.6267 169.408 26.12 167.275 26.12ZM185.001 50V28.64H190.001V37.32H200.761V28.64H205.761V50H200.761V41.56H190.001V50H185.001ZM212.462 50V28.64H217.462V42.72L229.262 28.64H233.822V50H228.822V35.92L217.062 50H212.462ZM255.868 50L248.148 39.76L252.228 37.24L261.748 50H255.868ZM240.548 50V28.64H245.548V50H240.548ZM244.068 41.44V37.28H251.308V41.44H244.068ZM252.708 39.92L248.028 39.36L255.868 28.64H261.228L252.708 39.92Z" fill="white"/>
<path d="M289.889 50.48C287.675 50.48 285.622 50.12 283.729 49.4C281.862 48.68 280.235 47.6667 278.849 46.36C277.489 45.0533 276.422 43.52 275.649 41.76C274.902 40 274.529 38.08 274.529 36C274.529 33.92 274.902 32 275.649 30.24C276.422 28.48 277.502 26.9467 278.889 25.64C280.275 24.3333 281.902 23.32 283.769 22.6C285.635 21.88 287.662 21.52 289.849 21.52C292.062 21.52 294.089 21.88 295.929 22.6C297.795 23.32 299.409 24.3333 300.769 25.64C302.155 26.9467 303.235 28.48 304.009 30.24C304.782 31.9733 305.169 33.8933 305.169 36C305.169 38.08 304.782 40.0133 304.009 41.8C303.235 43.56 302.155 45.0933 300.769 46.4C299.409 47.68 297.795 48.68 295.929 49.4C294.089 50.12 292.075 50.48 289.889 50.48ZM289.849 44.96C291.102 44.96 292.249 44.7467 293.289 44.32C294.355 43.8933 295.289 43.28 296.089 42.48C296.889 41.68 297.502 40.7333 297.929 39.64C298.382 38.5467 298.609 37.3333 298.609 36C298.609 34.6667 298.382 33.4533 297.929 32.36C297.502 31.2667 296.889 30.32 296.089 29.52C295.315 28.72 294.395 28.1067 293.329 27.68C292.262 27.2533 291.102 27.04 289.849 27.04C288.595 27.04 287.435 27.2533 286.369 27.68C285.329 28.1067 284.409 28.72 283.609 29.52C282.809 30.32 282.182 31.2667 281.729 32.36C281.302 33.4533 281.089 34.6667 281.089 36C281.089 37.3067 281.302 38.52 281.729 39.64C282.182 40.7333 282.795 41.68 283.569 42.48C284.369 43.28 285.302 43.8933 286.369 44.32C287.435 44.7467 288.595 44.96 289.849 44.96ZM316.039 34.6H329.479V39.8H316.039V34.6ZM316.519 50H310.039V22H331.199V27.2H316.519V50ZM341.586 34.6H355.026V39.8H341.586V34.6ZM342.066 50H335.586V22H356.746V27.2H342.066V50Z" fill="black"/>
<path fill-rule="evenodd" clip-rule="evenodd" d="M4.91406 5.24735L12 12.3333C10.6667 14.6667 9.66663 17.3333 9.66663 20.3333C9.66663 24.3333 11.3333 28 14.3333 31.3333C11.3333 35.3333 9.66663 40.3333 9.66663 45.3333V57C9.66663 60.6667 12.6667 63.6667 16.3333 63.6667H59.6667C60.6667 63.6667 61.6667 63.3333 62.6667 63L65.6667 66L70 62L9.23496 0.926453L4.91406 5.24735ZM21.6667 25L23.6667 24L19.6667 20V20.3333C19.6667 22 20.3333 23.6667 21.6667 25ZM16.3333 45.3333V57H56.6667L34.3333 34.6666C29.6667 38.6666 29.6667 44.3333 29.6667 47V50.3333H23V47C23 39.6667 26.6667 35 32.6667 33L28.6667 29C21.6667 32.3333 16.3333 39.3333 16.3333 45.3333ZM59.6667 17L52.6667 24C47.6667 21.3333 42.3333 20 37 20.3333L45 28.3333C52.3333 30.6667 58 36.6666 59.3333 42.6666L66.3333 49.6667V45.3333C66.3333 41.3333 65.3333 37.3332 63 33.6666L69.6667 27L59.6667 17ZM21 4.33325L28 11.3333C30.6667 9.99995 34.3333 9.33325 38 9.33325C42.6667 9.33325 47.3333 10.6667 50.6667 12.6667L57.3333 5.99995C51.6667 1.99995 45 0.333252 38 0.333252C31.6667 0.333252 25.6667 1.99995 21 4.33325Z" fill="#F8F8F8"/>
<path d="M70.1958 61.9083L9.22876 0.941284L4.89148 5.27856L65.8585 66.2456L70.1958 61.9083Z" fill="#7CE586"/>
</g>
<defs>
<clipPath id="clip0_205_17">
<rect width="374" height="66" fill="white"/>
</clipPath>
</defs>
</svg>
