<svg width="59" height="59" viewBox="0 0 59 59" fill="none" xmlns="http://www.w3.org/2000/svg">
<path d="M24.5834 36.8748L37.3421 29.4998L24.5834 22.1248V36.8748ZM53.0017 17.6261C53.3213 18.7815 53.5425 20.3303 53.69 22.2969C53.8621 24.2636 53.9359 25.9598 53.9359 27.4348L54.0834 29.4998C54.0834 34.8836 53.69 38.8415 53.0017 41.3736C52.3871 43.5861 50.9613 45.0119 48.7488 45.6265C47.5934 45.9461 45.4792 46.1673 42.2342 46.3148C39.0384 46.4869 36.1129 46.5607 33.4088 46.5607L29.5 46.7082C19.1996 46.7082 12.7834 46.3148 10.2513 45.6265C8.03877 45.0119 6.61294 43.5861 5.99835 41.3736C5.67877 40.2182 5.45752 38.6694 5.31002 36.7028C5.13794 34.7361 5.06419 33.0398 5.06419 31.5648L4.91669 29.4998C4.91669 24.1161 5.31002 20.1582 5.99835 17.6261C6.61294 15.4136 8.03877 13.9878 10.2513 13.3732C11.4067 13.0536 13.5209 12.8323 16.7659 12.6848C19.9617 12.5128 22.8871 12.439 25.5913 12.439L29.5 12.2915C39.8004 12.2915 46.2167 12.6848 48.7488 13.3732C50.9613 13.9878 52.3871 15.4136 53.0017 17.6261Z" fill="#86C383"/>
</svg>
