<svg width="1340" height="174" viewBox="0 0 1340 174" fill="none" xmlns="http://www.w3.org/2000/svg">
<path d="M280.029 109V65.8H290.301V109H280.029ZM263.037 92.2V82.6H307.293V92.2H263.037ZM327.94 121L355.684 58.792L358.948 64.36H320.836L326.788 58.312V75.784H315.172V53.8H367.396V62.152L341.284 121H327.94ZM390.667 139.624C386.891 133.8 383.979 127.08 381.931 119.464C379.947 111.784 378.955 103.528 378.955 94.696C378.955 85.864 379.947 77.608 381.931 69.928C383.979 62.184 386.891 55.464 390.667 49.768H402.091C398.187 56.808 395.307 64.008 393.451 71.368C391.659 78.664 390.763 86.44 390.763 94.696C390.763 102.952 391.659 110.76 393.451 118.12C395.307 125.416 398.187 132.584 402.091 139.624H390.667ZM431.052 52.84C437.196 52.84 442.412 54.152 446.7 56.776C451.052 59.336 454.38 63.08 456.684 68.008C458.988 72.936 460.14 79.016 460.14 86.248C460.14 93.928 458.732 100.424 455.916 105.736C453.164 111.048 449.324 115.08 444.396 117.832C439.468 120.584 433.74 121.96 427.212 121.96C423.82 121.96 420.588 121.608 417.516 120.904C414.444 120.2 411.788 119.112 409.548 117.64L414.156 108.232C416.012 109.448 418.028 110.312 420.204 110.824C422.38 111.272 424.62 111.496 426.924 111.496C433.26 111.496 438.284 109.544 441.996 105.64C445.708 101.736 447.564 95.976 447.564 88.36C447.564 87.144 447.532 85.736 447.468 84.136C447.404 82.472 447.18 80.808 446.796 79.144L450.636 83.368C449.548 85.992 447.98 88.2 445.932 89.992C443.884 91.72 441.484 93.032 438.732 93.928C435.98 94.824 432.94 95.272 429.612 95.272C425.26 95.272 421.324 94.44 417.804 92.776C414.348 91.048 411.596 88.648 409.548 85.576C407.5 82.44 406.476 78.792 406.476 74.632C406.476 70.152 407.564 66.312 409.74 63.112C411.916 59.848 414.86 57.32 418.572 55.528C422.348 53.736 426.508 52.84 431.052 52.84ZM431.724 62.632C429.164 62.632 426.892 63.112 424.908 64.072C422.924 64.968 421.356 66.28 420.204 68.008C419.116 69.672 418.572 71.688 418.572 74.056C418.572 77.576 419.788 80.36 422.22 82.408C424.652 84.456 427.916 85.48 432.012 85.48C434.7 85.48 437.068 85 439.116 84.04C441.164 83.016 442.764 81.64 443.916 79.912C445.068 78.12 445.644 76.136 445.644 73.96C445.644 71.848 445.1 69.96 444.012 68.296C442.924 66.568 441.356 65.192 439.308 64.168C437.26 63.144 434.732 62.632 431.724 62.632ZM495.559 121.96C489.991 121.96 485.159 121.128 481.063 119.464C476.967 117.8 473.799 115.464 471.559 112.456C469.319 109.384 468.199 105.8 468.199 101.704C468.199 97.608 469.287 94.152 471.463 91.336C473.639 88.52 476.775 86.376 480.871 84.904C484.967 83.432 489.863 82.696 495.559 82.696C501.255 82.696 506.151 83.432 510.247 84.904C514.407 86.376 517.575 88.552 519.751 91.432C521.991 94.248 523.111 97.672 523.111 101.704C523.111 105.8 521.959 109.384 519.655 112.456C517.415 115.464 514.215 117.8 510.055 119.464C505.959 121.128 501.127 121.96 495.559 121.96ZM495.559 112.168C500.167 112.168 503.815 111.208 506.503 109.288C509.191 107.368 510.535 104.712 510.535 101.32C510.535 97.992 509.191 95.368 506.503 93.448C503.815 91.528 500.167 90.568 495.559 90.568C490.951 90.568 487.335 91.528 484.711 93.448C482.087 95.368 480.775 97.992 480.775 101.32C480.775 104.712 482.087 107.368 484.711 109.288C487.335 111.208 490.951 112.168 495.559 112.168ZM495.559 89.224C490.375 89.224 485.927 88.552 482.215 87.208C478.503 85.8 475.623 83.784 473.575 81.16C471.591 78.472 470.599 75.272 470.599 71.56C470.599 67.72 471.623 64.424 473.671 61.672C475.783 58.856 478.727 56.68 482.503 55.144C486.279 53.608 490.631 52.84 495.559 52.84C500.551 52.84 504.935 53.608 508.711 55.144C512.487 56.68 515.431 58.856 517.543 61.672C519.655 64.424 520.711 67.72 520.711 71.56C520.711 75.272 519.687 78.472 517.639 81.16C515.655 83.784 512.775 85.8 508.999 87.208C505.223 88.552 500.743 89.224 495.559 89.224ZM495.559 81.544C499.527 81.544 502.663 80.712 504.967 79.048C507.271 77.32 508.423 75.016 508.423 72.136C508.423 69.128 507.239 66.792 504.871 65.128C502.503 63.464 499.399 62.632 495.559 62.632C491.719 62.632 488.647 63.464 486.343 65.128C484.039 66.792 482.887 69.128 482.887 72.136C482.887 75.016 484.007 77.32 486.247 79.048C488.551 80.712 491.655 81.544 495.559 81.544ZM542.44 121L570.184 58.792L573.448 64.36H535.336L541.288 58.312V75.784H529.672V53.8H581.896V62.152L555.784 121H542.44ZM598.927 139.624H587.503C591.471 132.584 594.351 125.416 596.143 118.12C597.999 110.76 598.927 102.952 598.927 94.696C598.927 86.44 597.999 78.664 596.143 71.368C594.351 64.008 591.471 56.808 587.503 49.768H598.927C602.767 55.464 605.679 62.184 607.663 69.928C609.647 77.608 610.639 85.864 610.639 94.696C610.639 103.528 609.647 111.784 607.663 119.464C605.679 127.08 602.767 133.8 598.927 139.624ZM652.078 121.96C645.998 121.96 640.782 120.68 636.43 118.12C632.078 115.496 628.75 111.72 626.446 106.792C624.142 101.864 622.99 95.784 622.99 88.552C622.99 80.872 624.366 74.376 627.118 69.064C629.934 63.752 633.806 59.72 638.734 56.968C643.726 54.216 649.454 52.84 655.918 52.84C659.31 52.84 662.542 53.192 665.614 53.896C668.75 54.6 671.406 55.688 673.582 57.16L668.974 66.568C667.118 65.352 665.102 64.52 662.926 64.072C660.814 63.56 658.574 63.304 656.206 63.304C649.87 63.304 644.846 65.256 641.134 69.16C637.422 73.064 635.566 78.824 635.566 86.44C635.566 87.656 635.598 89.096 635.662 90.76C635.726 92.36 635.95 93.992 636.334 95.656L632.494 91.432C633.646 88.808 635.214 86.632 637.198 84.904C639.246 83.112 641.646 81.768 644.398 80.872C647.214 79.976 650.254 79.528 653.518 79.528C657.934 79.528 661.87 80.392 665.326 82.12C668.782 83.784 671.534 86.184 673.582 89.32C675.63 92.392 676.654 96.008 676.654 100.168C676.654 104.584 675.566 108.424 673.39 111.688C671.214 114.952 668.27 117.48 664.558 119.272C660.846 121.064 656.686 121.96 652.078 121.96ZM651.406 112.168C653.966 112.168 656.238 111.72 658.222 110.824C660.206 109.864 661.742 108.52 662.83 106.792C663.982 105.064 664.558 103.048 664.558 100.744C664.558 97.224 663.342 94.44 660.91 92.392C658.478 90.344 655.214 89.32 651.118 89.32C648.43 89.32 646.062 89.832 644.014 90.856C642.03 91.816 640.43 93.16 639.214 94.888C638.062 96.616 637.486 98.6 637.486 100.84C637.486 102.888 638.03 104.776 639.118 106.504C640.206 108.232 641.774 109.608 643.822 110.632C645.934 111.656 648.462 112.168 651.406 112.168ZM705.449 121.96C700.713 121.96 696.073 121.288 691.529 119.944C687.049 118.536 683.273 116.616 680.201 114.184L685.481 104.488C687.913 106.472 690.857 108.072 694.313 109.288C697.833 110.504 701.481 111.112 705.257 111.112C709.673 111.112 713.129 110.184 715.625 108.328C718.185 106.472 719.465 103.976 719.465 100.84C719.465 98.728 718.921 96.872 717.833 95.272C716.809 93.672 714.953 92.456 712.265 91.624C709.641 90.792 706.025 90.376 701.417 90.376H685.193L688.649 53.8H728.105V64.264H693.257L699.785 58.312L697.193 85.672L690.665 79.816H704.201C710.857 79.816 716.201 80.712 720.233 82.504C724.329 84.232 727.305 86.664 729.161 89.8C731.081 92.872 732.041 96.392 732.041 100.36C732.041 104.264 731.081 107.848 729.161 111.112C727.241 114.376 724.297 117 720.329 118.984C716.425 120.968 711.465 121.96 705.449 121.96ZM738.28 105.736V97.096L771.4 53.8H784.744L752.104 97.096L745.864 95.176H799.144V105.736H738.28ZM775.144 121V105.736L775.528 95.176V81.64H787.24V121H775.144ZM806.389 99.304V89.32H832.789V99.304H806.389ZM861.516 121.96C856.78 121.96 852.14 121.288 847.596 119.944C843.116 118.536 839.34 116.616 836.268 114.184L841.644 104.488C844.076 106.472 847.02 108.072 850.476 109.288C853.932 110.504 857.548 111.112 861.324 111.112C865.804 111.112 869.292 110.216 871.788 108.424C874.284 106.568 875.532 104.072 875.532 100.936C875.532 97.864 874.38 95.432 872.076 93.64C869.772 91.848 866.06 90.952 860.94 90.952H854.796V82.408L873.996 59.56L875.628 64.264H839.532V53.8H885.324V62.152L866.124 85L859.596 81.16H863.34C871.596 81.16 877.772 83.016 881.868 86.728C886.028 90.376 888.108 95.08 888.108 100.84C888.108 104.616 887.148 108.104 885.228 111.304C883.308 114.504 880.364 117.096 876.396 119.08C872.492 121 867.532 121.96 861.516 121.96ZM894.938 121V112.648L921.626 87.304C923.866 85.192 925.53 83.336 926.618 81.736C927.706 80.136 928.41 78.664 928.73 77.32C929.114 75.912 929.306 74.6 929.306 73.384C929.306 70.312 928.25 67.944 926.138 66.28C924.026 64.552 920.922 63.688 916.826 63.688C913.562 63.688 910.586 64.264 907.898 65.416C905.274 66.568 903.002 68.328 901.082 70.696L892.346 63.976C894.97 60.456 898.49 57.736 902.906 55.816C907.386 53.832 912.378 52.84 917.882 52.84C922.746 52.84 926.97 53.64 930.554 55.24C934.202 56.776 936.986 58.984 938.906 61.864C940.89 64.744 941.882 68.168 941.882 72.136C941.882 74.312 941.594 76.488 941.018 78.664C940.442 80.776 939.354 83.016 937.754 85.384C936.154 87.752 933.818 90.408 930.746 93.352L907.802 115.144L905.21 110.44H944.474V121H894.938ZM952.264 99.304V89.32H978.664V99.304H952.264ZM997.023 121V58.6L1002.49 64.264H982.815V53.8H1009.5V121H997.023ZM1050.87 121.96C1045.55 121.96 1040.75 120.616 1036.47 117.928C1032.24 115.24 1028.91 111.336 1026.48 106.216C1024.05 101.032 1022.83 94.76 1022.83 87.4C1022.83 80.04 1024.05 73.8 1026.48 68.68C1028.91 63.496 1032.24 59.56 1036.47 56.872C1040.75 54.184 1045.55 52.84 1050.87 52.84C1056.24 52.84 1061.04 54.184 1065.27 56.872C1069.49 59.56 1072.82 63.496 1075.25 68.68C1077.75 73.8 1078.99 80.04 1078.99 87.4C1078.99 94.76 1077.75 101.032 1075.25 106.216C1072.82 111.336 1069.49 115.24 1065.27 117.928C1061.04 120.616 1056.24 121.96 1050.87 121.96ZM1050.87 111.112C1054 111.112 1056.72 110.28 1059.03 108.616C1061.33 106.888 1063.12 104.264 1064.4 100.744C1065.75 97.224 1066.42 92.776 1066.42 87.4C1066.42 81.96 1065.75 77.512 1064.4 74.056C1063.12 70.536 1061.33 67.944 1059.03 66.28C1056.72 64.552 1054 63.688 1050.87 63.688C1047.86 63.688 1045.17 64.552 1042.8 66.28C1040.5 67.944 1038.67 70.536 1037.33 74.056C1036.05 77.512 1035.41 81.96 1035.41 87.4C1035.41 92.776 1036.05 97.224 1037.33 100.744C1038.67 104.264 1040.5 106.888 1042.8 108.616C1045.17 110.28 1047.86 111.112 1050.87 111.112Z" fill="url(#paint0_linear_150_138)"/>
<defs>
<linearGradient id="paint0_linear_150_138" x1="254" y1="60.5001" x2="1187.15" y2="157.055" gradientUnits="userSpaceOnUse">
<stop stop-color="#1A7F15"/>
<stop offset="0.25" stop-color="#3DB338"/>
<stop offset="0.5" stop-color="#61E65A"/>
<stop offset="0.75" stop-color="#3DB338"/>
<stop offset="1" stop-color="#1A7F15"/>
</linearGradient>
</defs>
</svg>
