<svg width="66" height="68" viewBox="0 0 66 68" fill="none" xmlns="http://www.w3.org/2000/svg">
<path d="M33 67.6959C14.7529 67.6959 0 52.5698 0 33.8613C0 15.1528 14.7529 0.0267334 33 0.0267334C51.2471 0.0267334 66 15.1528 66 33.8613C66 52.5698 51.2471 67.6959 33 67.6959ZM33 4.00727C16.8882 4.00727 3.88235 17.3421 3.88235 33.8613C3.88235 50.3805 16.8882 63.7153 33 63.7153C49.1118 63.7153 62.1176 50.3805 62.1176 33.8613C62.1176 17.3421 49.1118 4.00727 33 4.00727Z" fill="#86C383"/>
<path d="M32.4177 53.1671L29.7001 50.3807L45.8118 33.8615L29.7001 17.3423L32.4177 14.5559L51.2471 33.8615L32.4177 53.1671Z" fill="#86C383"/>
<path d="M15.5294 31.8711H48.5294V35.8516H15.5294V31.8711Z" fill="#86C383"/>
</svg>
