<svg width="59" height="59" viewBox="0 0 59 59" fill="none" xmlns="http://www.w3.org/2000/svg">
<path d="M0.172852 14.2891C0.172852 12.0996 1.6709 11.2354 3.51465 11.1201L12.0996 11.1777C12.6182 11.1777 13.0791 11.5234 13.252 12.042C15.2109 18.3799 17.6309 22.2979 20.5117 26.7344C20.6846 27.0801 20.9727 27.2529 21.2607 27.2529C21.4912 27.2529 21.7217 27.1377 21.8945 26.8496L22.0674 26.2158L22.125 16.248C22.125 14.8076 21.4336 14.5771 19.8203 14.3467C19.1865 14.2314 18.7832 13.6553 18.7832 13.0791C18.7832 12.9639 18.7832 12.8486 18.8408 12.7334C19.6475 10.2559 22.1826 8.98828 25.7549 8.98828L28.9814 8.93066C31.6318 8.93066 34.0518 10.083 34.0518 13.4824V26.5615C34.2822 26.7344 34.5127 26.8496 34.8008 26.8496C35.2617 26.8496 35.8379 26.5615 36.2988 25.8125C39.2949 21.6064 42.6943 16.5938 43.1553 13.9434C43.1553 13.8281 43.2129 13.7705 43.2705 13.6553C43.9043 12.3877 45.5176 11.5234 46.209 11.293C46.3242 11.2354 46.4971 11.1777 46.7275 11.1777H55.6582L56.2344 11.2354C57.0986 11.2354 57.7324 11.8115 58.0205 12.3301C58.5391 13.1367 58.4238 14.001 58.4814 14.3467V14.75C57.6172 19.9932 51.625 25.8701 49.0898 29.6729C48.7441 30.1338 48.5713 30.5371 48.5713 30.9404C48.5713 31.2861 48.7441 31.6318 49.0322 31.9775L57.4443 42.5791C57.9053 43.2129 58.1357 43.9619 58.1357 44.5957C58.1357 46.4971 56.3496 47.5918 54.6211 47.7646L53.6416 47.8223H44.8838C44.7109 47.8223 44.5957 47.8799 44.4229 47.8799C43.4434 47.8799 42.6367 47.3613 42.0605 46.7852C40.2168 44.5381 38.4307 42.2334 36.6445 39.9863C36.2988 39.5254 36.1836 39.4678 35.8379 39.2373C35.4346 40.9082 35.0889 42.6367 34.6855 44.3652L34.5127 45.3447C34.2246 46.3818 33.4756 47.4766 32.0928 47.7646L31.2861 47.8223H25.6396C15.6719 47.8223 6.74121 33.6484 0.460938 15.96C0.288086 15.499 0.172852 14.8652 0.172852 14.2891ZM34.8008 29.2119C33.3027 29.2119 31.6318 28.3477 31.6318 26.7344V13.4824C31.6318 11.9268 30.9404 11.3506 29.0391 11.3506L25.7549 11.4658C23.9111 11.4658 22.874 11.7539 22.0098 12.3301C23.335 12.9639 24.5449 13.8281 24.5449 16.248V26.3887C24.3721 28.4053 22.7012 29.7305 21.0879 29.7305C19.9932 29.7305 19.0137 29.0967 18.4375 28.0596C15.8447 24.1416 13.6553 20.4541 11.7539 15.1533L11.2354 13.6553L3.57227 13.5977C2.53516 13.5977 2.65039 13.6553 2.65039 14.1738C2.65039 14.5195 2.70801 14.9805 2.76562 15.2686L3.97559 18.4951C10.2559 34.7432 18.1494 45.4023 25.6396 45.4023H31.4014C32.208 45.4023 32.1504 44.4229 32.3232 43.8467L33.418 38.7764C33.6484 38.2578 33.8213 37.7969 34.2246 37.3936C34.6855 36.9326 35.2041 36.7598 35.7227 36.7598C36.8174 36.7598 37.8545 37.624 38.5459 38.4307L43.4434 44.6533C43.8467 45.2871 44.1924 45.4023 44.4229 45.4023H53.9297C54.8516 45.4023 55.6582 45.1143 55.6582 44.5381C55.6582 44.3652 55.6006 44.1348 55.4854 43.9619L47.1309 33.5332C46.4395 32.6689 46.1514 31.8047 46.1514 30.9404C46.1514 30.0186 46.4971 29.0967 47.0732 28.29C49.4932 24.6602 54.6787 19.4746 55.8887 15.2109L56.0615 14.4619C56.0039 14.1738 56.0039 13.9434 55.9463 13.6553H46.9004C46.3242 13.8857 45.8633 14.2314 45.5176 14.6924L45.1719 15.7871C43.8467 19.4746 40.2168 24.5449 37.624 28.0596C36.7598 28.8662 35.7803 29.2119 34.8008 29.2119Z" fill="#86C383"/>
</svg>
